<?xml version="1.0" encoding="iso-8859-1"?>
<!-- Uploaded to: SVG Repo, www.svgrepo.com, Generator: SVG Repo Mixer Tools -->
<svg fill="#000000" height="800px" width="800px" version="1.1" id="Layer_1" xmlns="http://www.w3.org/2000/svg" xmlns:xlink="http://www.w3.org/1999/xlink" 
	 viewBox="0 0 512 512" xml:space="preserve">
<g>
	<g>
		<g>
			<path d="M505.752,240.915L271.085,6.248c-8.331-8.331-21.839-8.331-30.17,0L6.248,240.915c-8.331,8.331-8.331,21.839,0,30.17
				l234.667,234.667c8.331,8.331,21.839,8.331,30.17,0l234.667-234.667C514.083,262.754,514.083,249.246,505.752,240.915z
				 M256,460.497L51.503,256L256,51.503L460.497,256L256,460.497z"/>
			<path d="M192,234.667v-21.333c0-11.782-9.551-21.333-21.333-21.333c-11.782,0-21.333,9.551-21.333,21.333v85.333
				c0,11.782,9.551,21.333,21.333,21.333c11.782,0,21.333-9.551,21.333-21.333v-21.333h128v21.333
				c0,11.782,9.551,21.333,21.333,21.333c11.782,0,21.333-9.551,21.333-21.333v-85.333c0-11.782-9.551-21.333-21.333-21.333
				C329.551,192,320,201.551,320,213.333v21.333H192z"/>
		</g>
	</g>
</g>
</svg>