<?xml version="1.0" encoding="utf-8"?>
<!-- Generator: Adobe Illustrator 24.0.0, SVG Export Plug-In . SVG Version: 6.00 Build 0)  -->
<svg version="1.1" id="图层_1" xmlns="http://www.w3.org/2000/svg" xmlns:xlink="http://www.w3.org/1999/xlink" x="0px" y="0px"
	 viewBox="0 0 216.77 216.33" style="enable-background:new 0 0 216.77 216.33;" xml:space="preserve">
<style type="text/css">
	.st0{fill:none;stroke:#040000;stroke-width:0.75;stroke-linecap:round;stroke-linejoin:round;stroke-miterlimit:10;}
	.st1{fill:none;stroke:#DDDCDC;stroke-width:0.75;stroke-linecap:round;stroke-linejoin:round;stroke-miterlimit:10;}
	.st2{fill:none;stroke:#000000;stroke-width:0.75;stroke-linecap:round;stroke-linejoin:round;stroke-miterlimit:10;}
	.st3{fill-rule:evenodd;clip-rule:evenodd;fill:#221613;}
	.st4{fill:none;stroke:#070001;stroke-width:0.75;stroke-linecap:round;stroke-linejoin:round;stroke-miterlimit:10;}
</style>
<path class="st0" d="M182.36,213.79h-18.48"/>
<path class="st0" d="M31.16,208.87h-6.48 M161.72,208.87H56 M191.96,208.87h-7.56"/>
<path class="st1" d="M184.4,208.27h7.56 M55.4,208.27h106.32 M24.68,208.27h7.08"/>
<line class="st0" x1="213.8" y1="34.27" x2="213.8" y2="52.75"/>
<path class="st1" d="M209.72,53.47v0.72 M209.72,32.95v0.72 M212.36,33.67v-0.72 M212.36,54.19v-0.72 M213.08,52.75V34.27"/>
<path class="st0" d="M209,185.59v6.36 M209,54.91v105.72 M209,24.67v7.56"/>
<path class="st1" d="M31.76,203.95h-0.6 M56,203.95h-0.6 M208.28,32.23v-7.56 M208.28,161.35V54.91 M208.28,191.95v-7.08"/>
<line class="st0" x1="54.68" y1="203.23" x2="32.48" y2="203.23"/>
<path class="st1" d="M203.96,184.87v0.72 M203.96,160.63v0.72 M32.48,202.51h22.2"/>
<line class="st0" x1="203.36" y1="162.07" x2="203.36" y2="184.15"/>
<path class="st0" d="M48.56,159.43l8.76,8.64 M47.24,160.63l8.76,8.76 M37.04,152.95l26.64,26.76"/>
<path class="st1" d="M191.96,8.35V7.63 M191.96,208.87v-0.6"/>
<path class="st0" d="M159.44,168.07l8.64-8.64 M160.64,169.39l8.76-8.76 M153.08,179.71l26.64-26.76"/>
<line class="st1" x1="209" y1="185.59" x2="203.96" y2="185.59"/>
<line class="st0" x1="203.96" y1="184.87" x2="208.28" y2="184.87"/>
<path class="st1" d="M202.64,184.15h0.72 M8.48,184.39H7.76"/>
<line class="st0" x1="7.04" y1="183.67" x2="4.28" y2="183.67"/>
<path class="st1" d="M2.96,182.23h0.6 M4.28,182.95h2.76"/>
<line class="st0" x1="66.44" y1="176.83" x2="39.8" y2="150.19"/>
<line class="st1" x1="185.6" y1="7.63" x2="185.6" y2="12.67"/>
<line class="st0" x1="184.88" y1="12.67" x2="184.88" y2="8.35"/>
<path class="st1" d="M184.16,14.11v-0.72 M184.4,208.27v0.6"/>
<line class="st0" x1="183.8" y1="209.59" x2="183.8" y2="212.35"/>
<path class="st1" d="M182.36,213.79v-0.72 M183.08,212.35v-2.76"/>
<path class="st0" d="M141.08,171.43H75.56 M73.28,174.07h-0.6 M144.08,174.07h-0.6 M73.76,174.19h69.12 M73.76,174.67h69.12
	 M176.96,150.19l-26.76,26.64"/>
<path class="st1" d="M7.04,163.15H4.28 M3.56,163.87h-0.6"/>
<line class="st0" x1="4.28" y1="162.43" x2="7.04" y2="162.43"/>
<path class="st1" d="M7.76,161.71h0.72 M203.36,162.07h-0.72"/>
<line class="st0" x1="208.28" y1="161.35" x2="203.96" y2="161.35"/>
<line class="st1" x1="203.96" y1="160.63" x2="209" y2="160.63"/>
<line class="st0" x1="75.56" y1="157.99" x2="141.08" y2="157.99"/>
<path class="st1" d="M163.16,209.59v2.76 M163.88,213.07v0.72"/>
<line class="st0" x1="162.44" y1="212.35" x2="162.44" y2="209.59"/>
<path class="st1" d="M161.72,208.87v-0.6 M162.08,13.39v0.72"/>
<line class="st0" x1="161.36" y1="8.35" x2="161.36" y2="12.67"/>
<line class="st1" x1="160.64" y1="12.67" x2="160.64" y2="7.63"/>
<path class="st0" d="M141.08,157.99v13.44 M143.96,173.23v-17.04 M144.32,173.23v-17.04 M97.16,141.31h-10.2 M98.12,141.43H86
	 M86,144.31h12.12 M97.16,144.43h-10.2 M142.88,154.75H73.76 M142.88,155.23H73.76"/>
<path class="st2" d="M159.92,172.75l-2.76-2.88 M43.88,56.71l2.88,2.76 M158.24,174.43l-2.76-2.76 M42.2,58.39l2.76,2.88
	 M153.68,173.35l2.88,2.88 M40.4,60.19l2.88,2.76 M176.96,66.43l2.76-2.76 M63.68,179.71l2.76-2.88 M74.6,174.67l0.48-0.48
	 M150.2,176.83l2.88,2.88 M37.04,63.67l2.76,2.76 M141.68,174.19l0.36,0.48"/>
<path class="st0" d="M119.72,116.35v-16.08 M119.96,99.67v17.28 M124.64,117.55V99.07 M124.76,117.55V99.07 M125.12,118.39V98.11"/>
<path class="st2" d="M172.76,56.71L170,59.47 M56.72,172.75l2.76-2.88 M174.56,58.39l-2.88,2.88 M58.4,174.43l2.88-2.76
	 M173.48,62.95l2.76-2.76 M60.2,176.23l2.76-2.88"/>
<path class="st0" d="M57.56,48.67L56,47.23 M168.08,159.43l-0.12-0.24l1.44,1.44 M57.32,48.55l0.12,0.24 M168.08,159.43l1.32,1.2
	 M169.4,55.99l-1.32,1.2 M57.44,167.83l-0.12,0.24 M169.4,55.99l-1.44,1.44l0.12-0.24 M57.32,168.07L56,169.39l1.56-1.44
	 M160.64,169.39l-1.2-1.32 M48.8,57.43l-0.24-0.24 M159.44,168.07l-0.24-0.24 M159.2,167.95l1.44,1.44 M48.56,57.19l-1.32-1.2
	l1.56,1.44"/>
<path class="st2" d="M172.76,159.91l-2.76-2.76 M56.72,43.87l2.76,2.88"/>
<path class="st0" d="M48.8,159.19l-1.56,1.44 M160.64,47.23l-1.44,1.44 M159.2,48.79l0.24-0.24 M48.56,159.43l0.24-0.24
	 M159.44,48.55l1.2-1.32 M56,47.23l1.32,1.32"/>
<path class="st2" d="M159.92,43.87l-2.76,2.88 M43.88,159.91l2.88-2.76"/>
<line class="st0" x1="47.24" y1="160.63" x2="48.56" y2="159.43"/>
<path class="st2" d="M66.44,39.79l-2.76-2.88 M179.72,152.95l-2.76-2.76 M62.96,43.27l-2.76-2.88 M176.24,156.43l-2.76-2.76
	 M174.56,158.23l-2.88-2.88 M58.4,42.19l2.88,2.76"/>
<path class="st0" d="M91.64,98.11v20.28 M91.88,99.07v18.48 M92,99.07v18.48 M96.68,116.95V99.67 M97.04,116.35v-16.08"/>
<path class="st2" d="M39.8,150.19l-2.76,2.76 M153.08,36.91l-2.88,2.88 M43.28,153.67l-2.88,2.76 M156.56,40.39l-2.88,2.88
	 M158.24,42.19l-2.76,2.76 M42.2,158.23l2.76-2.88"/>
<path class="st0" d="M72.32,156.19v17.04 M72.8,156.19v17.04 M75.56,171.43v-13.44"/>
<line class="st1" x1="12.68" y1="55.99" x2="7.76" y2="55.99"/>
<line class="st0" x1="8.48" y1="55.27" x2="12.68" y2="55.27"/>
<path class="st1" d="M13.4,54.55h0.72 M209,54.91h-0.72"/>
<line class="st0" x1="212.36" y1="54.19" x2="209.72" y2="54.19"/>
<path class="st1" d="M56,203.95v4.92 M213.08,52.75h0.72 M209.72,53.47h2.64"/>
<line class="st0" x1="55.4" y1="208.27" x2="55.4" y2="203.95"/>
<path class="st1" d="M54.68,203.23v-0.72 M54.92,7.63v0.72"/>
<line class="st0" x1="54.2" y1="4.27" x2="54.2" y2="7.03"/>
<path class="st1" d="M212.36,33.67h-2.64 M213.8,34.27h-0.72 M52.76,3.55V2.83 M53.48,7.03V4.27"/>
<line class="st0" x1="209.72" y1="32.95" x2="212.36" y2="32.95"/>
<path class="st1" d="M208.28,32.23H209 M14.12,32.47H13.4"/>
<line class="st0" x1="12.68" y1="31.75" x2="8.48" y2="31.75"/>
<line class="st1" x1="7.76" y1="31.03" x2="12.68" y2="31.03"/>
<path class="st0" d="M169.4,55.99l-8.76-8.76 M168.08,57.19l-8.64-8.64 M150.2,39.79l26.76,26.64"/>
<path class="st1" d="M33.68,4.27v2.76 M34.4,2.83v0.72"/>
<line class="st0" x1="32.96" y1="7.03" x2="32.96" y2="4.27"/>
<path class="st1" d="M32.24,8.35V7.63 M32.48,202.51v0.72"/>
<line class="st0" x1="31.76" y1="203.95" x2="31.76" y2="208.27"/>
<line class="st1" x1="31.16" y1="208.87" x2="31.16" y2="203.95"/>
<path class="st0" d="M56,47.23l-8.76,8.76 M57.32,48.55l-8.76,8.64 M39.8,66.43l26.64-26.64"/>
<path class="st1" d="M8.48,24.67H7.76 M209,24.67h-0.72"/>
<line class="st0" x1="179.72" y1="63.67" x2="153.08" y2="36.91"/>
<path class="st1" d="M24.68,208.27v0.6 M24.68,7.63v0.72"/>
<line class="st0" x1="63.68" y1="36.91" x2="37.04" y2="63.67"/>
<line class="st1" x1="184.16" y1="14.11" x2="162.08" y2="14.11"/>
<line class="st0" x1="162.08" y1="13.39" x2="184.16" y2="13.39"/>
<path class="st1" d="M32.24,8.35h-7.56 M161.36,8.35H54.92 M191.96,8.35h-7.08 M184.88,12.67h0.72 M160.64,12.67h0.72"/>
<path class="st0" d="M185.6,7.63h6.36 M54.92,7.63h105.72 M24.68,7.63h7.56"/>
<line class="st1" x1="14.12" y1="32.47" x2="14.12" y2="54.55"/>
<line class="st0" x1="13.4" y1="54.55" x2="13.4" y2="32.47"/>
<path class="st1" d="M8.48,184.39v7.56 M8.48,55.27v106.44 M8.48,24.67v7.08 M12.68,31.75v-0.72 M12.68,55.99v-0.72"/>
<path class="st0" d="M7.76,31.03v-6.36 M7.76,161.71V55.99 M7.76,191.95v-7.56"/>
<path class="st1" d="M52.76,3.55H34.4 M33.68,4.27h-0.72 M54.2,4.27h-0.72 M53.48,7.03h0.72 M32.96,7.03h0.72"/>
<line class="st0" x1="34.4" y1="2.83" x2="52.76" y2="2.83"/>
<path class="st1" d="M3.56,163.87v18.36 M4.28,182.95v0.72 M4.28,162.43v0.72 M7.04,163.15v-0.72 M7.04,183.67v-0.72"/>
<path class="st0" d="M2.96,182.23v-18.36"/>
<polyline class="st0" points="162.56,212.35 162.68,213.07 163.16,213.55 163.88,213.67 "/>
<polyline class="st0" points="182.36,213.67 182.96,213.55 183.56,213.07 183.68,212.35 "/>
<polyline class="st1" points="184.4,208.27 183.68,208.39 183.2,208.99 183.08,209.59 "/>
<polyline class="st0" points="184.4,208.99 183.92,209.11 183.8,209.59 "/>
<polyline class="st1" points="182.36,212.95 182.84,212.83 182.96,212.35 "/>
<polyline class="st0" points="191.96,208.87 194.36,208.75 196.76,208.15 199.04,207.31 201.08,206.23 203,204.79 204.8,202.99 
	206.24,201.07 207.32,199.03 208.16,196.75 208.76,194.35 208.88,191.95 "/>
<polyline class="st1" points="191.96,208.15 194.24,208.03 196.52,207.55 198.68,206.71 200.72,205.63 202.52,204.19 204.2,202.51 
	205.64,200.71 206.72,198.67 207.56,196.51 208.04,194.23 208.16,191.95 "/>
<polygon class="st0" points="193.4,187.75 192.08,187.87 190.88,188.35 189.8,189.07 188.84,190.03 188.24,191.11 187.88,192.43 
	187.76,193.75 188,194.95 188.48,196.27 189.32,197.23 190.28,198.07 191.48,198.67 192.8,199.03 194,199.03 195.32,198.67 
	196.52,198.07 197.48,197.23 198.32,196.27 198.8,194.95 199.04,193.75 198.92,192.43 198.56,191.11 197.96,190.03 197,189.07 
	195.92,188.35 194.72,187.87 "/>
<polyline class="st1" points="202.64,184.15 202.76,184.87 203.24,185.35 203.96,185.47 "/>
<polyline class="st0" points="208.88,185.59 208.76,185.11 208.28,184.99 "/>
<polyline class="st0" points="203.36,184.15 203.48,184.63 203.96,184.75 "/>
<polygon class="st0" points="129.92,159.67 128.6,159.79 127.4,160.27 126.32,160.99 125.36,161.95 124.76,163.03 124.4,164.35 
	124.28,165.67 124.52,166.87 125,168.19 125.84,169.15 126.8,169.99 128,170.59 129.32,170.95 130.52,170.95 131.84,170.59 
	133.04,169.99 134,169.15 134.84,168.19 135.32,166.87 135.56,165.67 135.44,164.35 135.08,163.03 134.48,161.95 133.52,160.99 
	132.44,160.27 131.24,159.79 "/>
<polygon class="st0" points="115.52,159.67 114.2,159.79 113,160.27 111.92,160.99 110.96,161.95 110.36,163.03 110,164.35 
	109.88,165.67 110.12,166.87 110.6,168.19 111.44,169.15 112.4,169.99 113.6,170.59 114.92,170.95 116.12,170.95 117.44,170.59 
	118.64,169.99 119.6,169.15 120.44,168.19 120.92,166.87 121.16,165.67 121.04,164.35 120.68,163.03 120.08,161.95 119.12,160.99 
	118.04,160.27 116.84,159.79 "/>
<polygon class="st0" points="129.92,160.03 128.6,160.15 127.52,160.63 126.44,161.35 125.6,162.31 125,163.39 124.64,164.71 
	124.64,165.91 125,167.23 125.6,168.31 126.44,169.27 127.52,169.99 128.6,170.47 129.92,170.59 131.24,170.47 132.32,169.99 
	133.4,169.27 134.24,168.31 134.84,167.23 135.2,165.91 135.2,164.71 134.84,163.39 134.24,162.31 133.4,161.35 132.32,160.63 
	131.24,160.15 "/>
<polygon class="st0" points="115.52,160.03 114.2,160.15 113.12,160.63 112.04,161.35 111.2,162.31 110.6,163.39 110.24,164.71 
	110.24,165.91 110.6,167.23 111.2,168.31 112.04,169.27 113.12,169.99 114.2,170.47 115.52,170.59 116.84,170.47 117.92,169.99 
	119,169.27 119.84,168.31 120.44,167.23 120.8,165.91 120.8,164.71 120.44,163.39 119.84,162.31 119,161.35 117.92,160.63 
	116.84,160.15 "/>
<polyline class="st0" points="126.32,196.39 127.52,196.03 128.6,195.31 129.44,194.35 130.04,193.15 130.28,191.83 130.16,190.63 
	129.8,189.43 129.08,188.35 128.12,187.51 126.92,186.91 125.6,186.67 124.4,186.79 "/>
<polyline class="st0" points="142.88,174.55 143.48,174.43 144.08,173.95 144.2,173.23 "/>
<polyline class="st1" points="163.04,209.59 162.92,208.99 162.32,208.39 161.72,208.27 "/>
<polyline class="st0" points="142.88,174.19 143.6,173.95 143.84,173.23 "/>
<polyline class="st0" points="162.32,209.59 162.2,209.11 161.72,208.99 "/>
<polyline class="st0" points="188,117.79 186.56,118.75 185.36,119.83 184.4,121.15 183.8,122.59 183.44,124.15 183.32,125.83 
	183.56,127.39 184.16,128.95 185,130.39 186.08,131.59 187.4,132.55 188.84,133.27 190.4,133.63 191.96,133.75 193.64,133.51 
	195.2,133.03 196.52,132.19 197.84,131.11 198.8,129.91 199.52,128.47 200,126.91 200.12,125.23 200,123.67 199.4,122.11 
	198.68,120.67 197.6,119.35 "/>
<polyline class="st1" points="203.96,160.75 203.24,160.87 202.76,161.47 202.64,162.07 "/>
<polyline class="st0" points="203.96,161.47 203.48,161.59 203.36,162.07 "/>
<polyline class="st0" points="208.28,161.23 208.76,161.11 208.88,160.63 "/>
<polygon class="st0" points="124.64,136.15 123.2,136.27 121.76,136.75 120.56,137.47 119.48,138.55 118.76,139.75 118.16,141.07 
	117.92,142.51 118.04,143.95 118.4,145.39 119.12,146.59 119.96,147.79 121.16,148.63 122.48,149.23 123.92,149.59 125.36,149.59 
	126.8,149.23 128.12,148.63 129.32,147.79 130.16,146.59 130.88,145.39 131.24,143.95 131.36,142.51 131.12,141.07 130.52,139.75 
	129.8,138.55 128.72,137.47 127.52,136.75 126.08,136.27 "/>
<polygon class="st0" points="124.64,136.39 123.2,136.51 121.88,136.99 120.68,137.71 119.72,138.67 118.88,139.87 118.4,141.19 
	118.16,142.51 118.28,143.95 118.64,145.27 119.24,146.47 120.2,147.55 121.28,148.39 122.6,148.99 123.92,149.35 125.36,149.35 
	126.68,148.99 128,148.39 129.08,147.55 130.04,146.47 130.64,145.27 131,143.95 131.12,142.51 130.88,141.19 130.4,139.87 
	129.56,138.67 128.6,137.71 127.4,136.99 126.08,136.51 "/>
<polygon class="st0" points="124.64,137.95 123.44,138.07 122.24,138.55 121.28,139.27 120.44,140.23 119.96,141.31 119.72,142.51 
	119.84,143.83 120.2,144.91 120.8,145.99 121.76,146.83 122.84,147.43 124.04,147.79 125.24,147.79 126.44,147.43 127.52,146.83 
	128.48,145.99 129.08,144.91 129.44,143.83 129.56,142.51 129.32,141.31 128.84,140.23 128,139.27 127.04,138.55 125.84,138.07 "/>
<polygon class="st0" points="124.64,139.39 123.56,139.51 122.72,139.99 121.88,140.71 121.4,141.55 121.16,142.63 121.28,143.59 
	121.64,144.67 122.24,145.39 123.08,145.99 124.16,146.35 125.12,146.35 126.2,145.99 127.04,145.39 127.64,144.67 128,143.59 
	128.12,142.63 127.88,141.55 127.4,140.71 126.56,139.99 125.72,139.51 "/>
<polygon class="st0" points="124.64,139.51 123.68,139.63 122.72,140.11 122,140.83 121.52,141.67 121.28,142.63 121.4,143.59 
	121.76,144.55 122.36,145.39 123.2,145.87 124.16,146.23 125.12,146.23 126.08,145.87 126.92,145.39 127.52,144.55 127.88,143.59 
	128,142.63 127.76,141.67 127.28,140.83 126.56,140.11 125.6,139.63 "/>
<line class="st0" x1="124.28" y1="119.11" x2="124.76" y2="117.55"/>
<line class="st0" x1="124.16" y1="119.11" x2="124.64" y2="117.55"/>
<polyline class="st0" points="144.2,156.19 144.08,155.59 143.48,154.99 142.88,154.87 "/>
<polyline class="st0" points="143.84,156.19 143.6,155.47 142.88,155.23 "/>
<polyline class="st0" points="98.84,187.87 97.88,186.43 96.8,185.23 95.48,184.27 94.04,183.67 92.48,183.31 90.8,183.19 
	89.24,183.43 87.68,184.03 86.24,184.87 85.04,185.95 84.08,187.27 83.36,188.71 83,190.27 82.88,191.83 83.12,193.51 83.6,195.07 
	84.44,196.39 85.52,197.71 86.72,198.67 88.16,199.39 89.72,199.87 91.4,199.99 92.96,199.87 94.52,199.27 95.96,198.55 
	97.28,197.47 "/>
<polygon class="st0" points="101.12,159.67 99.8,159.79 98.6,160.27 97.52,160.99 96.56,161.95 95.96,163.03 95.6,164.35 
	95.48,165.67 95.72,166.87 96.2,168.19 97.04,169.15 98,169.99 99.2,170.59 100.52,170.95 101.72,170.95 103.04,170.59 
	104.24,169.99 105.2,169.15 106.04,168.19 106.52,166.87 106.76,165.67 106.64,164.35 106.28,163.03 105.68,161.95 104.72,160.99 
	103.64,160.27 102.44,159.79 "/>
<polygon class="st0" points="86.72,159.67 85.4,159.79 84.2,160.27 83.12,160.99 82.16,161.95 81.56,163.03 81.2,164.35 
	81.08,165.67 81.32,166.87 81.8,168.19 82.64,169.15 83.6,169.99 84.8,170.59 86.12,170.95 87.32,170.95 88.64,170.59 89.84,169.99 
	90.8,169.15 91.64,168.19 92.12,166.87 92.36,165.67 92.24,164.35 91.88,163.03 91.28,161.95 90.32,160.99 89.24,160.27 
	88.04,159.79 "/>
<polygon class="st0" points="101.12,160.03 99.8,160.15 98.72,160.63 97.64,161.35 96.8,162.31 96.2,163.39 95.84,164.71 
	95.84,165.91 96.2,167.23 96.8,168.31 97.64,169.27 98.72,169.99 99.8,170.47 101.12,170.59 102.44,170.47 103.52,169.99 
	104.6,169.27 105.44,168.31 106.04,167.23 106.4,165.91 106.4,164.71 106.04,163.39 105.44,162.31 104.6,161.35 103.52,160.63 
	102.44,160.15 "/>
<polygon class="st0" points="86.72,160.03 85.4,160.15 84.32,160.63 83.24,161.35 82.4,162.31 81.8,163.39 81.44,164.71 
	81.44,165.91 81.8,167.23 82.4,168.31 83.24,169.27 84.32,169.99 85.4,170.47 86.72,170.59 88.04,170.47 89.12,169.99 90.2,169.27 
	91.04,168.31 91.64,167.23 92,165.91 92,164.71 91.64,163.39 91.04,162.31 90.2,161.35 89.12,160.63 88.04,160.15 "/>
<polyline class="st0" points="72.44,173.23 72.56,173.95 73.04,174.43 73.76,174.55 "/>
<polyline class="st0" points="72.8,173.23 73.04,173.95 73.76,174.19 "/>
<polyline class="st1" points="56,203.95 55.88,203.35 55.28,202.75 54.68,202.63 "/>
<polyline class="st1" points="32.48,202.63 31.76,202.75 31.28,203.35 31.16,203.95 "/>
<polyline class="st0" points="31.16,208.87 31.64,208.75 31.76,208.27 "/>
<polyline class="st0" points="32.48,203.35 32,203.47 31.88,203.95 "/>
<polyline class="st0" points="55.28,203.95 55.16,203.47 54.68,203.35 "/>
<polyline class="st0" points="55.4,208.27 55.52,208.75 56,208.87 "/>
<polyline class="st0" points="7.76,191.95 7.88,194.35 8.48,196.75 9.32,199.03 10.4,201.07 11.84,202.99 13.64,204.79 
	15.56,206.23 17.6,207.31 19.88,208.15 22.28,208.75 24.68,208.87 "/>
<polyline class="st1" points="8.48,191.95 8.6,194.23 9.08,196.51 9.92,198.67 11,200.71 12.44,202.51 14.12,204.19 15.92,205.63 
	17.96,206.71 20.12,207.55 22.4,208.03 24.68,208.15 "/>
<polygon class="st0" points="23.36,187.75 22.04,187.87 20.84,188.35 19.76,189.07 18.8,190.03 18.2,191.11 17.84,192.43 
	17.72,193.75 17.96,194.95 18.44,196.27 19.28,197.23 20.24,198.07 21.44,198.67 22.76,199.03 23.96,199.03 25.28,198.67 
	26.48,198.07 27.44,197.23 28.28,196.27 28.76,194.95 29,193.75 28.88,192.43 28.52,191.11 27.92,190.03 26.96,189.07 25.88,188.35 
	24.68,187.87 "/>
<polyline class="st0" points="2.96,182.23 3.08,182.95 3.56,183.43 4.28,183.55 "/>
<polyline class="st0" points="4.28,162.55 3.56,162.67 3.08,163.27 2.96,163.87 "/>
<polyline class="st1" points="8.36,184.39 8.24,183.79 7.64,183.19 7.04,183.07 "/>
<polyline class="st0" points="7.64,184.39 7.52,183.91 7.04,183.79 "/>
<polyline class="st1" points="3.68,182.23 3.8,182.71 4.28,182.83 "/>
<polyline class="st1" points="4.28,163.27 3.8,163.39 3.68,163.87 "/>
<polygon class="st0" points="92,136.15 90.56,136.27 89.12,136.75 87.92,137.47 86.84,138.55 86.12,139.75 85.52,141.07 
	85.28,142.51 85.4,143.95 85.76,145.39 86.48,146.59 87.32,147.79 88.52,148.63 89.84,149.23 91.28,149.59 92.72,149.59 
	94.16,149.23 95.48,148.63 96.68,147.79 97.52,146.59 98.24,145.39 98.6,143.95 98.72,142.51 98.48,141.07 97.88,139.75 
	97.16,138.55 96.08,137.47 94.88,136.75 93.44,136.27 "/>
<polygon class="st0" points="92,136.63 90.56,136.75 89.24,137.23 88.16,137.95 87.08,139.03 86.36,140.11 85.88,141.43 
	85.76,142.87 85.88,144.31 86.36,145.63 87.08,146.71 88.16,147.79 89.24,148.51 90.56,148.99 92,149.11 93.44,148.99 94.76,148.51 
	95.84,147.79 96.92,146.71 97.64,145.63 98.12,144.31 98.24,142.87 98.12,141.43 97.64,140.11 96.92,139.03 95.84,137.95 
	94.76,137.23 93.44,136.75 "/>
<polyline class="st0" points="86,141.43 85.88,142.87 86,144.31 "/>
<polyline class="st0" points="98,144.31 98.12,142.87 98,141.43 "/>
<polyline class="st2" points="97.04,141.31 96.56,140.11 95.72,139.03 94.64,138.31 93.32,137.71 92,137.59 90.68,137.71 
	89.36,138.31 88.28,139.03 87.44,140.11 86.96,141.31 "/>
<polyline class="st2" points="86.96,144.43 87.44,145.63 88.28,146.71 89.36,147.43 90.68,148.03 92,148.15 93.32,148.03 
	94.64,147.43 95.72,146.71 96.56,145.63 97.04,144.43 "/>
<polygon class="st0" points="108.32,138.91 107.24,139.03 106.16,139.51 105.32,140.23 104.72,141.19 104.36,142.27 104.36,143.47 
	104.72,144.55 105.32,145.51 106.16,146.23 107.24,146.71 108.32,146.83 109.4,146.71 110.48,146.23 111.32,145.51 111.92,144.55 
	112.28,143.47 112.28,142.27 111.92,141.19 111.32,140.23 110.48,139.51 109.4,139.03 "/>
<line class="st0" x1="92" y1="117.55" x2="92.48" y2="119.11"/>
<line class="st0" x1="92.12" y1="117.55" x2="92.6" y2="119.11"/>
<polyline class="st0" points="73.76,154.87 73.04,154.99 72.56,155.59 72.44,156.19 "/>
<polyline class="st0" points="73.76,155.23 73.04,155.47 72.8,156.19 "/>
<polyline class="st0" points="20.24,126.31 20.6,127.51 21.32,128.59 22.28,129.43 23.48,130.03 24.8,130.27 26,130.15 27.2,129.79 
	28.28,129.07 29.12,128.11 29.72,126.91 29.96,125.59 29.84,124.39 "/>
<polyline class="st1" points="7.04,163.03 7.64,162.91 8.24,162.43 8.36,161.71 "/>
<polyline class="st0" points="7.04,162.31 7.52,162.19 7.64,161.71 "/>
<polyline class="st0" points="196.52,90.31 196.16,89.11 195.44,88.03 194.48,87.19 193.28,86.59 191.96,86.35 190.76,86.47 
	189.56,86.83 188.48,87.55 187.64,88.51 187.04,89.71 186.8,91.03 186.92,92.23 "/>
<polyline class="st1" points="209.72,53.59 209,53.71 208.52,54.31 208.4,54.91 "/>
<polyline class="st0" points="209.72,54.31 209.24,54.43 209.12,54.91 "/>
<line class="st0" x1="124.76" y1="99.07" x2="124.28" y2="97.51"/>
<line class="st0" x1="124.64" y1="99.07" x2="124.16" y2="97.51"/>
<polyline class="st0" points="212.36,54.07 212.96,53.95 213.56,53.47 213.68,52.75 "/>
<polyline class="st0" points="213.68,34.27 213.56,33.67 212.96,33.07 212.36,32.95 "/>
<polyline class="st1" points="208.4,32.23 208.52,32.95 209,33.43 209.72,33.55 "/>
<polyline class="st0" points="209.12,32.23 209.24,32.71 209.72,32.83 "/>
<polyline class="st1" points="212.96,34.27 212.84,33.79 212.36,33.67 "/>
<polyline class="st1" points="212.36,53.35 212.84,53.23 212.96,52.75 "/>
<polyline class="st0" points="208.88,24.67 208.76,22.27 208.16,19.87 207.32,17.59 206.24,15.55 204.8,13.63 203,11.83 
	201.08,10.39 199.04,9.31 196.76,8.47 194.36,7.87 191.96,7.75 "/>
<polyline class="st1" points="208.16,24.67 208.04,22.39 207.56,20.11 206.72,17.95 205.64,15.91 204.2,14.11 202.52,12.43 
	200.72,10.99 198.68,9.91 196.52,9.07 194.24,8.59 191.96,8.47 "/>
<polygon class="st0" points="193.4,17.59 192.08,17.71 190.88,18.19 189.8,18.91 188.84,19.87 188.24,20.95 187.88,22.27 
	187.76,23.59 188,24.79 188.48,26.11 189.32,27.07 190.28,27.91 191.48,28.51 192.8,28.87 194,28.87 195.32,28.51 196.52,27.91 
	197.48,27.07 198.32,26.11 198.8,24.79 199.04,23.59 198.92,22.27 198.56,20.95 197.96,19.87 197,18.91 195.92,18.19 194.72,17.71 
	"/>
<polyline class="st1" points="184.16,13.99 184.76,13.87 185.36,13.39 185.48,12.67 "/>
<polyline class="st0" points="185.6,7.75 185.12,7.87 185,8.35 "/>
<polyline class="st0" points="184.16,13.27 184.64,13.15 184.76,12.67 "/>
<polyline class="st0" points="117.8,28.75 118.76,30.19 119.84,31.39 121.16,32.35 122.6,32.95 124.16,33.31 125.84,33.43 
	127.4,33.19 128.96,32.59 130.4,31.75 131.6,30.67 132.56,29.35 133.28,27.91 133.64,26.35 133.76,24.79 133.52,23.11 133.04,21.55 
	132.2,20.23 131.12,18.91 129.92,17.95 128.48,17.23 126.92,16.75 125.24,16.63 123.68,16.75 122.12,17.35 120.68,18.07 
	119.36,19.15 "/>
<polyline class="st1" points="160.76,12.67 160.88,13.39 161.36,13.87 162.08,13.99 "/>
<polyline class="st0" points="161.48,12.67 161.6,13.15 162.08,13.27 "/>
<polyline class="st0" points="161.24,8.35 161.12,7.87 160.64,7.75 "/>
<polyline class="st0" points="119.24,19.15 113.48,18.55 107.72,18.43 101.84,18.67 96.08,19.27 90.32,20.23 "/>
<polyline class="st0" points="19.16,97.39 18.56,103.15 18.44,108.91 18.68,114.79 19.28,120.55 20.24,126.31 "/>
<polyline class="st0" points="97.4,197.47 103.16,198.07 108.92,198.19 114.8,197.95 120.56,197.35 126.32,196.39 "/>
<polyline class="st0" points="197.48,119.23 198.08,113.47 198.2,107.71 197.96,101.83 197.36,96.07 196.4,90.31 "/>
<polyline class="st0" points="117.68,28.87 112.64,28.39 107.48,28.27 102.44,28.51 97.4,28.99 92.36,29.83 "/>
<polyline class="st0" points="28.88,98.95 28.4,103.99 28.28,109.15 28.52,114.19 29,119.23 29.84,124.27 "/>
<polyline class="st0" points="98.96,187.75 104,188.23 109.16,188.35 114.2,188.11 119.24,187.63 124.28,186.79 "/>
<polyline class="st0" points="187.76,117.67 188.24,112.63 188.36,107.47 188.12,102.43 187.64,97.39 186.8,92.35 "/>
<polyline class="st0" points="125,98.23 123.56,96.19 121.88,94.39 119.96,92.71 117.8,91.39 115.64,90.31 113.24,89.47 
	110.84,88.99 108.32,88.87 105.8,88.99 103.4,89.47 101,90.31 98.84,91.39 96.68,92.71 94.76,94.39 93.08,96.19 91.64,98.23 "/>
<polyline class="st0" points="91.64,118.39 93.08,120.43 94.76,122.23 96.68,123.91 98.84,125.23 101,126.31 103.4,127.15 
	105.8,127.63 108.32,127.75 110.84,127.63 113.24,127.15 115.64,126.31 117.8,125.23 119.96,123.91 121.88,122.23 123.56,120.43 
	125,118.39 "/>
<polyline class="st0" points="92.48,119.11 93.92,121.03 95.72,122.83 97.76,124.27 99.92,125.59 102.2,126.55 104.6,127.15 
	107.12,127.51 109.52,127.51 112.04,127.15 114.44,126.55 116.72,125.59 118.88,124.27 120.92,122.83 122.72,121.03 124.16,119.11 
	"/>
<polyline class="st0" points="124.16,97.51 122.72,95.59 120.92,93.79 118.88,92.35 116.72,91.03 114.44,90.07 112.04,89.47 
	109.52,89.11 107.12,89.11 104.6,89.47 102.2,90.07 99.92,91.03 97.76,92.35 95.72,93.79 93.92,95.59 92.48,97.51 "/>
<polyline class="st0" points="124.04,97.51 122.6,95.59 120.8,93.91 118.88,92.35 116.72,91.15 114.44,90.19 112.04,89.59 
	109.52,89.23 107.12,89.23 104.6,89.59 102.2,90.19 99.92,91.15 97.76,92.35 95.84,93.91 94.04,95.59 92.6,97.51 "/>
<polyline class="st0" points="92.6,119.11 94.04,121.03 95.84,122.71 97.76,124.27 99.92,125.47 102.2,126.43 104.6,127.03 
	107.12,127.39 109.52,127.39 112.04,127.03 114.44,126.43 116.72,125.47 118.88,124.27 120.8,122.71 122.6,121.03 124.04,119.11 "/>
<polyline class="st0" points="119.84,99.79 118.52,98.23 116.96,96.79 115.28,95.71 113.36,94.87 111.44,94.27 109.4,93.91 
	107.24,93.91 105.2,94.27 103.28,94.87 101.36,95.71 99.68,96.79 98.12,98.23 96.8,99.79 "/>
<polyline class="st0" points="96.8,116.83 98.12,118.39 99.68,119.83 101.36,120.91 103.28,121.75 105.2,122.35 107.24,122.71 
	109.4,122.71 111.44,122.35 113.36,121.75 115.28,120.91 116.96,119.83 118.52,118.39 119.84,116.83 "/>
<line class="st0" x1="105.32" y1="121.75" x2="108.44" y2="122.11"/>
<polyline class="st0" points="105.8,121.87 108.08,122.11 110.36,121.99 112.52,121.51 114.56,120.67 116.48,119.47 118.16,118.03 
	119.6,116.23 "/>
<polyline class="st0" points="97.04,116.23 98.72,118.15 100.64,119.71 102.8,120.91 105.2,121.75 "/>
<polyline class="st0" points="119.6,100.39 118.28,98.83 116.84,97.39 115.16,96.31 113.24,95.47 111.32,94.87 109.28,94.51 
	107.36,94.51 105.32,94.87 103.4,95.47 101.48,96.31 99.8,97.39 98.36,98.83 97.04,100.39 "/>
<polyline class="st0" points="104.84,95.71 102.92,96.43 101.24,97.39 99.56,98.59 98.12,100.03 97.04,101.71 "/>
<polyline class="st0" points="119.6,105.79 119,103.99 118.04,102.19 116.96,100.63 115.52,99.31 113.96,98.23 112.16,97.39 
	110.24,96.91 108.32,96.79 106.4,96.91 104.48,97.39 102.68,98.23 101.12,99.31 99.68,100.63 98.6,102.19 97.64,103.99 
	97.04,105.79 "/>
<polyline class="st0" points="97.04,110.83 97.64,112.63 98.6,114.43 99.68,115.99 101.12,117.31 102.68,118.39 104.48,119.23 
	106.4,119.71 108.32,119.83 110.24,119.71 112.16,119.23 113.96,118.39 115.52,117.31 116.96,115.99 118.04,114.43 119,112.63 
	119.6,110.83 "/>
<polygon class="st0" points="108.32,102.67 107,102.79 105.8,103.27 104.72,103.99 103.76,104.95 103.16,106.03 102.8,107.35 
	102.68,108.67 102.92,109.87 103.4,111.19 104.24,112.15 105.2,112.99 106.4,113.59 107.72,113.95 108.92,113.95 110.24,113.59 
	111.44,112.99 112.4,112.15 113.24,111.19 113.72,109.87 113.96,108.67 113.84,107.35 113.48,106.03 112.88,104.95 111.92,103.99 
	110.84,103.27 109.64,102.79 "/>
<polygon class="st0" points="108.32,104.11 107.24,104.23 106.16,104.71 105.2,105.43 104.6,106.39 104.24,107.47 104.12,108.55 
	104.36,109.75 104.84,110.71 105.68,111.55 106.64,112.15 107.72,112.51 108.92,112.51 110,112.15 110.96,111.55 111.8,110.71 
	112.28,109.75 112.52,108.55 112.4,107.47 112.04,106.39 111.44,105.43 110.48,104.71 109.4,104.23 "/>
<line class="st0" x1="92.48" y1="97.51" x2="92" y2="99.07"/>
<line class="st0" x1="92.6" y1="97.51" x2="92.12" y2="99.07"/>
<polyline class="st0" points="90.32,20.23 89.12,20.59 88.04,21.31 87.2,22.27 86.6,23.47 86.36,24.79 86.48,25.99 86.84,27.19 
	87.56,28.27 88.52,29.11 89.72,29.71 91.04,29.95 92.24,29.83 "/>
<polyline class="st1" points="12.68,55.87 13.28,55.75 13.88,55.27 14,54.55 "/>
<polyline class="st1" points="14,32.47 13.88,31.87 13.28,31.27 12.68,31.15 "/>
<polyline class="st0" points="7.88,31.03 8,31.51 8.48,31.63 "/>
<polyline class="st0" points="13.28,32.47 13.16,31.99 12.68,31.87 "/>
<polyline class="st0" points="12.68,55.15 13.16,55.03 13.28,54.55 "/>
<polyline class="st0" points="8.48,55.39 8,55.51 7.88,55.99 "/>
<polyline class="st0" points="54.08,4.27 53.96,3.67 53.36,3.07 52.76,2.95 "/>
<polyline class="st0" points="34.4,2.95 33.68,3.07 33.2,3.67 33.08,4.27 "/>
<polyline class="st1" points="32.24,8.35 32.84,8.23 33.44,7.75 33.56,7.03 "/>
<polyline class="st1" points="53.6,7.03 53.72,7.75 54.2,8.23 54.92,8.35 "/>
<polyline class="st0" points="54.32,7.03 54.44,7.51 54.92,7.63 "/>
<polyline class="st0" points="32.24,7.63 32.72,7.51 32.84,7.03 "/>
<polyline class="st1" points="34.4,3.67 33.92,3.79 33.8,4.27 "/>
<polyline class="st1" points="53.36,4.27 53.24,3.79 52.76,3.67 "/>
<polyline class="st0" points="24.68,7.75 22.28,7.87 19.88,8.47 17.6,9.31 15.56,10.39 13.64,11.83 11.84,13.63 10.4,15.55 
	9.32,17.59 8.48,19.87 7.88,22.27 7.76,24.67 "/>
<polyline class="st1" points="24.68,8.47 22.4,8.59 20.12,9.07 17.96,9.91 15.92,10.99 14.12,12.43 12.44,14.11 11,15.91 
	9.92,17.95 9.08,20.11 8.6,22.39 8.48,24.67 "/>
<polygon class="st0" points="23.36,17.59 22.04,17.71 20.84,18.19 19.76,18.91 18.8,19.87 18.2,20.95 17.84,22.27 17.72,23.59 
	17.96,24.79 18.44,26.11 19.28,27.07 20.24,27.91 21.44,28.51 22.76,28.87 23.96,28.87 25.28,28.51 26.48,27.91 27.44,27.07 
	28.28,26.11 28.76,24.79 29,23.59 28.88,22.27 28.52,20.95 27.92,19.87 26.96,18.91 25.88,18.19 24.68,17.71 "/>
<path class="st0" d="M119.72,101.23l-0.24-0.36l-0.24-0.36l-0.24-0.36l-0.36-0.24l-0.24-0.36l-0.24-0.36l-0.36-0.24l-0.24-0.36
	l-0.36-0.24l-0.36-0.24l-0.24-0.24l-0.36-0.24l-0.36-0.24l-0.36-0.24l-0.36-0.24l-0.36-0.24l-0.36-0.12l-0.36-0.24l-0.36-0.12
	l-0.48-0.24l-0.36-0.12l-0.36-0.12l-0.48-0.12l-0.36-0.12h-0.36l-0.48-0.12l-0.36-0.12H110h-0.36l-0.48-0.12h-0.36h-0.48
	 M108.32,95.11h-0.36l-0.48,0.12H107h-0.36l-0.48,0.12l-0.36,0.12l-0.48,0.12l-0.36,0.12 M108.32,122.11h0.48h0.36h0.48l0.36-0.12
	h0.48l0.36-0.12l0.48-0.12l0.36-0.12l0.36-0.12l0.48-0.12l0.36-0.12l0.36-0.12l0.48-0.12l0.36-0.24l0.36-0.12l0.36-0.24l0.36-0.24
	l0.36-0.24l0.36-0.24l0.36-0.24l0.36-0.24l0.24-0.24l0.36-0.24l0.36-0.24l0.24-0.36l0.36-0.24l0.24-0.36l0.24-0.36l0.36-0.24
	l0.24-0.36l0.24-0.36l0.24-0.36 M86,144.43h0.12h0.12h0.24h0.48 M97.16,144.43h0.48h0.12h0.12H98 M98,141.43h-0.12l-0.12-0.12h-0.12
	h-0.48 M86.96,141.31h-0.48h-0.24l-0.12,0.12H86"/>
<line class="st0" x1="86.12" y1="141.43" x2="86" y2="141.55"/>
<line class="st0" x1="98" y1="141.55" x2="97.88" y2="141.43"/>
<line class="st0" x1="97.88" y1="144.31" x2="98" y2="144.19"/>
<line class="st0" x1="86" y1="144.19" x2="86.12" y2="144.31"/>
<line class="st0" x1="76.4" y1="174.67" x2="75.68" y2="174.31"/>
<line class="st0" x1="141.08" y1="174.31" x2="140.36" y2="174.67"/>
<path class="st3" d="M94.39,134.16"/>
<polyline class="st4" points="29.26,98.75 30.75,97.77 31.98,96.67 32.97,95.33 33.58,93.87 33.95,92.29 34.06,90.59 33.81,89.01 
	33.17,87.44 32.29,85.98 31.17,84.78 29.79,83.81 28.29,83.09 26.67,82.74 25.05,82.62 23.31,82.88 21.69,83.37 20.33,84.23 
	18.97,85.33 17.98,86.55 17.24,88.01 16.75,89.59 16.64,91.3 16.77,92.87 17.4,94.45 18.16,95.9 19.29,97.23 "/>
<polygon class="st4" points="50.36,108.22 50.22,106.76 49.72,105.31 48.96,103.98 47.96,102.89 46.71,101.93 45.33,101.33 
	43.84,100.97 42.34,100.86 40.85,101.11 39.36,101.6 38.12,102.46 37,103.44 36.14,104.66 35.53,106.12 35.16,107.58 35.17,109.04 
	35.55,110.49 36.19,111.94 37.06,113.15 38.19,114.12 39.44,114.96 40.94,115.44 42.43,115.67 43.93,115.54 45.42,115.17 
	46.78,114.55 48.02,113.58 49.01,112.48 49.75,111.14 50.24,109.68 "/>
<polygon class="st4" points="182.03,108.62 181.89,107.17 181.39,105.71 180.63,104.38 179.63,103.3 178.38,102.33 177.01,101.73 
	175.51,101.38 174.02,101.26 172.53,101.52 171.03,102.01 169.79,102.87 168.68,103.85 167.82,105.06 167.2,106.52 166.84,107.98 
	166.85,109.44 167.23,110.89 167.86,112.35 168.74,113.56 169.87,114.52 171.11,115.36 172.61,115.84 174.11,116.07 175.6,115.94 
	177.09,115.57 178.46,114.96 179.7,113.98 180.68,112.88 181.42,111.54 181.91,110.08 "/>
</svg>
