<?xml version="1.0" encoding="utf-8"?>
<!-- Generator: Adobe Illustrator 24.0.0, SVG Export Plug-In . SVG Version: 6.00 Build 0)  -->
<svg version="1.1" id="图层_1" xmlns="http://www.w3.org/2000/svg" xmlns:xlink="http://www.w3.org/1999/xlink" x="0px" y="0px"
	 viewBox="0 0 141.73 141.73" style="enable-background:new 0 0 141.73 141.73;" xml:space="preserve">
<style type="text/css">
	.st0{fill:none;stroke:#000000;stroke-width:0.5;stroke-linecap:round;stroke-linejoin:round;stroke-miterlimit:10;}
</style>
<line class="st0" x1="93.83" y1="131.77" x2="89.93" y2="132.48"/>
<line class="st0" x1="81.42" y1="132.69" x2="69.93" y2="134.82"/>
<line class="st0" x1="87.09" y1="82.92" x2="85.46" y2="83.28"/>
<line class="st0" x1="82.84" y1="54.85" x2="80.85" y2="54.99"/>
<line class="st0" x1="62.14" y1="9.2" x2="50.37" y2="10.75"/>
<line class="st0" x1="74.05" y1="6.29" x2="70.08" y2="6.78"/>
<line class="st0" x1="36.69" y1="72.08" x2="36.83" y2="73.35"/>
<polyline class="st0" points="36.05,59.81 36.12,65.91 36.62,72.08 "/>
<line class="st0" x1="44.56" y1="89.94" x2="45.55" y2="92.71"/>
<line class="st0" x1="44.7" y1="79.52" x2="44.98" y2="80.8"/>
<line class="st0" x1="44.98" y1="80.8" x2="45.55" y2="83.21"/>
<line class="st0" x1="45.48" y1="83.21" x2="45.83" y2="84.41"/>
<line class="st0" x1="45.76" y1="84.41" x2="46.68" y2="87.39"/>
<line class="st0" x1="46.68" y1="87.39" x2="47.04" y2="88.59"/>
<polyline class="st0" points="46.4,61.09 46.47,65.55 46.75,70.02 "/>
<line class="st0" x1="46.61" y1="37.62" x2="45.83" y2="39.96"/>
<line class="st0" x1="46.75" y1="37.34" x2="46.61" y2="37.62"/>
<line class="st0" x1="46.54" y1="22.95" x2="45.12" y2="25.22"/>
<line class="st0" x1="112.54" y1="102.13" x2="113.04" y2="101"/>
<line class="st0" x1="46.68" y1="22.66" x2="46.47" y2="22.95"/>
<line class="st0" x1="67.52" y1="124.47" x2="67.81" y2="124.75"/>
<line class="st0" x1="54.13" y1="23.09" x2="53.56" y2="23.87"/>
<line class="st0" x1="67.1" y1="127.58" x2="69.01" y2="128.65"/>
<line class="st0" x1="69.01" y1="128.72" x2="71.78" y2="130.07"/>
<line class="st0" x1="71.71" y1="130.07" x2="72.98" y2="130.56"/>
<line class="st0" x1="74.05" y1="6.36" x2="70.22" y2="7.14"/>
<line class="st0" x1="68.8" y1="11.82" x2="68.02" y2="12.1"/>
<line class="st0" x1="70.22" y1="11.25" x2="68.8" y2="11.75"/>
<polyline class="st0" points="74.9,10.26 72.56,10.68 70.29,11.25 "/>
<line class="st0" x1="90.35" y1="81.22" x2="91.91" y2="79.59"/>
<polyline class="st0" points="91.91,79.59 92.9,78.24 93.83,76.83 94.53,75.27 95.03,73.64 95.38,72.01 95.6,70.3 95.6,68.6 
	95.38,66.9 94.96,65.27 94.39,63.64 93.68,62.15 92.76,60.66 91.7,59.39 90.49,58.11 89.22,57.05 87.8,56.13 86.24,55.42 "/>
<line class="st0" x1="91.84" y1="79.8" x2="91.91" y2="79.66"/>
<line class="st0" x1="78.23" y1="54.85" x2="78.16" y2="54.92"/>
<line class="st0" x1="85.53" y1="83.35" x2="85.67" y2="83.28"/>
<line class="st0" x1="81.14" y1="55.06" x2="80.92" y2="54.99"/>
<line class="st0" x1="81.63" y1="54.92" x2="81.06" y2="54.78"/>
<line class="st0" x1="85.74" y1="83.35" x2="85.96" y2="83.21"/>
<line class="st0" x1="87.16" y1="83.21" x2="87.3" y2="83.14"/>
<path class="st0" d="M78.16,54.92l-0.14,0.07l-0.14,0.14l-0.14,0.14l-0.14,0.14l-0.14,0.14l-0.14,0.14l-0.14,0.14l-0.14,0.21
	l-0.14,0.14l-0.07,0.14l-0.14,0.14l-0.14,0.14l-0.07,0.21l-0.14,0.14l-0.14,0.14l-0.07,0.21l-0.14,0.14l-0.07,0.14l-0.07,0.21
	l-0.14,0.14l-0.07,0.21l-0.07,0.14l-0.14,0.21l-0.07,0.14l-0.07,0.21l-0.07,0.14l-0.07,0.21l-0.14,0.21L74.9,59.6l-0.07,0.21
	l-0.07,0.14l-0.07,0.21l-0.07,0.21l-0.07,0.14v0.21l-0.07,0.21l-0.07,0.14l-0.07,0.21l-0.07,0.21v0.21l-0.07,0.14l-0.07,0.21v0.21
	l-0.07,0.14v0.21l-0.07,0.21l-0.07,0.21v0.14l-0.07,0.21v0.21v0.21l-0.07,0.21v0.14v0.21l-0.07,0.21v0.21v0.21v0.14l-0.07,0.21v0.21
	v0.21v0.21v0.14v0.21 M93.97,62.72l-0.07-0.28l-0.14-0.28l-0.14-0.35l-0.07-0.28l-0.14-0.28l-0.14-0.28l-0.14-0.28l-0.14-0.28
	l-0.21-0.35l-0.14-0.28l-0.14-0.28l-0.07-0.14l-0.07-0.07l-0.14-0.14l-0.07-0.14l-0.07-0.14l-0.07-0.14l-0.14-0.14l-0.07-0.14
	l-0.07-0.14l-0.14-0.14l-0.07-0.14l-0.07-0.14l-0.14-0.07l-0.07-0.14l-0.07-0.14l-0.14-0.14l-0.07-0.14l-0.14-0.07l-0.07-0.14
	l-0.14-0.14l-0.07-0.14l-0.14-0.07l-0.07-0.14l-0.14-0.14l-0.07-0.07l-0.14-0.14l-0.14-0.07l-0.07-0.14l-0.14-0.14l-0.14-0.07
	l-0.07-0.14l-0.14-0.07l-0.14-0.14l-0.14-0.07l-0.07-0.14l-0.14-0.07l-0.14-0.14l-0.14-0.07l-0.14-0.07l-0.14-0.14l-0.14-0.07
	l-0.07-0.07l-0.14-0.07l-0.14-0.14l-0.14-0.07l-0.14-0.07l-0.14-0.07L87.09,54l-0.14-0.07l-0.14-0.07l-0.14-0.07l-0.21-0.07
	l-0.14-0.07l-0.14-0.07l-0.14-0.07l-0.14-0.07h-0.14l-0.14-0.07l-0.21-0.07h-0.14l-0.14-0.07l-0.14-0.07h-0.21h-0.14l-0.14-0.07
	h-0.14l-0.21-0.07h-0.14h-0.14h-0.14h-0.21h-0.14l-0.14-0.07l-0.21,0.07h-0.14H82.7h-0.21h-0.14H82.2l-0.14,0.07h-0.21l-0.14,0.07
	h-0.14l-0.14,0.07h-0.21l-0.14,0.07h-0.14l-0.14,0.07l-0.14,0.07l-0.21,0.07l-0.14,0.07l-0.14,0.07L80,53.72l-0.14,0.07l-0.14,0.07
	l-0.14,0.07L79.43,54l-0.14,0.07l-0.14,0.07l-0.14,0.14l-0.14,0.07l-0.14,0.07l-0.14,0.07l-0.07,0.14l-0.14,0.07l-0.14,0.14
	 M73.62,66.4v0.35v0.35v0.28v0.35v0.35v0.28l0.07,0.35v0.28v0.35l0.07,0.35l0.07,0.28v0.35l0.07,0.35l0.07,0.28l0.07,0.35v0.28
	l0.07,0.35l0.07,0.35l0.14,0.28L74.4,73l0.07,0.28l0.07,0.35l0.14,0.28l0.07,0.35l0.07,0.28l0.14,0.28l0.14,0.35l0.07,0.28
	l0.14,0.28l0.14,0.35l0.14,0.28l0.14,0.28l0.14,0.35l0.14,0.28l0.14,0.28l0.14,0.28l0.07,0.14l0.07,0.14l0.07,0.14l0.14,0.14
	l0.07,0.14l0.07,0.14l0.07,0.14l0.07,0.14l0.14,0.14l0.07,0.14l0.07,0.14l0.14,0.14l0.07,0.14l0.07,0.14l0.14,0.14l0.07,0.07
	l0.14,0.14l0.07,0.14l0.07,0.14l0.14,0.14l0.07,0.14l0.14,0.07l0.07,0.14l0.14,0.14l0.14,0.14l0.07,0.07l0.14,0.14l0.07,0.14
	l0.14,0.07l0.14,0.14L79.36,82l0.14,0.07l0.14,0.14l0.07,0.07l0.14,0.14L80,82.5l0.14,0.14l0.14,0.07l0.07,0.14l0.14,0.07l0.14,0.14
	l0.14,0.07l0.14,0.07l0.14,0.14l0.14,0.07l0.14,0.07l0.14,0.07l0.14,0.14l0.14,0.07l0.14,0.07l0.14,0.07l0.14,0.07l0.14,0.07
	l0.14,0.07l0.14,0.07l0.21,0.07l0.14,0.07l0.14,0.07h0.14l0.14,0.07l0.14,0.07h0.14l0.21,0.07l0.14,0.07h0.14l0.14,0.07h0.14h0.21
	l0.14,0.07h0.14h0.21l0.14,0.07h0.14h0.14h0.21h0.14h0.14h0.14h0.21l0.14-0.07h0.14h0.21h0.14l0.14-0.07h0.14l0.14-0.07h0.21
	l0.14-0.07h0.14l0.14-0.07l0.14-0.07l0.21-0.07h0.14l0.14-0.07l0.14-0.07l0.14-0.07l0.14-0.07l0.14-0.07l0.14-0.07l0.14-0.07
	l0.14-0.14l0.14-0.07l0.14-0.07l0.14-0.07l0.14-0.14l0.07-0.07l0.14-0.07l0.14-0.14l0.14-0.07l0.07-0.14l0.14-0.07l0.14-0.14
	l0.07-0.07l0.14-0.14l0.14-0.14l0.07-0.07l0.14-0.14L91.84,82l0.14-0.07l0.07-0.14l0.14-0.14l0.07-0.07l0.14-0.14l0.07-0.14
	l0.07-0.14l0.14-0.14l0.07-0.14l0.07-0.14l0.07-0.07l0.14-0.14l0.07-0.14l0.07-0.14l0.07-0.14l0.07-0.14l0.07-0.14l0.07-0.14
	l0.14-0.14l0.07-0.14l0.07-0.14l0.07-0.14v-0.14l0.07-0.14l0.07-0.21l0.07-0.14l0.07-0.14l0.07-0.14l0.07-0.14l0.07-0.14v-0.14
	l0.07-0.14l0.07-0.14l0.07-0.21v-0.14l0.07-0.14l0.07-0.14v-0.14l0.07-0.21l0.07-0.14v-0.14l0.07-0.14V75.9l0.07-0.21l0.07-0.28
	l0.07-0.28v-0.35l0.07-0.28l0.07-0.35l0.07-0.28v-0.35l0.07-0.28v-0.35v-0.28l0.07-0.35 M91.91,79.87l-0.07,0.07l-0.07,0.14
	l-0.07,0.07l-0.14,0.14l-0.07,0.07l-0.07,0.14l-0.07,0.07l-0.07,0.07l-0.14,0.14l-0.07,0.07l-0.07,0.14l-0.07,0.07l-0.14,0.07
	l-0.07,0.14l-0.07,0.07l-0.14,0.07l-0.07,0.07l-0.07,0.07l-0.07,0.07l-0.14,0.07l-0.07,0.07L90,81.86l-0.07,0.07L89.78,82
	l-0.07,0.07l-0.07,0.07l-0.14,0.07l-0.07,0.07l-0.07,0.07l-0.14,0.07h-0.07L89,82.5l-0.07,0.07l-0.07,0.07h-0.14l-0.07,0.07
	l-0.14,0.07l-0.07,0.07H88.3l-0.07,0.07h-0.14l-0.07,0.07h-0.14l-0.07,0.07h-0.14l-0.07,0.07h-0.14l-0.14,0.07 M82.62,54.57
	l0.14-0.07h0.14h0.14h0.14h0.14h0.14h0.14h0.14l0.14,0.07h0.14h0.14h0.14l0.14,0.07h0.14h0.14l0.07,0.07h0.21l0.21,0.07l0.21,0.07
	l0.14,0.07l0.21,0.07l0.21,0.07l0.14,0.07l0.21,0.07l0.14,0.07l0.14,0.07l0.14,0.07l0.21,0.07l0.14,0.14l0.14,0.07l0.14,0.07
	l0.14,0.07l0.14,0.14l0.14,0.07l0.14,0.14l0.14,0.07l0.14,0.14l0.14,0.07l0.14,0.14l0.14,0.07 M70.15,7.07l-0.28,0.07l-0.28,0.14
	L69.3,7.35l-0.35,0.07l-0.28,0.07l-0.28,0.14l-0.28,0.07l-0.28,0.14l-0.28,0.07l-0.28,0.14l-0.28,0.07l-0.28,0.14l-0.28,0.14
	l-0.21,0.07l-0.28,0.14l-0.28,0.14l-0.28,0.14l-0.28,0.14L64.76,9.2l-0.28,0.07l-0.21,0.14l-0.28,0.14L63.7,9.76L63.41,9.9
	l-0.21,0.14l-0.28,0.14l-0.28,0.14l-0.21,0.14l-0.28,0.21l-0.28,0.14l-0.21,0.14l-0.28,0.21l-0.21,0.14l-0.28,0.14l-0.21,0.21
	l-0.28,0.14l-0.21,0.21l-0.28,0.14l-0.21,0.21l-0.28,0.21l-0.21,0.14l-0.21,0.21l-0.28,0.21l-0.21,0.14l-0.21,0.21l-0.21,0.21
	l-0.28,0.21l-0.21,0.14l-0.21,0.21l-0.21,0.21l-0.21,0.21l-0.21,0.21l-0.28,0.21l-0.21,0.21l-0.21,0.21l-0.21,0.21L55.54,16
	l-0.21,0.21l-0.21,0.21l-0.21,0.21l-0.14,0.21l-0.21,0.28l-0.21,0.21l-0.21,0.21l-0.21,0.28l-0.21,0.21l-0.21,0.28l-0.28,0.28
	l-0.21,0.28l-0.21,0.21l-0.21,0.28l-0.21,0.28l-0.21,0.28l-0.21,0.28l-0.14,0.28l-0.21,0.28l-0.21,0.28l-0.21,0.28l-0.21,0.28
	l-0.21,0.28l-0.14,0.28l-0.21,0.28l-0.21,0.28l-0.14,0.28l-0.21,0.28l-0.14,0.28l-0.21,0.28l-0.21,0.28l-0.14,0.35l-0.21,0.28
	l-0.14,0.28l-0.14,0.28l-0.21,0.28l-0.14,0.35l-0.14,0.28l-0.21,0.28l-0.14,0.35l-0.14,0.28l-0.21,0.28l-0.14,0.35l-0.14,0.28
	l-0.14,0.28l-0.14,0.35l-0.14,0.28l-0.14,0.35l-0.14,0.28l-0.14,0.28l-0.14,0.35l-0.14,0.28l-0.14,0.35l-0.14,0.28l-0.14,0.35
	l-0.14,0.28l-0.14,0.35l-0.07,0.28l-0.14,0.35l-0.14,0.28l-0.14,0.35l-0.07,0.28l-0.14,0.35l-0.14,0.35l-0.07,0.28l-0.14,0.35
	l-0.14,0.28l-0.07,0.35l-0.14,0.35l-0.07,0.28l-0.14,0.35l-0.07,0.35l-0.14,0.28l-0.07,0.35l-0.14,0.35l-0.07,0.35l-0.07,0.35
	l-0.14,0.28l-0.07,0.35l-0.07,0.35l-0.14,0.35l-0.07,0.35l-0.07,0.35l-0.07,0.28l-0.14,0.35l-0.07,0.35l-0.07,0.35l-0.07,0.35
	L42,43.01l-0.07,0.35l-0.07,0.35L41.79,44l-0.07,0.35l-0.07,0.35l-0.07,0.35l-0.07,0.35l-0.07,0.35l-0.07,0.35l-0.07,0.35
	l-0.07,0.35l-0.07,0.35v0.35l-0.07,0.35l-0.07,0.35l-0.07,0.35l-0.07,0.28v0.35L40.8,49.6l-0.07,0.35v0.35l-0.07,0.35v0.35
	l-0.07,0.35l-0.07,0.35v0.35l-0.07,0.35v0.35l-0.07,0.35v0.35v0.35l-0.07,0.35v0.35l-0.07,0.35v0.35v0.35l-0.07,0.35v0.35v0.35v0.35
	l-0.07,0.35v0.35v0.35v0.35v0.35v0.35 M67.74,124.75l0.35,0.28l0.35,0.21l0.35,0.28l0.35,0.21l0.43,0.28l0.35,0.21l0.35,0.21
	l0.35,0.28l0.35,0.21l0.35,0.21l0.43,0.21l0.35,0.21l0.35,0.21l0.43,0.21l0.35,0.21l0.43,0.21l0.35,0.21l0.43,0.14l0.35,0.21
	l0.43,0.14l0.35,0.21l0.43,0.14l0.43,0.21l0.35,0.14l0.43,0.14l0.43,0.21l0.35,0.14l0.43,0.14l0.43,0.14l0.43,0.14l0.21,0.07h0.21
	l0.21,0.07l0.21,0.07l0.14,0.07l0.21,0.07l0.21,0.07h0.21l0.21,0.07l0.21,0.07l0.21,0.07h0.21l0.21,0.07l0.21,0.07h0.21l0.21,0.07
	l0.21,0.07h0.21l0.21,0.07h0.21l0.21,0.07h0.21l0.21,0.07h0.21l0.21,0.07h0.21h0.21l0.21,0.07h0.28l0.21,0.07h0.21h0.21h0.21
	l0.21,0.07h0.21h0.21h0.21h0.21h0.21l0.21,0.07h0.21h0.21h0.21h0.21h0.21h0.21h0.28h0.21l0.21-0.07H90h0.21h0.21h0.21h0.21
	l0.21-0.07h0.21h0.21h0.21l0.21-0.07h0.21l0.21-0.07h0.21h0.21l0.21-0.07h0.21l0.21-0.07h0.21l0.21-0.07 M45.55,92.71l0.14,0.57
	l0.21,0.57l0.28,0.57l0.21,0.57l0.21,0.57l0.21,0.57l0.21,0.57l0.28,0.57l0.21,0.57l0.28,0.57l0.21,0.57l0.28,0.57l0.21,0.57
	l0.28,0.57l0.28,0.5l0.28,0.57l0.21,0.57l0.28,0.57l0.28,0.5l0.28,0.57l0.28,0.57l0.35,0.5l0.28,0.57l0.28,0.5l0.28,0.57l0.35,0.5
	l0.28,0.5l0.35,0.57l0.28,0.5l0.35,0.5l0.35,0.57l0.35,0.5l0.28,0.5l0.35,0.5l0.35,0.5l0.35,0.5l0.21,0.28l0.14,0.21l0.21,0.28
	l0.14,0.21l0.21,0.28l0.21,0.21l0.14,0.21l0.21,0.28l0.21,0.21l0.14,0.28l0.21,0.21l0.21,0.21l0.14,0.28l0.21,0.21l0.21,0.21
	l0.21,0.28l0.14,0.21l0.21,0.21l0.21,0.21l0.21,0.28l0.21,0.21l0.21,0.21l0.21,0.21l0.14,0.28l0.21,0.21l0.21,0.21l0.21,0.21
	l0.21,0.21l0.21,0.21l0.21,0.21l0.21,0.28l0.21,0.21l0.21,0.21l0.21,0.21l0.21,0.21l0.28,0.21l0.21,0.21l0.21,0.21l0.21,0.21
	l0.21,0.21l0.21,0.14l0.28,0.21l0.21,0.21l0.21,0.21l0.21,0.21l0.28,0.21l0.21,0.21l0.21,0.14l0.28,0.21l0.21,0.21l0.21,0.21
	l0.28,0.14l0.21,0.21l0.21,0.21l0.28,0.14l0.21,0.21 M40.09,59.17l-0.07,0.5v0.5v0.5v0.5v0.43v0.5v0.5l0.07,0.5v0.5v0.5v0.5v0.5
	l0.07,0.43v0.5v0.5l0.07,0.5v0.5l0.07,0.5v0.5l0.07,0.5v0.43l0.07,0.5l0.07,0.5v0.5l0.07,0.5l0.07,0.5l0.07,0.5l0.07,0.43v0.5
	l0.07,0.5l0.07,0.5l0.07,0.5l0.07,0.43l0.07,0.5l0.07,0.5l0.14,0.5l0.07,0.5l0.07,0.43l0.07,0.5l0.07,0.5l0.14,0.5l0.07,0.43
	l0.07,0.5l0.14,0.5l0.07,0.5l0.14,0.43l0.07,0.5l0.14,0.5l0.07,0.5l0.14,0.43l0.14,0.5l0.07,0.5l0.14,0.43l0.14,0.5l0.14,0.5
	l0.07,0.43l0.14,0.5l0.14,0.43l0.14,0.5l0.14,0.5l0.14,0.43l0.14,0.5l0.14,0.43l0.14,0.5 M74.83,10.26l0.07-0.07h0.35l0.35-0.07
	h0.35l0.35-0.07h0.35h0.43h0.35h0.35h0.35h0.35h0.35h0.43h0.35H80l0.35,0.07h0.35l0.35,0.07h0.35l0.43,0.07l0.35,0.07h0.35
	l0.35,0.07l0.35,0.07l0.35,0.07l0.35,0.07l0.35,0.07l0.35,0.07l0.35,0.07l0.35,0.14l0.35,0.07l0.35,0.07l0.35,0.14l0.35,0.07
	l0.35,0.14l0.35,0.14l0.35,0.07l0.35,0.14l0.28,0.14l0.35,0.07l0.35,0.14l0.35,0.14l0.35,0.14l0.28,0.14l0.35,0.14l0.35,0.21
	l0.28,0.14l0.35,0.14l0.35,0.14l0.28,0.21l0.35,0.14l0.28,0.14l0.35,0.21l0.28,0.14l0.35,0.21l0.28,0.14l0.35,0.21l0.28,0.21
	l0.35,0.14l0.28,0.21l0.28,0.21l0.35,0.21L96.31,16l0.28,0.21l0.28,0.14l0.35,0.21l0.28,0.21l0.28,0.21l0.28,0.28l0.28,0.21
	l0.28,0.21l0.28,0.21l0.28,0.21l0.28,0.21l0.28,0.28l0.28,0.21l0.28,0.21l0.28,0.28l0.28,0.21l0.28,0.28l0.28,0.21l0.21,0.21
	l0.28,0.28l0.28,0.28l0.28,0.21l0.21,0.28l0.28,0.21l0.28,0.28l0.21,0.28l0.28,0.21l0.28,0.28l0.21,0.28l0.28,0.28l0.21,0.21
	l0.28,0.28l0.21,0.28l0.21,0.28l0.28,0.28l0.21,0.28l0.28,0.28l0.21,0.28l0.21,0.28l0.21,0.28l0.28,0.28l0.21,0.28l0.21,0.28
	l0.21,0.28l0.21,0.28l0.28,0.28l0.21,0.28l0.21,0.28l0.21,0.28l0.21,0.28l0.21,0.35l0.21,0.28l0.21,0.28l0.21,0.28l0.21,0.35
	l0.14,0.28l0.21,0.28l0.21,0.28l0.21,0.35l0.21,0.28l0.21,0.28l0.14,0.35l0.21,0.28l0.21,0.35l0.14,0.28l0.21,0.28l0.21,0.35
	l0.14,0.28l0.21,0.35l0.14,0.28l0.21,0.35l0.14,0.28l0.21,0.35l0.14,0.28l0.21,0.35l0.14,0.28l0.21,0.35l0.14,0.28l0.14,0.35
	l0.21,0.35l0.14,0.28l0.14,0.35l0.21,0.35l0.14,0.28l0.14,0.35l0.14,0.28l0.14,0.35l0.21,0.35l0.14,0.35l0.14,0.28l0.14,0.35
	l0.14,0.35l0.14,0.28l0.14,0.35l0.14,0.35l0.14,0.35l0.14,0.28l0.14,0.35l0.14,0.35l0.14,0.35l0.21,0.64l0.28,0.71l0.28,0.71
	l0.21,0.64l0.21,0.71l0.28,0.71l0.21,0.71l0.21,0.71l0.21,0.64l0.21,0.71l0.21,0.71l0.21,0.71l0.14,0.71l0.21,0.71l0.21,0.71
	l0.14,0.71l0.14,0.71l0.21,0.71l0.14,0.71l0.14,0.71l0.14,0.71l0.14,0.78l0.14,0.71l0.14,0.71l0.07,0.71l0.14,0.71l0.14,0.71
	l0.07,0.78l0.07,0.71l0.14,0.71l0.07,0.71l0.07,0.78l0.07,0.71l0.07,0.71l0.07,0.71l0.07,0.78v0.71l0.07,0.71v0.78l0.07,0.71v0.71
	v0.78l0.07,0.71v0.71v0.71v0.78l-0.07,0.71 M54.05,23.16l0.28-0.35l0.28-0.35l0.21-0.28l0.28-0.35l0.21-0.28l0.28-0.28l0.28-0.35
	l0.28-0.28l0.28-0.28l0.28-0.35l0.21-0.28l0.28-0.28l0.35-0.28l0.28-0.28l0.28-0.28l0.28-0.28l0.28-0.28l0.28-0.28l0.35-0.28
	l0.28-0.28l0.35-0.21l0.28-0.28l0.35-0.28l0.28-0.21l0.35-0.28l0.28-0.21l0.35-0.28l0.35-0.21l0.28-0.21l0.35-0.21l0.35-0.28
	l0.35-0.21l0.28-0.14l0.21-0.14l0.28-0.14l0.28-0.14l0.28-0.21l0.28-0.14l0.21-0.14l0.28-0.14l0.28-0.14l0.28-0.14l0.28-0.07
	l0.28-0.14l0.28-0.14l0.28-0.14l0.28-0.14l0.28-0.07 M46.68,37.34l0.14-0.5l0.14-0.43l0.21-0.43l0.14-0.43l0.21-0.5l0.14-0.43
	l0.21-0.43l0.14-0.43l0.21-0.43l0.14-0.5l0.21-0.43l0.21-0.43l0.21-0.43l0.21-0.43l0.21-0.43l0.21-0.43l0.21-0.43l0.21-0.43
	l0.21-0.43l0.21-0.35l0.21-0.43l0.28-0.43l0.21-0.43l0.21-0.43l0.28-0.35l0.21-0.43l0.28-0.43l0.28-0.35L52.71,25l0.28-0.35
	l0.28-0.43l0.28-0.35 M44.63,79.59l-0.14-0.64l-0.14-0.64l-0.07-0.57l-0.14-0.64l-0.07-0.57l-0.14-0.64l-0.07-0.64l-0.07-0.57
	l-0.14-0.64l-0.07-0.64l-0.07-0.57l-0.07-0.64l-0.07-0.64l-0.07-0.64l-0.07-0.57l-0.07-0.64l-0.07-0.64v-0.57L43,67.89l-0.07-0.64
	v-0.64l-0.07-0.57v-0.64v-0.64l-0.07-0.64V63.5v-0.57v-0.64v-0.64v-0.64v-0.57v-0.64v-0.64l0.07-0.64V57.9l0.07-0.64v-0.57L43,56.05
	v-0.64l0.07-0.64l0.07-0.64l0.07-0.64l0.07-0.57l0.07-0.64l0.07-0.64l0.07-0.64l0.07-0.64l0.07-0.57l0.14-0.64l0.07-0.64l0.07-0.64
	l0.14-0.57l0.14-0.64l0.07-0.64l0.14-0.64l0.07-0.28l0.07-0.28l0.07-0.35l0.07-0.28l0.07-0.28l0.07-0.35l0.07-0.28l0.07-0.28
	l0.07-0.28l0.07-0.35l0.07-0.28l0.14-0.28l0.07-0.35l0.07-0.28l0.07-0.28l0.07-0.28l0.14-0.35l0.07-0.28 M77.17,126.02l-0.43-0.21
	l-0.35-0.14l-0.43-0.21l-0.35-0.14l-0.43-0.21l-0.35-0.14l-0.43-0.21l-0.35-0.21l-0.35-0.21l-0.43-0.21l-0.35-0.14l-0.35-0.28
	l-0.43-0.21l-0.35-0.21l-0.35-0.21l-0.35-0.21l-0.35-0.21l-0.35-0.28l-0.35-0.21l-0.35-0.28l-0.35-0.21l-0.35-0.28l-0.35-0.21
	l-0.35-0.28l-0.35-0.28l-0.28-0.21l-0.35-0.28l-0.35-0.28l-0.28-0.28l-0.35-0.28l-0.35-0.28l-0.28-0.28l-0.35-0.28l-0.28-0.28
	l-0.35-0.28l-0.28-0.28l-0.28-0.28l-0.35-0.35l-0.28-0.28l-0.28-0.28l-0.35-0.28l-0.28-0.35l-0.28-0.28l-0.28-0.35l-0.28-0.28
	l-0.28-0.35l-0.28-0.28l-0.28-0.35l-0.28-0.28l-0.28-0.35l-0.28-0.35l-0.28-0.28l-0.28-0.35l-0.21-0.35l-0.28-0.28l-0.28-0.35
	l-0.28-0.35l-0.21-0.35l-0.28-0.35l-0.21-0.35l-0.28-0.35l-0.28-0.28l-0.21-0.35l-0.21-0.35l-0.28-0.35l-0.21-0.35l-0.28-0.35
	l-0.21-0.43l-0.21-0.35l-0.28-0.35l-0.21-0.35l-0.21-0.35l-0.21-0.35l-0.21-0.35l-0.21-0.43l-0.21-0.35l-0.21-0.35l-0.21-0.35
	l-0.21-0.43l-0.28-0.43l-0.21-0.43l-0.21-0.43l-0.21-0.43L52,100.72l-0.21-0.43l-0.21-0.43l-0.21-0.43l-0.21-0.43l-0.21-0.5
	l-0.21-0.43l-0.21-0.43l-0.14-0.43l-0.21-0.43l-0.21-0.5l-0.21-0.43l-0.14-0.43l-0.21-0.5l-0.21-0.43l-0.14-0.43l-0.21-0.5
	l-0.14-0.43l-0.21-0.5l-0.14-0.43l-0.21-0.43l-0.14-0.5l-0.14-0.43l-0.21-0.5l-0.14-0.43l-0.14-0.5l-0.14-0.43l-0.14-0.5
	 M123.74,78.46v0.43v0.5v0.43v0.5l-0.07,0.43v0.43v0.5l-0.07,0.43v0.43l-0.07,0.5v0.43l-0.07,0.43v0.5l-0.07,0.43l-0.07,0.5v0.43
	l-0.07,0.43l-0.07,0.5l-0.07,0.43l-0.07,0.43v0.43l-0.07,0.5l-0.07,0.43l-0.07,0.43l-0.07,0.5l-0.07,0.43l-0.07,0.43l-0.14,0.5
	l-0.07,0.43l-0.07,0.43l-0.07,0.43l-0.14,0.5l-0.07,0.43l-0.07,0.43l-0.14,0.43l-0.07,0.43l-0.14,0.5l-0.07,0.43l-0.14,0.43
	l-0.07,0.43l-0.14,0.43l-0.14,0.43l-0.14,0.5l-0.07,0.43l-0.14,0.43l-0.14,0.43l-0.14,0.43l-0.14,0.43l-0.14,0.43l-0.14,0.43
	l-0.14,0.43l-0.14,0.43l-0.14,0.43l-0.21,0.43l-0.14,0.43l-0.14,0.43l-0.21,0.43l-0.14,0.43l-0.14,0.43l-0.21,0.43l-0.14,0.43
	l-0.21,0.35l-0.21,0.43l-0.14,0.43l-0.21,0.43l-0.21,0.35l-0.21,0.43l-0.21,0.43l-0.14,0.43l-0.21,0.35l-0.21,0.43l-0.28,0.35
	l-0.21,0.43l-0.21,0.35l-0.21,0.43l-0.21,0.35l-0.28,0.43l-0.21,0.35l-0.28,0.43l-0.21,0.35l-0.28,0.35l-0.21,0.43l-0.28,0.35
	l-0.21,0.35l-0.28,0.35l-0.28,0.35l-0.28,0.35l-0.28,0.35l-0.28,0.35l-0.28,0.35l-0.28,0.35l-0.28,0.35l-0.28,0.35l-0.35,0.35
	l-0.28,0.28l-0.28,0.35l-0.35,0.35l-0.28,0.28l-0.14,0.14l-0.21,0.21l-0.14,0.14l-0.14,0.14l-0.14,0.14l-0.21,0.21l-0.14,0.14
	l-0.21,0.14l-0.14,0.14l-0.14,0.14l-0.21,0.14l-0.14,0.14l-0.14,0.14l-0.21,0.14l-0.14,0.21l-0.21,0.14l-0.14,0.14l-0.21,0.14
	l-0.14,0.14l-0.21,0.14l-0.14,0.07l-0.21,0.14l-0.14,0.14l-0.21,0.14l-0.21,0.14l-0.14,0.14l-0.21,0.14l-0.14,0.14l-0.21,0.07
	l-0.21,0.14l-0.14,0.14l-0.21,0.14l-0.21,0.07l-0.14,0.14l-0.21,0.14l-0.21,0.07l-0.21,0.14l-0.14,0.14l-0.21,0.07l-0.21,0.14
	l-0.21,0.07l-0.21,0.14l-0.14,0.07l-0.21,0.14l-0.21,0.07l-0.21,0.14l-0.21,0.07l-0.21,0.14l-0.14,0.07l-0.21,0.07l-0.21,0.14
	l-0.21,0.07l-0.21,0.07L99,126.1l-0.21,0.07l-0.21,0.07l-0.21,0.07l-0.21,0.07l-0.21,0.14l-0.21,0.07l-0.21,0.07l-0.14,0.07
	l-0.21,0.07l-0.21,0.07l-0.21,0.07l-0.21,0.07l-0.21,0.07h-0.21l-0.21,0.07l-0.21,0.07l-0.21,0.07l-0.14,0.07H95.1l-0.21,0.07
	l-0.21,0.07l-0.21,0.07h-0.21l-0.21,0.07l-0.21,0.07h-0.21l-0.21,0.07h-0.21l-0.21,0.07h-0.21l-0.21,0.07h-0.21l-0.21,0.07h-0.21
	l-0.21,0.07h-0.21h-0.21l-0.21,0.07h-0.21h-0.21h-0.21l-0.21,0.07H90h-0.21h-0.21h-0.21h-0.21h-0.21h-0.21h-0.21H88.3h-0.28H87.8
	h-0.21h-0.21h-0.21h-0.21h-0.21h-0.21l-0.21-0.07H86.1h-0.21h-0.21l-0.21-0.07h-0.21h-0.21l-0.21-0.07h-0.21l-0.21-0.07h-0.21h-0.21
	l-0.21-0.07h-0.21l-0.21-0.07l-0.21-0.07h-0.21l-0.21-0.07h-0.21l-0.21-0.07l-0.21-0.07h-0.21l-0.21-0.07l-0.21-0.07h-0.21
	l-0.14-0.07l-0.21-0.07l-0.21-0.07l-0.21-0.07h-0.21L80,127.02l-0.21-0.07l-0.21-0.07l-0.21-0.07l-0.21-0.07l-0.14-0.07l-0.21-0.07
	l-0.21-0.07l-0.21-0.07l-0.21-0.07l-0.21-0.07l-0.21-0.07l-0.14-0.07l-0.43-0.14 M87.16,83.21l-0.14,0.07h-0.21l-0.14,0.07h-0.21
	h-0.21H86.1h-0.21h-0.14h-0.21h-0.14h-0.21h-0.21l-0.14-0.07h-0.21h-0.14l-0.21-0.07l-0.14-0.07H83.9l-0.14-0.07l-0.21-0.07
	l-0.14-0.07h-0.21l-0.14-0.07l-0.14-0.07l-0.21-0.07l-0.14-0.14l-0.14-0.07l-0.21-0.07l-0.14-0.07l-0.14-0.07l-0.14-0.14l-0.21-0.07
	L81.42,82l-0.14-0.14l-0.14-0.07l-0.14-0.14l-0.14-0.07l-0.14-0.14l-0.14-0.14l-0.14-0.07l-0.14-0.14l-0.14-0.14L80,80.8l-0.14-0.07
	l-0.14-0.14l-0.14-0.14l-0.07-0.14l-0.14-0.14l-0.14-0.14l-0.14-0.14l-0.07-0.07l-0.14-0.14l-0.14-0.14l-0.07-0.14l-0.14-0.14
	l-0.14-0.21l-0.07-0.14l-0.14-0.14l-0.07-0.14l-0.14-0.14l-0.07-0.14l-0.07-0.14l-0.14-0.14l-0.07-0.21l-0.14-0.14l-0.07-0.14
	l-0.07-0.14l-0.07-0.14l-0.14-0.21l-0.07-0.14l-0.07-0.14l-0.07-0.21l-0.07-0.14l-0.14-0.14l-0.07-0.21l-0.07-0.14l-0.07-0.14
	l-0.07-0.21l-0.07-0.14l-0.07-0.14l-0.07-0.21l-0.07-0.14l-0.07-0.21l-0.07-0.14l-0.07-0.14l-0.07-0.21v-0.14l-0.07-0.21l-0.07-0.14
	l-0.07-0.21l-0.07-0.14v-0.21L75.46,73l-0.07-0.21v-0.14l-0.07-0.21l-0.07-0.14v-0.21l-0.07-0.14v-0.21l-0.07-0.14v-0.21l-0.07-0.14
	v-0.21l-0.07-0.14v-0.21l-0.07-0.14V70.3l-0.07-0.14v-0.21v-0.21l-0.07-0.14v-0.21v-0.14v-0.21l-0.07-0.14v-0.21v-0.21v-0.14v-0.21
	v-0.14v-0.21l-0.07-0.14V67.4v-0.21v-0.14v-0.21v-0.14 M46.68,22.66l0.21-0.28l0.14-0.35l0.21-0.28l0.21-0.28l0.21-0.28l0.21-0.28
	l0.21-0.28l0.21-0.21l0.21-0.28l0.21-0.28l0.21-0.28l0.21-0.28l0.21-0.28l0.21-0.28l0.28-0.21l0.21-0.28l0.21-0.28l0.28-0.28
	l0.21-0.28l0.28-0.21l0.21-0.28l0.28-0.28l0.28-0.28l0.21-0.21l0.28-0.28l0.28-0.28l0.21-0.21l0.28-0.28l0.28-0.21l0.28-0.28
	l0.28-0.21l0.28-0.21l0.28-0.28l0.28-0.21l0.28-0.21l0.28-0.21l0.28-0.28l0.28-0.21l0.28-0.21l0.35-0.21l0.28-0.21l0.28-0.21
	l0.28-0.21l0.35-0.21l0.28-0.14l0.35-0.21l0.28-0.21l0.28-0.14l0.35-0.21l0.35-0.21l0.28-0.14l0.35-0.21l0.28-0.14L61,9.62
	l0.35-0.14l0.28-0.21l0.35-0.14l0.35-0.14l0.28-0.14l0.35-0.14l0.35-0.14l0.35-0.14l0.35-0.14l0.35-0.07l0.35-0.14l0.35-0.14
	l0.35-0.07l0.28-0.14l0.35-0.07l0.35-0.14l0.43-0.07l0.35-0.07l0.35-0.07l0.35-0.07l0.35-0.07l0.35-0.07L69.01,7l0.35-0.07
	l0.35-0.07l0.35-0.07 M36.05,59.81l0.07-0.57v-0.57v-0.57v-0.57l0.07-0.57v-0.57l0.07-0.57v-0.57l0.07-0.57l0.07-0.57v-0.57
	l0.07-0.57l0.07-0.57l0.07-0.5l0.07-0.57l0.07-0.57l0.07-0.57l0.07-0.57l0.07-0.57l0.07-0.57l0.14-0.57l0.07-0.5l0.07-0.57
	l0.14-0.57l0.07-0.57l0.14-0.57l0.07-0.5l0.14-0.57l0.14-0.57l0.07-0.57l0.14-0.57l0.14-0.5l0.14-0.57l0.14-0.57l0.14-0.5l0.14-0.57
	l0.14-0.57l0.21-0.5l0.14-0.57l0.14-0.57l0.21-0.5l0.14-0.57l0.21-0.5l0.14-0.57l0.21-0.5l0.21-0.57l0.21-0.5l0.14-0.5l0.21-0.57
	l0.21-0.5l0.21-0.57l0.28-0.5l0.21-0.5l0.21-0.5l0.21-0.57l0.28-0.5l0.14-0.21l0.07-0.28l0.14-0.28l0.14-0.21l0.14-0.28l0.14-0.21
	l0.07-0.28l0.14-0.21l0.14-0.28l0.14-0.21l0.14-0.28l0.14-0.21l0.14-0.28l0.14-0.21l0.14-0.21l0.14-0.28 M93.83,131.77h0.28
	l0.28-0.07l0.21-0.07l0.28-0.07h0.21l0.28-0.07l0.28-0.07l0.21-0.07l0.28-0.07l0.21-0.07l0.28-0.07l0.21-0.07l0.28-0.07l0.21-0.07
	l0.28-0.07l0.21-0.14l0.28-0.07l0.21-0.07l0.28-0.07l0.21-0.07l0.28-0.14l0.21-0.07l0.28-0.07l0.21-0.14l0.21-0.07l0.28-0.14
	l0.21-0.07l0.21-0.14l0.28-0.07l0.21-0.14l0.21-0.14l0.28-0.07l0.21-0.14l0.21-0.14l0.28-0.07l0.21-0.14l0.21-0.14l0.21-0.14
	l0.21-0.07l0.28-0.14l0.21-0.14l0.21-0.14l0.21-0.14l0.21-0.14l0.21-0.14l0.21-0.14l0.21-0.14l0.28-0.14l0.21-0.14l0.21-0.14
	l0.21-0.14l0.21-0.14l0.21-0.21l0.21-0.14l0.14-0.14l0.21-0.14l0.21-0.14l0.21-0.21l0.21-0.14l0.21-0.14l0.21-0.21l0.21-0.14
	l0.14-0.14l0.21-0.21l0.21-0.14l0.21-0.21l0.21-0.14l0.14-0.21l0.21-0.14l0.21-0.21l0.14-0.14l0.21-0.21l0.21-0.14l0.14-0.21
	l0.21-0.21l0.14-0.14l0.21-0.21l0.21-0.14l0.14-0.21l0.21-0.21l0.14-0.21l0.21-0.14l0.14-0.21l0.21-0.21l0.14-0.21l0.14-0.14
	l0.21-0.21l0.14-0.21l0.14-0.21l0.21-0.21l0.14-0.14l0.14-0.21l0.21-0.21l0.14-0.21l0.14-0.21l0.21-0.21l0.14-0.21l0.14-0.21
	l0.14-0.21l0.14-0.21l0.14-0.21l0.21-0.21l0.14-0.21l0.14-0.21l0.14-0.21l0.14-0.21l0.14-0.21l0.14-0.21l0.14-0.21l0.14-0.21
	l0.28-0.43l0.28-0.5l0.28-0.43l0.28-0.43l0.21-0.5l0.28-0.43l0.28-0.43l0.21-0.5l0.28-0.43l0.21-0.5l0.21-0.5l0.28-0.43l0.21-0.5
	l0.21-0.43l0.21-0.5l0.21-0.5l0.21-0.5l0.21-0.43l0.21-0.5l0.21-0.5l0.14-0.5l0.21-0.5l0.21-0.5l0.14-0.43l0.21-0.5l0.14-0.5
	l0.21-0.5l0.14-0.5l0.14-0.5l0.14-0.5l0.21-0.5l0.14-0.5l0.14-0.5l0.14-0.57l0.14-0.5l0.14-0.5l0.14-0.5l0.07-0.5l0.14-0.5l0.14-0.5
	l0.14-0.5l0.07-0.57l0.14-0.5l0.07-0.5l0.14-0.5l0.07-0.57l0.14-0.5l0.07-0.5l0.07-0.5l0.07-0.57l0.14-0.5l0.07-0.5l0.07-0.5
	l0.07-0.57l0.07-0.5l0.07-0.5l0.07-0.57l0.07-0.5v-0.5l0.07-0.57l0.07-0.5v-0.5l0.07-0.57l0.07-0.5v-0.5l0.07-0.57v-0.5l0.07-0.5
	v-0.57v-0.5l0.07-0.5v-0.57v-0.5 M126.51,79.09v-0.78v-0.78v-0.78v-0.78V75.2v-0.78l-0.07-0.78v-0.78l-0.07-0.78V71.3l-0.07-0.78
	l-0.07-0.78l-0.07-0.78l-0.07-0.78l-0.07-0.78l-0.07-0.78l-0.07-0.78l-0.14-0.78l-0.07-0.78l-0.14-0.78l-0.07-0.78l-0.14-0.78
	l-0.14-0.78l-0.14-0.78l-0.14-0.78l-0.14-0.71l-0.14-0.78l-0.21-0.78l-0.14-0.78l-0.14-0.78l-0.21-0.71l-0.21-0.78l-0.14-0.78
	l-0.21-0.71l-0.21-0.78l-0.21-0.78l-0.21-0.71l-0.21-0.78l-0.28-0.71l-0.21-0.78l-0.21-0.71l-0.28-0.78l-0.28-0.71l-0.21-0.78
	l-0.28-0.71l-0.28-0.71l-0.14-0.43l-0.14-0.35l-0.14-0.35l-0.14-0.35l-0.14-0.35l-0.14-0.35l-0.14-0.35l-0.14-0.35l-0.21-0.35
	l-0.14-0.35l-0.14-0.43l-0.14-0.35l-0.21-0.35l-0.14-0.35l-0.14-0.35l-0.21-0.35l-0.14-0.35l-0.14-0.35l-0.21-0.35l-0.14-0.35
	l-0.21-0.28l-0.14-0.35l-0.21-0.35l-0.14-0.35l-0.21-0.35l-0.14-0.35l-0.21-0.35l-0.14-0.35l-0.21-0.35l-0.21-0.28l-0.14-0.35
	l-0.21-0.35l-0.21-0.35l-0.21-0.35l-0.14-0.28l-0.21-0.35l-0.21-0.35l-0.21-0.28l-0.21-0.35l-0.21-0.35l-0.21-0.28l-0.21-0.35
	l-0.21-0.35l-0.21-0.28l-0.21-0.35l-0.21-0.35l-0.21-0.28l-0.21-0.35l-0.21-0.28l-0.21-0.35l-0.28-0.28l-0.21-0.35l-0.21-0.28
	l-0.21-0.35L110.13,25l-0.21-0.28l-0.21-0.35l-0.28-0.28l-0.21-0.35l-0.28-0.28l-0.21-0.28l-0.21-0.28l-0.28-0.35l-0.28-0.28
	l-0.21-0.28l-0.28-0.28l-0.21-0.35l-0.28-0.28l-0.28-0.28l-0.21-0.28l-0.28-0.28l-0.28-0.28l-0.28-0.28l-0.21-0.28l-0.28-0.28
	l-0.28-0.28l-0.28-0.28l-0.28-0.28l-0.28-0.28l-0.28-0.28l-0.28-0.21l-0.28-0.28l-0.28-0.28l-0.28-0.28l-0.28-0.21l-0.28-0.28
	l-0.28-0.28l-0.35-0.21l-0.28-0.28l-0.28-0.21l-0.28-0.28l-0.35-0.21l-0.28-0.28l-0.28-0.21l-0.35-0.21l-0.28-0.28l-0.35-0.21
	l-0.28-0.21l-0.35-0.21l-0.28-0.21l-0.35-0.28l-0.28-0.21l-0.35-0.21l-0.28-0.21l-0.35-0.21l-0.35-0.21l-0.28-0.14l-0.35-0.21
	l-0.35-0.21l-0.35-0.21l-0.35-0.21l-0.28-0.14l-0.35-0.21L92.97,9.9l-0.35-0.21l-0.35-0.14l-0.35-0.21L91.56,9.2L91.2,9.05
	l-0.35-0.21L90.49,8.7l-0.35-0.14l-0.35-0.14l-0.35-0.14L89,8.13l-0.35-0.14L88.3,7.85l-0.35-0.14l-0.35-0.07l-0.43-0.14l-0.35-0.14
	l-0.35-0.07l-0.43-0.14l-0.35-0.07l-0.35-0.14l-0.43-0.07l-0.35-0.07l-0.35-0.07l-0.43-0.07L83.4,6.57L82.98,6.5l-0.35-0.07
	L82.2,6.36l-0.35-0.07l-0.35-0.07h-0.43l-0.35-0.07h-0.43l-0.35-0.07h-0.43h-0.35l-0.43-0.07H78.3h-0.35h-0.43h-0.35l-0.43,0.07
	h-0.35h-0.43l-0.35,0.07h-0.43l-0.35,0.07H74.4l-0.35,0.07 M74.61,66.69l0.07-0.28v-0.21v-0.28V65.7v-0.28l0.07-0.21v-0.28V64.7
	l0.07-0.28v-0.21l0.07-0.28l0.07-0.21V63.5l0.07-0.28L75.11,63v-0.28l0.07-0.21l0.07-0.21l0.07-0.28l0.07-0.21l0.07-0.28l0.07-0.21
	l0.07-0.21l0.14-0.21l0.07-0.28l0.07-0.21l0.07-0.21l0.14-0.21l0.07-0.21l0.14-0.28l0.07-0.21l0.14-0.21l0.14-0.21l0.14-0.21
	l0.07-0.21l0.14-0.21l0.07-0.07l0.07-0.14l0.07-0.07l0.07-0.07l0.07-0.14l0.07-0.07l0.14-0.07l0.07-0.14l0.07-0.07l0.07-0.14
	l0.07-0.07l0.07-0.07l0.07-0.07l0.14-0.14l0.07-0.07l0.07-0.07l0.07-0.07l0.14-0.14l0.07-0.07l0.07-0.07l0.07-0.07l0.14-0.07
	l0.07-0.07l0.07-0.07l0.14-0.07l0.07-0.14l0.14-0.07l0.07-0.07l0.14-0.07h0.07l0.07-0.07l0.14-0.07l0.07-0.07l0.14-0.07l0.07-0.07
	l0.14-0.07h0.14l0.07-0.07l0.14-0.07l0.07-0.07h0.14l0.14-0.07h0.07l0.14-0.07l0.14-0.07h0.07l0.14-0.07h0.14h0.07l0.14-0.07h0.14
	h0.07l0.14-0.07h0.14h0.14h0.07 M67.1,127.66l-0.21-0.14l-0.21-0.14l-0.21-0.14l-0.21-0.14l-0.21-0.14l-0.21-0.14l-0.21-0.14
	l-0.21-0.14l-0.21-0.14l-0.21-0.14l-0.21-0.14l-0.21-0.14l-0.35-0.28l-0.43-0.28l-0.43-0.28l-0.35-0.28l-0.43-0.35l-0.43-0.28
	l-0.35-0.35l-0.35-0.28L61,123.19l-0.35-0.28l-0.43-0.35l-0.35-0.35l-0.35-0.35l-0.35-0.35l-0.35-0.35l-0.35-0.28l-0.35-0.35
	l-0.35-0.35l-0.35-0.43l-0.35-0.35l-0.35-0.35l-0.35-0.35l-0.35-0.35l-0.28-0.43l-0.35-0.35l-0.35-0.35l-0.28-0.43l-0.35-0.35
	l-0.28-0.35l-0.35-0.43l-0.28-0.35l-0.28-0.43l-0.35-0.43l-0.28-0.35l-0.28-0.43l-0.28-0.43l-0.35-0.35l-0.28-0.43l-0.28-0.43
	l-0.28-0.43l-0.28-0.35l-0.28-0.43l-0.21-0.43l-0.28-0.43l-0.28-0.43l-0.28-0.43l-0.28-0.43l-0.21-0.43l-0.28-0.43l-0.28-0.43
	l-0.21-0.43l-0.28-0.43l-0.21-0.5l-0.28-0.43l-0.21-0.43l-0.21-0.43l-0.28-0.43l-0.21-0.5l-0.21-0.43l-0.21-0.43l-0.28-0.43
	l-0.21-0.5l-0.21-0.43l-0.21-0.5l-0.21-0.43l-0.21-0.43l-0.21-0.5l-0.21-0.43l-0.21-0.5l-0.14-0.43l-0.21-0.5l-0.21-0.43l-0.21-0.5
	l-0.14-0.43l-0.21-0.5l-0.14-0.43l-0.21-0.5L42,94.76l-0.14-0.5l-0.14-0.5l-0.21-0.43l-0.14-0.5l-0.21-0.5l-0.14-0.43l-0.14-0.5
	l-0.14-0.5l-0.21-0.43l-0.14-0.5l-0.14-0.5l-0.14-0.5l-0.14-0.43l-0.14-0.5l-0.14-0.5l-0.14-0.5l-0.14-0.5l-0.14-0.43l-0.07-0.5
	l-0.14-0.5l-0.14-0.5l-0.14-0.5l-0.07-0.5l-0.14-0.5l-0.07-0.43l-0.14-0.5l-0.14-0.5l-0.07-0.5l-0.07-0.5l-0.14-0.5l-0.07-0.5
	l-0.14-0.5l-0.07-0.5l-0.07-0.5l-0.07-0.5l-0.14-0.5l-0.07-0.5l-0.07-0.5l-0.07-0.5l-0.07-0.5l-0.07-0.5l-0.07-0.5l-0.07-0.5
	l-0.07-0.5 M89.93,132.48l-0.21,0.07l-0.28,0.07h-0.28l-0.28,0.07h-0.21l-0.28,0.07h-0.28l-0.28,0.07h-0.28H87.3l-0.28,0.07h-0.28
	h-0.28h-0.21h-0.28l-0.28,0.07h-0.28h-0.28h-0.21h-0.28h-0.28h-0.28h-0.28l-0.21-0.07h-0.28h-0.28H82.7l-0.28-0.07H82.2h-0.28
	l-0.28-0.07h-0.28h-0.21l-0.28-0.07h-0.28l-0.28-0.07l-0.21-0.07h-0.28l-0.28-0.07l-0.28-0.07h-0.21l-0.28-0.07l-0.28-0.07
	l-0.28-0.07h-0.21l-0.28-0.07l-0.28-0.07l-0.21-0.07l-0.28-0.07l-0.28-0.07l-0.21-0.07l-0.28-0.07l-0.28-0.07l-0.21-0.07l-0.28-0.07
	l-0.21-0.14l-0.28-0.07l-0.28-0.07l-0.21-0.07l-0.28-0.14l-0.21-0.07l-0.28-0.07l-0.21-0.14l-0.28-0.07h-0.07 M82.84,54.85h-0.21
	h-0.14l-0.21,0.07h-0.14l-0.14,0.07h-0.21l-0.14,0.07l-0.14,0.07h-0.21l-0.14,0.07l-0.14,0.07l-0.21,0.07l-0.14,0.07l-0.14,0.07
	l-0.14,0.07l-0.14,0.14L80,55.77l-0.14,0.07l-0.14,0.14l-0.14,0.07l-0.14,0.07l-0.14,0.14l-0.14,0.14l-0.14,0.07l-0.07,0.14
	l-0.14,0.07l-0.14,0.14l-0.14,0.14l-0.14,0.14l-0.07,0.07l-0.14,0.14l-0.14,0.14 M78.02,57.47l-0.07,0.14l-0.07,0.14l-0.14,0.07
	l-0.07,0.14l-0.14,0.14l-0.07,0.14l-0.07,0.14l-0.14,0.14l-0.07,0.14l-0.07,0.14l-0.07,0.14l-0.07,0.14l-0.07,0.14l-0.14,0.14
	l-0.07,0.14l-0.07,0.14l-0.07,0.14l-0.07,0.14l-0.07,0.14l-0.07,0.14l-0.07,0.14v0.14l-0.07,0.21l-0.07,0.14l-0.07,0.14l-0.07,0.14
	l-0.07,0.14v0.14l-0.07,0.21l-0.07,0.14v0.14l-0.07,0.14l-0.07,0.14v0.21l-0.07,0.14v0.14l-0.07,0.14l-0.07,0.21v0.14v0.14
	l-0.07,0.14v0.21l-0.07,0.14v0.14l-0.07,0.14v0.21v0.14v0.14l-0.07,0.14v0.21v0.14l-0.07,0.14v0.21v0.14v0.28v0.35l-0.07,0.35v0.28
	v0.35v0.28v0.35l0.07,0.35v0.28v0.35l0.07,0.28v0.35l0.07,0.28v0.35l0.07,0.35l0.07,0.28l0.07,0.35l0.07,0.28l0.07,0.35l0.07,0.28
	l0.07,0.28l0.07,0.35L75.82,73l0.07,0.35l0.14,0.28l0.07,0.28l0.14,0.35l0.07,0.28l0.14,0.28l0.14,0.35l0.07,0.14l0.07,0.14
	l0.07,0.14l0.07,0.14l0.07,0.14l0.07,0.14l0.07,0.14l0.07,0.14l0.07,0.14l0.07,0.14l0.07,0.14l0.07,0.14l0.07,0.14l0.07,0.14
	 M77.59,77.18l0.07,0.21l0.14,0.14l0.07,0.14l0.14,0.14l0.07,0.21l0.14,0.14l0.07,0.14l0.14,0.14l0.07,0.14l0.14,0.14l0.07,0.21
	l0.14,0.14l0.14,0.14l0.07,0.14l0.14,0.14l0.14,0.14l0.07,0.14l0.14,0.14l0.14,0.14l0.14,0.14L80,80.3l0.14,0.14l0.14,0.14
	l0.07,0.14l0.14,0.14l0.14,0.07l0.14,0.14l0.21,0.14l0.14,0.07l0.14,0.14l0.14,0.07l0.14,0.14l0.14,0.07l0.21,0.14l0.14,0.07
	L82.2,82l0.14,0.14l0.21,0.07l0.14,0.07l0.14,0.07l0.21,0.07l0.14,0.07l0.21,0.07l0.14,0.07l0.21,0.07l0.14,0.07h0.21l0.14,0.07
	l0.21,0.07h0.21l0.14,0.07h0.21h0.14l0.21,0.07h0.21h0.14h0.21h0.21h0.14l0.21-0.07h0.14h0.21l0.21-0.07h0.14 M86.31,55.42
	l-0.14-0.07H86.1l-0.14-0.07l-0.07-0.07h-0.14l-0.07-0.07H85.6l-0.14-0.07h-0.07h-0.14l-0.14-0.07h-0.07l-0.14-0.07h-0.07h-0.14
	h-0.07l-0.14-0.07H84.4h-0.14h-0.07h-0.14l-0.14-0.07h-0.07h-0.14h-0.07h-0.14H83.4h-0.14h-0.07h-0.14h-0.14l-0.07,0.07
	 M87.23,82.92l0.14-0.07h0.07h0.14l0.07-0.07h0.14l0.07-0.07h0.14l0.07-0.07h0.14l0.07-0.07l0.14-0.07h0.07l0.14-0.07h0.07
	l0.07-0.07l0.14-0.07L89,82.21h0.14l0.07-0.07l0.07-0.07L89.43,82l0.07-0.07l0.07-0.07h0.14l0.07-0.07l0.07-0.07l0.07-0.07
	l0.14-0.07l0.07-0.07l0.07-0.07l0.07-0.07l0.07-0.07"/>
<polyline class="st0" points="99.21,73.21 99.21,73.49 99.21,73.78 99.21,73.99 99.21,74.27 99.21,74.56 99.14,74.77 99.14,75.05 
	99.14,75.34 99.14,75.55 99.07,75.83 99.07,76.12 99,76.33 99,76.61 99,76.83 98.93,77.11 98.93,77.39 98.86,77.61 98.79,77.89 
	98.79,78.17 98.72,78.39 98.72,78.67 98.65,78.88 98.57,79.17 98.5,79.45 98.5,79.66 98.43,79.95 98.36,80.16 98.29,80.44 
	98.22,80.65 98.15,80.94 98.08,81.15 98.01,81.43 97.94,81.65 97.87,81.93 97.8,82.14 97.72,82.43 97.65,82.64 97.51,82.92 
	97.44,83.14 97.37,83.42 97.3,83.63 97.16,83.84 97.09,84.13 96.94,84.34 96.87,84.62 96.73,84.84 96.66,85.05 96.52,85.33 
	96.45,85.55 96.31,85.76 96.16,85.97 96.09,86.25 95.95,86.47 95.81,86.68 95.67,86.89 95.53,87.11 95.38,87.32 95.24,87.53 
	95.1,87.81 94.96,88.03 94.82,88.24 94.68,88.45 94.53,88.59 94.39,88.81 94.25,89.02 94.04,89.23 93.9,89.44 93.68,89.66 
	93.54,89.8 93.4,90.01 93.19,90.22 92.97,90.37 92.83,90.58 92.62,90.79 92.48,90.93 92.27,91.08 92.05,91.29 91.84,91.43 
	91.63,91.57 91.41,91.78 91.2,91.93 90.99,92.07 90.78,92.21 90.56,92.35 90.35,92.49 90.14,92.63 89.93,92.78 89.71,92.85 
	89.43,92.99 89.36,93.06 89.22,93.13 89.08,93.2 89,93.2 88.86,93.27 88.72,93.34 88.65,93.34 88.51,93.41 88.37,93.49 88.3,93.49 
	88.15,93.56 88.01,93.63 87.87,93.63 87.8,93.7 87.66,93.7 87.52,93.77 87.37,93.77 87.3,93.84 87.16,93.84 87.02,93.91 
	86.88,93.91 86.81,93.98 86.67,93.98 86.52,93.98 86.38,94.05 86.24,94.05 86.17,94.05 86.03,94.12 85.89,94.12 85.74,94.12 
	85.6,94.12 85.46,94.19 85.39,94.19 85.25,94.19 85.11,94.19 84.96,94.19 84.82,94.19 84.68,94.19 84.61,94.19 84.47,94.19 
	84.33,94.19 84.18,94.19 84.04,94.19 83.9,94.19 83.83,94.19 83.69,94.19 83.55,94.19 83.4,94.19 83.26,94.19 83.12,94.19 
	83.05,94.12 82.91,94.12 82.77,94.12 82.62,94.12 82.41,94.05 82.13,94.05 81.84,93.98 81.63,93.91 81.35,93.84 81.14,93.77 
	80.85,93.7 80.64,93.63 80.36,93.56 80.14,93.49 79.86,93.41 79.65,93.27 79.36,93.2 79.15,93.06 78.94,92.99 78.65,92.85 
	78.44,92.78 78.23,92.63 78.02,92.49 77.73,92.35 77.52,92.28 77.31,92.14 77.09,92 76.88,91.86 76.67,91.71 76.46,91.57 
	76.24,91.43 76.03,91.22 75.82,91.08 75.61,90.93 75.39,90.79 75.18,90.58 75.04,90.44 74.83,90.3 74.61,90.08 74.4,89.94 
	74.26,89.73 74.05,89.59 73.9,89.37 73.69,89.23 73.48,89.02 73.34,88.81 73.12,88.66 72.98,88.45 72.77,88.24 72.63,88.03 
	72.49,87.89 72.27,87.67 72.13,87.46 71.99,87.25 71.78,87.03 71.64,86.82 71.49,86.61 71.35,86.4 71.21,86.18 71.07,85.97 
	70.93,85.76 70.71,85.55 70.57,85.33 70.43,85.12 70.29,84.91 70.22,84.69 70.08,84.48 69.93,84.27 69.79,84.06 69.65,83.84 
	69.51,83.56 69.37,83.35 69.3,83.14 69.15,82.92 69.01,82.71 68.94,82.43 68.8,82.21 68.66,82 68.59,81.72 68.45,81.5 68.38,81.29 
	68.23,81.01 68.16,80.8 68.02,80.58 67.95,80.3 67.81,80.09 67.74,79.87 67.67,79.59 67.52,79.38 67.45,79.09 67.38,78.88 
	67.24,78.67 67.17,78.39 67.1,78.17 67.03,77.89 66.96,77.68 66.89,77.39 66.74,77.18 66.67,76.9 66.6,76.68 66.53,76.4 
	66.46,76.19 66.39,75.9 66.32,75.69 66.25,75.41 66.25,75.2 66.18,74.91 66.11,74.63 66.04,74.42 65.96,74.13 65.89,73.92 
	65.89,73.64 65.82,73.42 65.75,73.14 65.75,72.86 65.68,72.64 "/>
<polyline class="st0" points="65.68,72.64 65.61,72.36 65.61,72.08 65.54,71.86 65.54,71.58 65.47,71.37 65.47,71.08 65.4,70.8 
	65.4,70.59 65.33,70.3 65.33,70.02 65.26,69.81 65.26,69.52 65.26,69.24 65.18,69.03 65.18,68.74 65.18,68.46 65.18,68.25 
	65.18,67.96 65.11,67.68 65.11,67.47 65.11,67.18 65.11,66.9 65.11,66.69 65.11,66.4 65.11,66.12 65.11,65.91 65.11,65.63 
	65.11,65.41 65.11,65.13 65.11,64.85 65.11,64.63 65.18,64.35 65.18,64.07 65.18,63.85 65.18,63.57 65.26,63.29 65.26,63.07 
	65.26,62.79 65.33,62.51 65.33,62.29 65.33,62.01 65.4,61.73 65.4,61.51 65.47,61.23 65.47,61.02 65.54,60.73 65.61,60.45 
	65.61,60.24 65.68,59.95 65.75,59.74 65.75,59.46 65.82,59.17 65.89,58.96 65.96,58.68 66.04,58.47 66.04,58.18 66.11,57.97 
	66.18,57.69 66.25,57.47 66.32,57.19 66.39,56.98 66.46,56.69 66.6,56.48 66.67,56.2 66.74,55.98 66.82,55.7 66.89,55.49 
	67.03,55.2 67.1,54.99 67.17,54.71 67.31,54.5 67.38,54.28 67.52,54 67.6,53.79 67.74,53.57 67.81,53.29 67.95,53.08 68.02,52.86 
	68.16,52.65 68.3,52.37 68.45,52.16 68.52,51.94 68.66,51.73 68.8,51.52 68.94,51.3 69.08,51.02 69.23,50.81 69.37,50.6 
	69.51,50.38 69.65,50.17 69.79,49.96 70.01,49.82 70.15,49.6 70.29,49.39 70.5,49.18 70.64,48.97 70.79,48.75 71,48.61 71.14,48.4 
	71.35,48.19 71.57,48.04 71.71,47.83 71.92,47.69 72.13,47.48 72.27,47.34 72.49,47.19 72.7,46.98 72.91,46.84 73.12,46.7 
	73.34,46.56 73.55,46.41 73.76,46.27 73.98,46.13 74.19,45.99 74.47,45.85 74.68,45.7 74.9,45.63 75.04,45.56 75.11,45.49 
	75.25,45.42 75.39,45.42 75.46,45.35 75.61,45.28 75.75,45.28 75.82,45.21 75.96,45.14 76.1,45.14 76.24,45.07 76.31,45 76.46,45 
	76.6,44.92 76.67,44.92 76.81,44.85 76.95,44.85 77.09,44.78 77.24,44.78 77.31,44.71 77.45,44.71 77.59,44.64 77.73,44.64 
	77.8,44.64 77.95,44.57 78.09,44.57 78.23,44.57 78.37,44.5 78.51,44.5 78.58,44.5 78.73,44.5 78.87,44.43 79.01,44.43 79.15,44.43 
	79.22,44.43 79.36,44.43 79.51,44.43 79.65,44.43 79.79,44.43 79.93,44.43 80,44.43 80.14,44.43 80.28,44.43 80.43,44.43 
	80.57,44.43 80.71,44.43 80.78,44.43 80.92,44.43 81.06,44.43 81.21,44.43 81.35,44.5 81.49,44.5 81.56,44.5 81.7,44.5 81.99,44.57 
	82.2,44.57 82.48,44.64 82.77,44.71 82.98,44.78 83.26,44.85 83.47,44.92 83.76,45 83.97,45.07 84.25,45.14 84.47,45.21 
	84.75,45.35 84.96,45.42 85.18,45.56 85.46,45.63 85.67,45.78 85.89,45.85 86.17,45.99 86.38,46.13 86.59,46.27 86.81,46.34 
	87.02,46.48 87.23,46.63 87.44,46.77 87.66,46.91 87.87,47.05 88.08,47.19 88.3,47.41 88.51,47.55 88.72,47.69 88.93,47.83 
	89.15,48.04 89.36,48.19 89.57,48.33 89.71,48.54 89.93,48.68 90.14,48.89 90.28,49.04 90.49,49.25 90.71,49.39 90.85,49.6 
	91.06,49.82 91.2,49.96 91.41,50.17 91.56,50.38 91.7,50.6 91.91,50.74 92.05,50.95 92.19,51.16 92.41,51.38 92.55,51.59 
	92.69,51.8 92.83,52.01 93.05,52.23 93.19,52.37 93.33,52.58 93.47,52.79 93.61,53.01 93.75,53.29 93.9,53.5 94.04,53.72 
	94.18,53.93 94.32,54.14 94.46,54.35 94.6,54.57 94.68,54.78 94.82,55.06 94.96,55.27 95.1,55.49 95.17,55.7 95.31,55.91 
	95.46,56.2 95.53,56.41 95.67,56.62 95.81,56.91 95.88,57.12 96.02,57.33 96.09,57.54 96.24,57.83 96.31,58.04 96.45,58.32 
	96.52,58.54 96.59,58.75 96.73,59.03 "/>
<polyline class="st0" points="96.73,59.03 96.8,59.24 96.87,59.53 97.02,59.74 97.09,59.95 97.16,60.24 97.23,60.45 97.37,60.73 
	97.44,60.95 97.51,61.23 97.58,61.44 97.65,61.73 97.72,61.94 97.8,62.22 97.87,62.43 97.94,62.72 98.01,62.93 98.08,63.21 
	98.15,63.43 98.22,63.71 98.29,63.99 98.29,64.21 98.36,64.49 98.43,64.7 98.5,64.99 98.5,65.2 98.57,65.48 98.65,65.77 
	98.65,65.98 98.72,66.26 98.79,66.48 98.79,66.76 98.86,67.04 98.86,67.26 98.93,67.54 98.93,67.82 99,68.04 99,68.32 99.07,68.6 
	99.07,68.82 99.07,69.1 99.14,69.38 99.14,69.6 99.14,69.88 99.14,70.09 99.21,70.37 99.21,70.66 99.21,70.87 99.21,71.15 
	99.21,71.44 99.21,71.65 99.21,71.93 99.28,72.22 99.28,72.43 99.28,72.71 99.21,73 99.21,73.21 "/>
<polyline class="st0" points="117.93,77.53 117.93,77.18 117.93,76.9 117.93,76.54 117.93,76.19 117.93,75.83 117.93,75.55 
	117.93,75.2 117.93,74.84 117.93,74.56 117.93,74.2 117.93,73.85 117.93,73.49 117.93,73.21 117.93,72.86 117.86,72.5 117.86,72.15 
	117.86,71.86 117.86,71.51 117.79,71.15 117.79,70.8 117.79,70.52 117.72,70.16 117.72,69.81 117.72,69.45 117.64,69.17 
	117.64,68.82 117.57,68.46 117.57,68.18 117.5,67.82 117.5,67.47 117.43,67.11 117.43,66.83 117.36,66.48 117.36,66.12 
	117.29,65.84 117.22,65.48 117.22,65.13 117.15,64.77 117.08,64.49 117.08,64.14 117.01,63.78 116.94,63.5 116.94,63.14 
	116.86,62.79 116.79,62.51 116.72,62.15 116.65,61.8 116.58,61.51 116.51,61.16 116.51,60.8 116.44,60.52 116.37,60.17 116.3,59.81 
	116.23,59.53 116.16,59.17 116.09,58.82 116.01,58.54 115.94,58.18 115.8,57.9 115.73,57.54 115.66,57.19 115.59,56.91 
	115.52,56.55 115.45,56.27 115.31,55.91 115.23,55.56 115.16,55.27 115.09,54.92 114.95,54.64 114.88,54.28 114.81,54 114.67,53.64 
	114.6,53.29 114.53,53.01 114.38,52.65 114.31,52.37 114.17,52.01 114.1,51.73 113.96,51.38 113.89,51.09 113.75,50.74 
	113.67,50.45 113.53,50.1 113.46,49.82 113.32,49.46 113.18,49.18 113.11,48.89 112.97,48.54 112.82,48.26 112.75,47.9 
	112.61,47.62 112.47,47.26 112.33,46.98 112.26,46.7 112.12,46.34 111.97,46.06 111.83,45.78 111.69,45.42 111.55,45.14 
	111.41,44.78 111.26,44.5 111.12,44.22 110.98,43.93 110.84,43.58 110.7,43.29 110.56,43.01 110.41,42.66 110.27,42.37 
	110.13,42.09 109.99,41.81 109.85,41.45 109.7,41.17 109.49,40.88 109.35,40.6 109.21,40.32 109.07,39.96 108.85,39.68 108.71,39.4 
	108.57,39.11 108.36,38.83 108.22,38.54 108.07,38.26 107.86,37.98 107.72,37.69 107.51,37.34 107.37,37.06 107.15,36.77 
	107.01,36.49 106.73,36.13 106.51,35.78 106.3,35.43 106.02,35.07 105.81,34.72 105.52,34.29 105.31,33.94 105.03,33.58 
	104.74,33.23 104.53,32.87 104.25,32.52 103.96,32.16 103.68,31.88 103.4,31.53 103.18,31.17 102.9,30.82 102.62,30.46 
	102.33,30.18 102.05,29.82 101.69,29.47 101.41,29.19 101.13,28.83 100.84,28.48 100.56,28.19 100.21,27.84 99.92,27.56 
	99.64,27.27 99.28,26.92 99,26.63 98.65,26.35 98.36,26.07 98.01,25.71 97.65,25.43 97.37,25.15 97.02,24.86 96.66,24.58 
	96.31,24.3 96.02,24.01 95.67,23.8 95.31,23.52 94.96,23.23 94.6,22.95 94.25,22.74 93.9,22.45 93.47,22.24 93.12,21.96 
	92.76,21.74 92.41,21.53 92.19,21.39 91.98,21.32 91.84,21.18 91.63,21.03 91.41,20.96 91.27,20.82 91.06,20.75 90.85,20.61 
	90.71,20.54 90.49,20.4 90.28,20.33 90.07,20.25 89.93,20.11 89.71,20.04 89.5,19.9 89.29,19.83 89.08,19.76 88.93,19.62 
	88.72,19.55 88.51,19.47 88.3,19.4 88.08,19.26 87.87,19.19 87.66,19.12 87.52,19.05 87.3,18.98 87.09,18.91 86.88,18.84 
	86.67,18.69 86.45,18.62 86.24,18.55 86.03,18.48 85.81,18.41 85.6,18.34 85.39,18.27 85.18,18.27 84.96,18.2 84.75,18.13 
	84.54,18.06 84.33,17.99 84.11,17.91 83.9,17.91 83.69,17.84 83.47,17.77 83.26,17.7 83.05,17.7 82.84,17.63 82.62,17.56 
	82.41,17.56 82.2,17.49 81.99,17.49 81.77,17.42 81.56,17.42 81.35,17.35 81.14,17.35 80.92,17.28 80.71,17.28 80.5,17.28 
	80.28,17.21 80.07,17.21 79.79,17.21 79.58,17.14 79.36,17.14 79.15,17.14 78.94,17.14 78.73,17.14 78.51,17.06 78.3,17.06 
	78.09,17.06 77.87,17.06 77.59,17.06 77.38,17.06 77.17,17.06 76.95,17.06 76.74,17.14 76.53,17.14 76.31,17.14 76.1,17.14 
	75.89,17.14 "/>
<polyline class="st0" points="75.89,17.14 75.68,17.21 75.46,17.21 75.18,17.21 74.97,17.21 74.76,17.28 74.54,17.28 74.33,17.35 
	74.12,17.35 73.9,17.42 73.69,17.42 73.48,17.49 73.27,17.49 73.05,17.56 72.84,17.56 72.63,17.63 72.42,17.7 72.2,17.7 
	71.99,17.77 71.78,17.84 71.57,17.91 71.35,17.99 71.14,17.99 70.93,18.06 70.71,18.13 70.5,18.2 70.29,18.27 70.08,18.34 
	69.86,18.41 69.65,18.48 69.44,18.55 69.23,18.62 69.01,18.69 68.8,18.77 68.66,18.91 68.45,18.98 68.23,19.05 68.02,19.12 
	67.81,19.19 67.6,19.33 67.45,19.4 67.24,19.47 67.03,19.62 66.82,19.69 66.6,19.83 66.46,19.9 66.25,19.97 66.04,20.11 
	65.82,20.18 65.68,20.33 65.47,20.47 65.26,20.54 65.11,20.68 64.9,20.75 64.69,20.89 64.55,21.03 64.33,21.11 64.19,21.25 
	63.98,21.39 63.84,21.46 63.63,21.6 63.41,21.74 63.27,21.88 63.06,22.03 62.92,22.1 62.7,22.24 62.56,22.38 62.42,22.52 
	62.21,22.66 62.07,22.81 61.85,22.95 61.71,23.09 61.5,23.23 61.36,23.37 61.21,23.52 61,23.66 60.86,23.8 60.72,23.94 60.51,24.08 
	60.36,24.22 60.22,24.37 60.08,24.51 59.73,24.86 59.44,25.15 59.16,25.43 58.88,25.71 58.59,26.07 58.31,26.35 58.02,26.63 
	57.74,26.99 57.46,27.27 57.25,27.63 56.96,27.91 56.68,28.27 56.47,28.62 56.18,28.97 55.97,29.26 55.69,29.61 55.47,29.97 
	55.19,30.32 54.98,30.68 54.76,31.03 54.55,31.38 54.34,31.74 54.05,32.09 53.84,32.45 53.63,32.8 53.42,33.16 53.28,33.51 
	53.06,33.87 52.85,34.29 52.64,34.65 52.5,35 52.28,35.35 52.14,35.71 52,35.99 51.86,36.28 51.72,36.56 51.57,36.91 51.43,37.2 
	51.29,37.48 51.15,37.76 51.01,38.12 50.94,38.4 50.79,38.69 50.65,39.04 50.51,39.32 50.44,39.61 50.3,39.96 50.16,40.25 
	50.08,40.53 49.94,40.88 49.87,41.17 49.73,41.52 49.66,41.81 49.52,42.16 49.45,42.44 49.31,42.73 49.23,43.08 49.16,43.37 
	49.02,43.72 48.95,44 48.88,44.36 48.74,44.64 48.67,45 48.6,45.28 48.45,45.7 48.38,46.13 48.24,46.63 48.17,47.05 48.03,47.48 
	47.96,47.9 47.89,48.33 47.75,48.75 47.67,49.18 47.6,49.67 47.53,50.1 47.46,50.53 47.39,50.95 47.32,51.38 47.25,51.87 
	47.18,52.3 47.11,52.79 47.04,53.36 46.97,53.93 46.89,54.5 46.82,54.99 46.75,55.56 46.68,56.13 46.68,56.69 46.61,57.19 
	46.54,57.76 46.54,58.32 46.47,58.89 46.47,59.39 46.47,59.95 46.4,60.52 46.4,61.09 "/>
<polyline class="st0" points="46.75,70.02 46.75,70.37 46.82,70.73 46.82,71.08 46.89,71.37 46.89,71.72 46.97,72.08 47.04,72.43 
	47.04,72.71 47.11,73.07 47.11,73.42 47.18,73.78 47.25,74.06 47.32,74.42 47.32,74.77 47.39,75.05 47.46,75.41 47.53,75.76 
	47.53,76.12 47.6,76.4 47.67,76.76 47.75,77.11 47.82,77.39 47.89,77.75 47.96,78.1 48.03,78.39 48.1,78.74 48.17,79.09 
	48.24,79.38 48.31,79.73 48.38,80.09 48.45,80.37 48.53,80.73 48.6,81.08 48.67,81.36 48.74,81.72 48.88,82.07 48.95,82.36 
	49.02,82.71 49.09,83.06 49.16,83.35 49.31,83.7 49.38,83.99 49.45,84.34 49.59,84.69 49.66,84.98 49.73,85.33 49.87,85.62 
	49.94,85.97 50.08,86.25 50.16,86.61 50.3,86.89 50.37,87.25 50.51,87.6 50.58,87.89 50.72,88.24 50.79,88.52 50.94,88.88 
	51.08,89.16 51.15,89.52 51.29,89.8 51.43,90.08 51.5,90.44 51.64,90.72 51.79,91.08 51.93,91.5 52.14,91.93 52.28,92.35 
	52.5,92.85 52.71,93.27 52.85,93.7 53.06,94.12 53.28,94.55 53.49,94.97 53.7,95.4 53.91,95.82 54.13,96.25 54.34,96.68 54.55,97.1 
	54.76,97.53 54.98,97.95 55.19,98.38 55.4,98.8 55.61,99.23 55.9,99.65 56.11,100.01 56.32,100.43 56.61,100.86 56.82,101.28 
	57.1,101.64 57.32,102.06 57.6,102.49 57.88,102.84 58.1,103.27 58.38,103.69 58.66,104.05 58.95,104.47 59.23,104.83 59.51,105.25 
	59.8,105.61 60.08,105.96 60.36,106.39 60.65,106.74 60.93,107.1 61.21,107.45 61.5,107.88 61.85,108.23 62.14,108.59 62.49,108.94 
	62.77,109.29 63.06,109.65 63.41,110 63.77,110.36 64.05,110.71 64.41,111 64.76,111.35 65.04,111.7 65.4,111.99 65.75,112.34 
	66.11,112.7 66.46,112.98 66.82,113.26 67.17,113.62 67.52,113.9 67.95,114.19 68.09,114.4 68.3,114.54 68.45,114.68 68.66,114.82 
	68.87,114.97 69.01,115.11 69.23,115.25 69.44,115.39 69.58,115.53 69.79,115.67 70.01,115.82 70.22,115.96 70.36,116.1 
	70.57,116.24 70.79,116.31 71,116.45 71.21,116.6 71.35,116.74 71.57,116.88 71.78,116.95 71.99,117.09 72.2,117.23 72.42,117.38 
	72.63,117.45 72.77,117.59 72.98,117.73 73.2,117.8 73.41,117.94 73.62,118.08 73.83,118.16 74.05,118.3 74.26,118.37 74.47,118.51 
	74.68,118.58 74.9,118.72 75.11,118.79 75.32,118.94 75.54,119.01 75.75,119.08 75.96,119.22 76.24,119.29 76.46,119.36 
	76.67,119.5 76.88,119.57 77.09,119.64 77.31,119.72 77.52,119.86 77.73,119.93 78.02,120 78.23,120.07 78.44,120.14 78.65,120.21 
	78.87,120.28 79.08,120.35 79.36,120.42 79.58,120.5 79.79,120.57 80,120.64 80.28,120.71 80.5,120.78 80.71,120.78 80.92,120.85 
	81.21,120.92 81.42,120.99 81.63,120.99 81.84,121.06 82.13,121.13 82.34,121.13 82.55,121.2 82.84,121.2 83.05,121.28 
	83.26,121.28 83.55,121.35 83.76,121.35 83.97,121.42 84.25,121.42 84.47,121.42 84.68,121.49 84.96,121.49 85.18,121.49 
	85.39,121.49 85.67,121.49 85.89,121.49 86.1,121.56 86.38,121.56 86.59,121.56 86.81,121.56 87.09,121.56 87.3,121.56 
	87.52,121.49 87.8,121.49 88.01,121.49 88.3,121.49 88.51,121.49 88.72,121.42 89,121.42 89.22,121.42 89.43,121.35 89.71,121.35 
	89.93,121.28 90.14,121.28 90.35,121.28 90.64,121.2 90.85,121.13 91.06,121.13 91.34,121.06 91.56,120.99 91.77,120.99 
	92.05,120.92 92.27,120.85 92.48,120.78 92.69,120.78 92.97,120.71 93.19,120.64 93.4,120.57 93.61,120.5 93.83,120.42 
	94.11,120.35 94.32,120.28 94.53,120.21 94.75,120.14 94.96,120.07 95.17,119.93 95.38,119.86 95.67,119.79 95.88,119.72 
	96.09,119.57 96.31,119.5 96.52,119.43 96.73,119.29 96.94,119.22 "/>
<polyline class="st0" points="96.94,119.22 97.16,119.08 97.37,119.01 97.58,118.86 97.8,118.79 98.01,118.65 98.22,118.58 
	98.43,118.44 98.57,118.37 98.79,118.23 99,118.08 99.21,118.01 99.35,117.87 99.57,117.8 99.78,117.66 99.92,117.52 100.13,117.38 
	100.35,117.31 100.49,117.16 100.7,117.02 100.91,116.88 101.06,116.74 101.27,116.6 101.41,116.53 101.62,116.38 101.84,116.24 
	101.98,116.1 102.19,115.96 102.33,115.82 102.54,115.67 102.69,115.53 102.83,115.39 103.04,115.25 103.18,115.11 103.4,114.97 
	103.54,114.75 103.68,114.61 103.89,114.47 104.03,114.33 104.18,114.19 104.39,114.04 104.53,113.83 104.67,113.69 104.88,113.55 
	105.03,113.41 105.17,113.19 105.31,113.05 105.45,112.91 105.66,112.7 105.81,112.56 105.95,112.41 106.09,112.2 106.23,112.06 
	106.37,111.92 106.51,111.7 106.66,111.56 106.87,111.35 107.01,111.21 107.15,111 107.29,110.85 107.44,110.64 107.58,110.5 
	107.72,110.29 107.79,110.15 108.07,109.79 108.36,109.44 108.64,109.01 108.78,108.87 108.93,108.66 109.07,108.44 109.21,108.23 
	109.35,108.02 109.49,107.81 109.63,107.59 109.78,107.38 109.85,107.17 109.99,106.95 110.13,106.74 110.27,106.53 110.41,106.32 
	110.56,106.1 110.63,105.89 110.77,105.68 110.91,105.47 111.05,105.25 111.12,105.04 111.26,104.83 111.48,104.4 111.76,103.91 
	111.97,103.48 112.19,103.06 112.4,102.63 112.61,102.13 "/>
<polyline class="st0" points="113.11,101 113.25,100.65 113.39,100.29 113.53,100.01 113.67,99.65 113.82,99.3 113.96,98.94 
	114.1,98.59 114.24,98.24 114.38,97.88 114.45,97.53 114.6,97.17 114.74,96.82 114.81,96.46 114.95,96.11 115.09,95.75 115.16,95.4 
	115.31,94.97 115.38,94.62 115.52,94.27 115.59,93.91 115.73,93.56 115.8,93.2 115.87,92.85 116.01,92.49 116.09,92.07 
	116.16,91.71 116.23,91.36 116.37,91 116.44,90.65 116.51,90.22 116.58,89.87 116.65,89.52 116.72,89.16 116.79,88.81 116.86,88.38 
	116.94,88.03 117.01,87.67 117.08,87.32 117.08,86.89 117.15,86.54 117.22,86.18 117.29,85.83 117.36,85.4 117.36,85.05 
	117.43,84.69 117.5,84.34 117.5,83.92 117.57,83.56 117.57,83.21 117.64,82.78 117.64,82.43 117.72,82.07 117.72,81.72 
	117.79,81.29 117.79,80.94 117.79,80.58 117.86,80.16 117.86,79.8 117.86,79.45 117.86,79.02 117.93,78.67 117.93,78.31 
	117.93,77.89 117.93,77.53 "/>
<polyline class="st0" points="69.93,134.82 69.58,134.89 69.3,134.89 69.01,134.96 68.66,135.03 68.38,135.03 68.02,135.1 
	67.74,135.1 67.38,135.17 67.1,135.17 66.74,135.17 66.46,135.24 66.18,135.24 65.82,135.24 65.54,135.24 65.18,135.24 64.9,135.24 
	64.55,135.24 64.26,135.24 63.91,135.24 63.63,135.24 63.27,135.24 62.99,135.24 62.63,135.17 62.35,135.17 61.99,135.1 
	61.71,135.1 61.43,135.1 61.07,135.03 60.79,134.96 60.44,134.96 60.15,134.89 59.8,134.82 59.51,134.82 59.23,134.74 58.88,134.67 
	58.59,134.6 58.31,134.53 57.95,134.46 57.67,134.39 57.39,134.32 57.03,134.25 56.75,134.18 56.47,134.04 56.11,133.96 
	55.83,133.89 55.54,133.82 55.19,133.68 54.91,133.61 54.62,133.47 54.34,133.4 54.05,133.26 53.7,133.18 53.42,133.04 53.13,132.9 
	52.85,132.83 52.57,132.69 52.28,132.55 52,132.48 51.72,132.33 51.36,132.19 51.08,132.05 50.79,131.91 50.51,131.77 50.23,131.63 
	49.94,131.48 49.66,131.34 49.38,131.2 49.09,131.06 48.88,130.92 48.6,130.7 48.31,130.56 48.03,130.42 47.75,130.28 47.46,130.07 
	47.18,129.92 46.97,129.78 46.68,129.57 46.4,129.43 46.12,129.21 45.9,129.07 45.62,128.86 45.34,128.72 45.05,128.51 
	44.84,128.36 44.56,128.15 44.34,128.01 44.06,127.8 43.78,127.58 43.56,127.44 43.28,127.23 43.07,127.02 42.78,126.8 
	42.57,126.59 42.29,126.45 42.07,126.24 41.79,126.02 41.58,125.81 41.37,125.6 41.08,125.39 40.87,125.17 40.66,124.96 
	40.37,124.75 40.16,124.54 39.95,124.32 39.66,124.11 39.45,123.9 39.24,123.69 39.03,123.47 38.81,123.26 38.53,123.05 
	38.32,122.83 38.1,122.55 37.89,122.34 37.68,122.13 37.47,121.91 37.25,121.7 37.04,121.42 36.83,121.2 36.62,120.99 36.4,120.71 
	36.19,120.5 35.98,120.28 35.76,120 35.55,119.79 35.34,119.57 35.13,119.29 34.91,119.08 34.7,118.79 34.49,118.58 34.35,118.3 
	34.13,118.08 33.92,117.8 33.71,117.59 33.5,117.31 33.35,117.09 33.14,116.81 32.93,116.6 32.79,116.31 32.57,116.03 32.36,115.82 
	32.22,115.53 32.01,115.32 31.79,115.04 31.65,114.75 31.44,114.54 31.3,114.26 31.09,113.97 30.94,113.76 30.73,113.48 
	30.59,113.19 30.38,112.91 30.24,112.7 30.02,112.41 29.88,112.13 29.74,111.85 29.53,111.63 29.24,111.07 28.89,110.5 28.53,110 
	28.25,109.44 27.9,108.87 27.61,108.3 27.33,107.81 27.05,107.24 26.69,106.67 26.41,106.1 26.12,105.54 25.84,104.97 25.56,104.4 
	25.27,103.84 25.06,103.27 24.78,102.7 24.49,102.06 24.28,101.5 24,100.93 23.78,100.36 23.5,99.79 23.29,99.16 23.08,98.59 
	22.79,98.02 22.58,97.38 22.37,96.82 22.15,96.18 21.94,95.61 21.73,95.05 21.52,94.41 21.3,93.84 21.16,93.2 20.95,92.63 20.74,92 
	20.59,91.43 20.38,90.79 20.24,90.15 20.03,89.59 19.89,88.95 19.74,88.31 19.53,87.74 19.39,87.11 19.25,86.47 19.11,85.9 
	18.96,85.26 18.82,84.62 18.68,84.06 18.61,83.42 18.47,82.78 18.33,82.14 "/>
<polyline class="st0" points="18.33,82.14 18.25,81.58 18.11,81.01 18.04,80.37 17.9,79.8 17.83,79.24 17.76,78.6 17.69,78.03 
	17.55,77.39 17.47,76.83 17.4,76.26 17.33,75.62 17.26,75.05 17.19,74.42 17.19,73.85 17.12,73.28 17.05,72.64 16.98,72.08 
	16.98,71.44 16.91,70.87 16.91,70.23 16.84,69.67 16.84,69.03 16.77,68.46 16.77,67.82 16.77,67.26 16.77,66.69 16.77,66.05 
	16.77,65.48 16.77,64.85 16.77,64.28 16.77,63.64 16.77,63.07 "/>
<polyline class="st0" points="16.77,63.07 16.77,62.51 16.77,62.01 16.84,61.44 16.84,60.95 16.84,60.45 16.91,59.88 16.91,59.39 
	16.98,58.82 16.98,58.32 17.05,57.83 17.05,57.26 17.12,56.76 17.19,56.2 17.26,55.7 17.26,55.2 17.33,54.64 17.4,54.14 
	17.47,53.64 17.55,53.08 17.62,52.58 17.69,52.08 17.83,51.52 17.9,51.02 17.97,50.53 18.04,49.96 18.18,49.46 18.25,48.97 
	18.4,48.4 18.47,47.9 18.61,47.41 18.68,46.91 18.82,46.34 18.96,45.85 19.03,45.35 19.18,44.85 19.32,44.36 19.46,43.79 
	19.6,43.29 19.74,42.8 19.89,42.3 20.03,41.81 20.17,41.31 20.38,40.81 20.52,40.32 20.66,39.82 20.88,39.32 21.02,38.83 
	21.23,38.33 21.37,37.84 21.59,37.34 21.8,36.84 22.01,36.35 22.15,35.85 22.37,35.35 22.58,34.86 22.79,34.36 23,33.94 
	23.22,33.44 23.5,32.94 23.71,32.52 23.93,32.02 24.14,31.53 24.42,31.1 24.63,30.6 24.92,30.18 25.2,29.68 25.41,29.26 25.7,28.76 
	25.98,28.34 26.27,27.91 26.41,27.7 26.55,27.41 26.69,27.2 26.83,26.99 26.97,26.78 27.12,26.56 27.26,26.35 27.4,26.14 
	27.54,25.93 27.68,25.71 27.82,25.5 28.04,25.29 28.18,25.08 28.32,24.86 28.46,24.65 28.6,24.44 28.82,24.22 28.96,24.01 
	29.1,23.8 29.24,23.59 29.46,23.37 29.6,23.16 29.74,22.95 29.95,22.74 30.09,22.52 30.31,22.38 30.45,22.17 30.59,21.96 
	30.8,21.74 30.94,21.53 31.16,21.39 31.3,21.18 31.51,20.96 31.65,20.82 31.87,20.61 32.08,20.4 32.22,20.25 32.43,20.04 
	32.57,19.83 32.79,19.69 33,19.47 33.21,19.33 33.35,19.12 33.57,18.91 33.78,18.77 33.92,18.55 34.13,18.41 34.35,18.27 
	34.56,18.06 34.77,17.91 34.99,17.7 35.13,17.56 35.34,17.42 35.55,17.21 35.76,17.06 35.98,16.92 36.19,16.71 36.4,16.57 
	36.62,16.43 36.83,16.28 37.04,16.14 37.25,16 37.47,15.79 37.68,15.65 37.89,15.5 38.1,15.36 38.32,15.22 38.6,15.08 38.81,14.94 
	39.03,14.8 39.24,14.65 39.45,14.58 39.66,14.44 39.95,14.3 40.16,14.16 40.37,14.02 40.59,13.95 40.87,13.8 41.08,13.66 
	41.29,13.52 41.58,13.45 41.79,13.31 42,13.24 42.29,13.09 42.5,13.02 42.78,12.88 43,12.81 43.21,12.67 43.49,12.6 43.7,12.46 
	43.99,12.39 44.2,12.31 44.48,12.17 44.7,12.1 44.98,12.03 45.19,11.96 45.48,11.89 45.69,11.82 45.97,11.75 46.19,11.61 
	46.47,11.53 46.75,11.46 46.97,11.46 47.25,11.39 47.46,11.32 47.75,11.25 48.03,11.18 48.24,11.11 48.53,11.11 48.81,11.04 
	49.02,10.97 49.31,10.9 49.59,10.9 49.8,10.83 50.08,10.83 50.37,10.75 "/>
</svg>
