<?xml version="1.0" encoding="utf-8"?>
<!-- Generator: Adobe Illustrator 24.0.0, SVG Export Plug-In . SVG Version: 6.00 Build 0)  -->
<svg version="1.1" id="图层_1" xmlns="http://www.w3.org/2000/svg" xmlns:xlink="http://www.w3.org/1999/xlink" x="0px" y="0px"
	 viewBox="0 0 508.79 507.65" style="enable-background:new 0 0 508.79 507.65;" xml:space="preserve">
<style type="text/css">
	.st0{fill:none;stroke:#040000;stroke-linecap:round;stroke-linejoin:round;stroke-miterlimit:10;}
	.st1{fill:none;stroke:#040000;stroke-linecap:round;stroke-linejoin:bevel;stroke-miterlimit:10;}
</style>
<line class="st0" x1="1.62" y1="322.2" x2="1.62" y2="185.81"/>
<line class="st0" x1="6.1" y1="113.52" x2="6.1" y2="185.81"/>
<line class="st0" x1="6.1" y1="322.2" x2="6.1" y2="394.49"/>
<line class="st0" x1="322.1" y1="506.29" x2="185.71" y2="506.29"/>
<line class="st0" x1="113.42" y1="501.82" x2="185.71" y2="501.82"/>
<line class="st0" x1="322.1" y1="501.82" x2="394.4" y2="501.82"/>
<line class="st0" x1="71.68" y1="141.09" x2="140.99" y2="71.78"/>
<line class="st0" x1="120.13" y1="95.63" x2="95.53" y2="120.22"/>
<line class="st0" x1="124.6" y1="100.1" x2="100" y2="124.7"/>
<line class="st0" x1="83.61" y1="144.07" x2="143.98" y2="83.7"/>
<line class="st0" x1="79.88" y1="150.04" x2="149.19" y2="80.72"/>
<line class="st0" x1="140.99" y1="436.23" x2="71.68" y2="366.92"/>
<line class="st0" x1="95.53" y1="387.79" x2="120.13" y2="412.38"/>
<line class="st0" x1="100" y1="383.31" x2="124.6" y2="407.91"/>
<line class="st0" x1="143.98" y1="424.31" x2="83.61" y2="363.94"/>
<line class="st0" x1="149.19" y1="428.03" x2="79.88" y2="358.72"/>
<line class="st0" x1="87.33" y1="166.43" x2="87.33" y2="237.98"/>
<line class="st0" x1="88.08" y1="166.43" x2="88.08" y2="167.92"/>
<polyline class="st0" points="88.82,164.2 88.82,163.45 88.82,161.96 "/>
<line class="st0" x1="88.82" y1="166.43" x2="88.82" y2="237.98"/>
<line class="st0" x1="91.06" y1="166.43" x2="91.06" y2="237.98"/>
<line class="st0" x1="94.04" y1="156.74" x2="92.55" y2="158.23"/>
<line class="st0" x1="196.89" y1="425.05" x2="310.92" y2="425.05"/>
<line class="st0" x1="310.92" y1="423.56" x2="196.89" y2="423.56"/>
<line class="st0" x1="95.53" y1="240.22" x2="95.53" y2="236.49"/>
<line class="st0" x1="95.53" y1="225.31" x2="95.53" y2="222.33"/>
<line class="st0" x1="95.53" y1="211.15" x2="95.53" y2="207.42"/>
<line class="st0" x1="95.53" y1="196.99" x2="95.53" y2="193.26"/>
<line class="st0" x1="95.53" y1="182.08" x2="95.53" y2="179.1"/>
<polyline class="st0" points="95.53,167.92 95.53,164.2 95.53,167.92 "/>
<line class="st0" x1="95.53" y1="179.1" x2="95.53" y2="182.08"/>
<line class="st0" x1="95.53" y1="193.26" x2="95.53" y2="196.99"/>
<line class="st0" x1="95.53" y1="207.42" x2="95.53" y2="211.15"/>
<line class="st0" x1="95.53" y1="222.33" x2="95.53" y2="225.31"/>
<line class="st0" x1="95.53" y1="236.49" x2="95.53" y2="240.22"/>
<line class="st0" x1="99.26" y1="164.2" x2="99.26" y2="167.92"/>
<line class="st0" x1="99.26" y1="179.1" x2="99.26" y2="182.08"/>
<line class="st0" x1="99.26" y1="193.26" x2="99.26" y2="196.99"/>
<line class="st0" x1="99.26" y1="207.42" x2="99.26" y2="211.15"/>
<line class="st0" x1="99.26" y1="222.33" x2="99.26" y2="225.31"/>
<line class="st0" x1="99.26" y1="236.49" x2="99.26" y2="240.22"/>
<line class="st0" x1="99.26" y1="164.2" x2="99.26" y2="167.92"/>
<line class="st0" x1="99.26" y1="179.1" x2="99.26" y2="182.08"/>
<line class="st0" x1="99.26" y1="193.26" x2="99.26" y2="196.99"/>
<line class="st0" x1="99.26" y1="207.42" x2="99.26" y2="211.15"/>
<line class="st0" x1="99.26" y1="222.33" x2="99.26" y2="225.31"/>
<line class="st0" x1="99.26" y1="236.49" x2="99.26" y2="240.22"/>
<line class="st0" x1="103.73" y1="237.98" x2="103.73" y2="166.43"/>
<line class="st0" x1="105.97" y1="237.98" x2="105.97" y2="166.43"/>
<line class="st0" x1="107.46" y1="237.98" x2="107.46" y2="166.43"/>
<line class="st0" x1="113.42" y1="501.82" x2="113.42" y2="506.29"/>
<line class="st0" x1="113.42" y1="6.19" x2="113.42" y2="1.72"/>
<line class="st0" x1="118.64" y1="230.53" x2="118.64" y2="277.48"/>
<polyline class="st0" points="119.38,231.27 119.38,277.48 119.38,231.27 "/>
<line class="st0" x1="181.99" y1="409.4" x2="180.5" y2="409.4"/>
<line class="st0" x1="325.83" y1="409.4" x2="326.57" y2="409.4"/>
<line class="st0" x1="181.99" y1="395.24" x2="180.5" y2="395.24"/>
<line class="st0" x1="325.83" y1="395.24" x2="326.57" y2="395.24"/>
<line class="st0" x1="6.1" y1="394.49" x2="1.62" y2="394.49"/>
<line class="st0" x1="501.72" y1="394.49" x2="506.19" y2="394.49"/>
<line class="st0" x1="121.62" y1="232.02" x2="121.62" y2="276.74"/>
<polyline class="st0" points="128.32,233.51 128.32,274.5 128.32,233.51 "/>
<line class="st0" x1="196.89" y1="381.08" x2="310.92" y2="381.08"/>
<line class="st0" x1="310.92" y1="379.59" x2="196.89" y2="379.59"/>
<line class="st0" x1="117.14" y1="344.56" x2="117.89" y2="344.56"/>
<line class="st0" x1="181.99" y1="344.56" x2="182.73" y2="344.56"/>
<line class="st0" x1="294.53" y1="344.56" x2="295.27" y2="344.56"/>
<line class="st0" x1="359.37" y1="344.56" x2="360.11" y2="344.56"/>
<line class="st0" x1="117.89" y1="343.07" x2="147.7" y2="343.07"/>
<line class="st0" x1="182.73" y1="343.07" x2="212.54" y2="343.07"/>
<line class="st0" x1="295.27" y1="343.07" x2="325.08" y2="343.07"/>
<line class="st0" x1="360.11" y1="343.07" x2="389.92" y2="343.07"/>
<line class="st0" x1="117.89" y1="337.85" x2="147.7" y2="337.85"/>
<line class="st0" x1="182.73" y1="337.85" x2="212.54" y2="337.85"/>
<line class="st0" x1="295.27" y1="337.85" x2="325.08" y2="337.85"/>
<line class="st0" x1="360.11" y1="337.85" x2="389.92" y2="337.85"/>
<line class="st0" x1="360.11" y1="336.36" x2="359.37" y2="336.36"/>
<line class="st0" x1="295.27" y1="336.36" x2="294.53" y2="336.36"/>
<line class="st0" x1="182.73" y1="336.36" x2="181.99" y2="336.36"/>
<line class="st0" x1="117.89" y1="336.36" x2="117.14" y2="336.36"/>
<line class="st0" x1="180.5" y1="395.24" x2="180.5" y2="409.4"/>
<line class="st0" x1="181.99" y1="409.4" x2="181.99" y2="395.24"/>
<line class="st0" x1="185.71" y1="501.82" x2="185.71" y2="506.29"/>
<line class="st0" x1="185.71" y1="6.19" x2="185.71" y2="1.72"/>
<polyline class="st0" points="186.46,274.5 186.46,233.51 186.46,274.5 "/>
<line class="st0" x1="193.17" y1="276.74" x2="193.17" y2="232.02"/>
<polyline class="st0" points="195.4,277.48 195.4,231.27 195.4,277.48 "/>
<line class="st0" x1="196.15" y1="277.48" x2="196.15" y2="230.53"/>
<line class="st0" x1="196.89" y1="423.56" x2="196.89" y2="425.05"/>
<line class="st0" x1="196.89" y1="381.08" x2="196.89" y2="379.59"/>
<line class="st0" x1="6.1" y1="322.2" x2="1.62" y2="322.2"/>
<line class="st0" x1="501.72" y1="322.2" x2="506.19" y2="322.2"/>
<line class="st0" x1="366.82" y1="71.78" x2="357.88" y2="80.72"/>
<line class="st0" x1="79.88" y1="358.72" x2="71.68" y2="366.92"/>
<line class="st0" x1="374.27" y1="79.23" x2="366.82" y2="87.43"/>
<line class="st0" x1="86.59" y1="366.92" x2="79.13" y2="375.12"/>
<line class="st0" x1="87.33" y1="383.31" x2="94.79" y2="375.12"/>
<line class="st0" x1="375.02" y1="94.88" x2="382.47" y2="87.43"/>
<line class="st0" x1="312.41" y1="277.48" x2="312.41" y2="277.48"/>
<line class="st0" x1="195.4" y1="277.48" x2="195.4" y2="277.48"/>
<line class="st0" x1="71.68" y1="141.09" x2="79.88" y2="150.04"/>
<line class="st0" x1="357.88" y1="428.03" x2="366.82" y2="436.23"/>
<line class="st0" x1="79.13" y1="133.64" x2="86.59" y2="141.09"/>
<line class="st0" x1="366.82" y1="421.32" x2="374.27" y2="428.78"/>
<line class="st0" x1="382.47" y1="420.58" x2="375.02" y2="413.13"/>
<line class="st0" x1="94.79" y1="132.89" x2="87.33" y2="125.44"/>
<line class="st0" x1="383.22" y1="100.1" x2="387.69" y2="95.63"/>
<line class="st0" x1="91.06" y1="387.04" x2="98.51" y2="378.84"/>
<line class="st0" x1="378.74" y1="99.36" x2="386.2" y2="91.16"/>
<line class="st0" x1="387.69" y1="95.63" x2="381.73" y2="101.59"/>
<polyline class="st0" points="100,383.31 101.49,381.82 95.53,387.79 "/>
<line class="st0" x1="381.73" y1="101.59" x2="383.22" y2="100.1"/>
<line class="st0" x1="95.53" y1="387.79" x2="100" y2="383.31"/>
<line class="st0" x1="418.99" y1="163.45" x2="419.74" y2="162.71"/>
<line class="st0" x1="388.43" y1="231.27" x2="387.69" y2="231.27"/>
<line class="st0" x1="119.38" y1="231.27" x2="119.38" y2="231.27"/>
<line class="st0" x1="100" y1="124.7" x2="95.53" y2="120.22"/>
<line class="st0" x1="386.2" y1="416.85" x2="378.74" y2="409.4"/>
<line class="st0" x1="98.51" y1="129.17" x2="91.06" y2="121.71"/>
<line class="st0" x1="95.53" y1="120.22" x2="101.49" y2="126.19"/>
<polyline class="st0" points="383.22,407.91 381.73,406.42 387.69,412.38 "/>
<line class="st0" x1="101.49" y1="126.19" x2="100" y2="124.7"/>
<line class="st0" x1="387.69" y1="412.38" x2="383.22" y2="407.91"/>
<line class="st0" x1="124.6" y1="407.91" x2="120.13" y2="412.38"/>
<line class="st0" x1="407.81" y1="124.7" x2="406.32" y2="126.19"/>
<polyline class="st0" points="120.13,412.38 126.09,406.42 124.6,407.91 "/>
<line class="st0" x1="406.32" y1="126.19" x2="412.28" y2="120.22"/>
<line class="st0" x1="416.75" y1="121.71" x2="408.56" y2="129.17"/>
<line class="st0" x1="129.07" y1="409.4" x2="120.87" y2="416.85"/>
<line class="st0" x1="420.48" y1="125.44" x2="413.03" y2="132.89"/>
<line class="st0" x1="132.8" y1="413.13" x2="125.34" y2="420.58"/>
<line class="st0" x1="412.28" y1="120.22" x2="407.81" y2="124.7"/>
<line class="st0" x1="119.38" y1="277.48" x2="119.38" y2="277.48"/>
<line class="st0" x1="369.06" y1="243.2" x2="331.79" y2="243.2"/>
<line class="st0" x1="176.02" y1="243.2" x2="138.76" y2="243.2"/>
<line class="st0" x1="412.28" y1="240.22" x2="408.56" y2="240.22"/>
<line class="st0" x1="99.26" y1="240.22" x2="95.53" y2="240.22"/>
<line class="st0" x1="91.06" y1="237.98" x2="88.82" y2="237.98"/>
<line class="st0" x1="103.73" y1="237.98" x2="105.97" y2="237.98"/>
<line class="st0" x1="416.75" y1="237.98" x2="418.99" y2="237.98"/>
<line class="st0" x1="403.34" y1="237.98" x2="401.85" y2="237.98"/>
<line class="st0" x1="95.53" y1="236.49" x2="99.26" y2="236.49"/>
<line class="st0" x1="408.56" y1="236.49" x2="412.28" y2="236.49"/>
<line class="st0" x1="412.28" y1="225.31" x2="408.56" y2="225.31"/>
<line class="st0" x1="99.26" y1="225.31" x2="95.53" y2="225.31"/>
<line class="st0" x1="388.43" y1="277.48" x2="387.69" y2="277.48"/>
<line class="st0" x1="88.82" y1="163.45" x2="88.08" y2="162.71"/>
<line class="st0" x1="407.81" y1="383.31" x2="412.28" y2="387.79"/>
<line class="st0" x1="124.6" y1="100.1" x2="126.09" y2="101.59"/>
<polyline class="st0" points="412.28,387.79 406.32,381.82 407.81,383.31 "/>
<line class="st0" x1="126.09" y1="101.59" x2="120.13" y2="95.63"/>
<line class="st0" x1="120.87" y1="91.16" x2="129.07" y2="99.36"/>
<line class="st0" x1="408.56" y1="378.84" x2="416.75" y2="387.04"/>
<line class="st0" x1="125.34" y1="87.43" x2="132.8" y2="94.88"/>
<line class="st0" x1="413.03" y1="375.12" x2="420.48" y2="383.31"/>
<line class="st0" x1="120.13" y1="95.63" x2="124.6" y2="100.1"/>
<line class="st0" x1="310.92" y1="423.56" x2="310.92" y2="425.05"/>
<line class="st0" x1="310.92" y1="381.08" x2="310.92" y2="379.59"/>
<line class="st0" x1="311.67" y1="230.53" x2="311.67" y2="277.48"/>
<line class="st0" x1="133.54" y1="428.78" x2="140.99" y2="421.32"/>
<line class="st0" x1="421.23" y1="141.09" x2="428.68" y2="133.64"/>
<line class="st0" x1="140.99" y1="436.23" x2="149.19" y2="428.03"/>
<line class="st0" x1="427.93" y1="150.04" x2="436.13" y2="141.09"/>
<line class="st0" x1="195.4" y1="231.27" x2="195.4" y2="231.27"/>
<line class="st0" x1="412.28" y1="222.33" x2="411.54" y2="222.33"/>
<line class="st0" x1="99.26" y1="222.33" x2="95.53" y2="222.33"/>
<line class="st0" x1="408.56" y1="222.33" x2="412.28" y2="222.33"/>
<line class="st0" x1="412.28" y1="211.15" x2="408.56" y2="211.15"/>
<line class="st0" x1="99.26" y1="211.15" x2="95.53" y2="211.15"/>
<line class="st0" x1="412.28" y1="210.41" x2="411.54" y2="210.41"/>
<line class="st0" x1="95.53" y1="210.41" x2="95.53" y2="210.41"/>
<line class="st0" x1="95.53" y1="207.42" x2="99.26" y2="207.42"/>
<line class="st0" x1="408.56" y1="207.42" x2="412.28" y2="207.42"/>
<line class="st0" x1="412.28" y1="196.99" x2="408.56" y2="196.99"/>
<line class="st0" x1="99.26" y1="196.99" x2="95.53" y2="196.99"/>
<line class="st0" x1="312.41" y1="231.27" x2="312.41" y2="231.27"/>
<line class="st0" x1="428.68" y1="375.12" x2="421.23" y2="366.92"/>
<line class="st0" x1="140.99" y1="87.43" x2="133.54" y2="79.23"/>
<line class="st0" x1="436.13" y1="366.92" x2="427.93" y2="358.72"/>
<line class="st0" x1="149.19" y1="80.72" x2="140.99" y2="71.78"/>
<polyline class="st0" points="312.41,231.27 312.41,277.48 312.41,231.27 "/>
<line class="st0" x1="314.65" y1="232.02" x2="314.65" y2="276.74"/>
<polyline class="st0" points="321.36,233.51 321.36,274.5 321.36,233.51 "/>
<line class="st0" x1="322.1" y1="501.82" x2="322.1" y2="506.29"/>
<line class="st0" x1="322.1" y1="6.19" x2="322.1" y2="1.72"/>
<line class="st0" x1="325.83" y1="395.24" x2="325.83" y2="409.4"/>
<line class="st0" x1="326.57" y1="409.4" x2="326.57" y2="395.24"/>
<line class="st0" x1="95.53" y1="193.26" x2="99.26" y2="193.26"/>
<line class="st0" x1="408.56" y1="193.26" x2="412.28" y2="193.26"/>
<line class="st0" x1="6.1" y1="185.81" x2="1.62" y2="185.81"/>
<line class="st0" x1="501.72" y1="185.81" x2="506.19" y2="185.81"/>
<line class="st0" x1="412.28" y1="182.08" x2="408.56" y2="182.08"/>
<line class="st0" x1="99.26" y1="182.08" x2="95.53" y2="182.08"/>
<line class="st0" x1="95.53" y1="179.1" x2="99.26" y2="179.1"/>
<line class="st0" x1="408.56" y1="179.1" x2="412.28" y2="179.1"/>
<line class="st0" x1="412.28" y1="167.92" x2="408.56" y2="167.92"/>
<line class="st0" x1="99.26" y1="167.92" x2="95.53" y2="167.92"/>
<line class="st0" x1="103.73" y1="166.43" x2="105.97" y2="166.43"/>
<line class="st0" x1="403.34" y1="166.43" x2="401.85" y2="166.43"/>
<line class="st0" x1="91.06" y1="166.43" x2="88.82" y2="166.43"/>
<line class="st0" x1="416.75" y1="166.43" x2="418.99" y2="166.43"/>
<line class="st0" x1="95.53" y1="164.2" x2="99.26" y2="164.2"/>
<line class="st0" x1="408.56" y1="164.2" x2="412.28" y2="164.2"/>
<line class="st0" x1="414.52" y1="157.49" x2="414.52" y2="157.49"/>
<line class="st0" x1="93.3" y1="157.49" x2="93.3" y2="157.49"/>
<polyline class="st0" points="379.49,274.5 379.49,233.51 379.49,274.5 "/>
<line class="st0" x1="386.2" y1="276.74" x2="386.2" y2="232.02"/>
<line class="st0" x1="387.69" y1="277.48" x2="387.69" y2="231.27"/>
<line class="st0" x1="388.43" y1="277.48" x2="388.43" y2="231.27"/>
<line class="st0" x1="389.18" y1="277.48" x2="389.18" y2="230.53"/>
<line class="st0" x1="394.4" y1="501.82" x2="394.4" y2="506.29"/>
<line class="st0" x1="394.4" y1="6.19" x2="394.4" y2="1.72"/>
<line class="st0" x1="400.36" y1="166.43" x2="400.36" y2="237.98"/>
<line class="st0" x1="401.85" y1="166.43" x2="401.85" y2="237.98"/>
<line class="st0" x1="403.34" y1="166.43" x2="403.34" y2="237.98"/>
<line class="st0" x1="408.56" y1="240.22" x2="408.56" y2="236.49"/>
<line class="st0" x1="408.56" y1="225.31" x2="408.56" y2="222.33"/>
<line class="st0" x1="408.56" y1="211.15" x2="408.56" y2="207.42"/>
<line class="st0" x1="408.56" y1="196.99" x2="408.56" y2="193.26"/>
<line class="st0" x1="408.56" y1="182.08" x2="408.56" y2="179.1"/>
<polyline class="st0" points="408.56,167.92 408.56,164.2 408.56,167.92 "/>
<line class="st0" x1="408.56" y1="179.1" x2="408.56" y2="182.08"/>
<line class="st0" x1="408.56" y1="193.26" x2="408.56" y2="196.99"/>
<line class="st0" x1="408.56" y1="207.42" x2="408.56" y2="211.15"/>
<line class="st0" x1="408.56" y1="222.33" x2="408.56" y2="225.31"/>
<line class="st0" x1="408.56" y1="236.49" x2="408.56" y2="240.22"/>
<line class="st0" x1="411.54" y1="164.2" x2="411.54" y2="167.92"/>
<line class="st0" x1="411.54" y1="179.1" x2="411.54" y2="182.08"/>
<line class="st0" x1="411.54" y1="193.26" x2="411.54" y2="196.99"/>
<line class="st0" x1="411.54" y1="207.42" x2="411.54" y2="211.15"/>
<line class="st0" x1="411.54" y1="222.33" x2="411.54" y2="225.31"/>
<line class="st0" x1="411.54" y1="236.49" x2="411.54" y2="240.22"/>
<line class="st0" x1="412.28" y1="164.2" x2="412.28" y2="167.92"/>
<line class="st0" x1="412.28" y1="179.1" x2="412.28" y2="182.08"/>
<line class="st0" x1="412.28" y1="193.26" x2="412.28" y2="196.99"/>
<line class="st0" x1="412.28" y1="207.42" x2="412.28" y2="211.15"/>
<line class="st0" x1="412.28" y1="222.33" x2="412.28" y2="225.31"/>
<line class="st0" x1="412.28" y1="236.49" x2="412.28" y2="240.22"/>
<line class="st0" x1="416.75" y1="237.98" x2="416.75" y2="166.43"/>
<line class="st0" x1="418.99" y1="237.98" x2="418.99" y2="166.43"/>
<polyline class="st0" points="418.99,164.2 418.99,163.45 418.99,161.96 "/>
<line class="st0" x1="419.74" y1="167.92" x2="419.74" y2="166.43"/>
<line class="st0" x1="420.48" y1="237.98" x2="420.48" y2="166.43"/>
<line class="st0" x1="6.1" y1="113.52" x2="1.62" y2="113.52"/>
<line class="st0" x1="501.72" y1="113.52" x2="506.19" y2="113.52"/>
<line class="st0" x1="415.26" y1="158.23" x2="413.77" y2="156.74"/>
<line class="st0" x1="427.93" y1="358.72" x2="357.88" y2="428.03"/>
<line class="st0" x1="424.21" y1="363.94" x2="363.84" y2="424.31"/>
<line class="st0" x1="383.22" y1="407.91" x2="407.81" y2="383.31"/>
<line class="st0" x1="387.69" y1="412.38" x2="412.28" y2="387.79"/>
<line class="st0" x1="436.13" y1="366.92" x2="366.82" y2="436.23"/>
<line class="st0" x1="357.88" y1="80.72" x2="427.93" y2="150.04"/>
<line class="st0" x1="363.84" y1="83.7" x2="424.21" y2="144.07"/>
<line class="st0" x1="407.81" y1="124.7" x2="383.22" y2="100.1"/>
<line class="st0" x1="412.28" y1="120.22" x2="387.69" y2="95.63"/>
<line class="st0" x1="366.82" y1="71.78" x2="436.13" y2="141.09"/>
<line class="st0" x1="501.72" y1="394.49" x2="501.72" y2="322.2"/>
<line class="st0" x1="501.72" y1="185.81" x2="501.72" y2="113.52"/>
<line class="st0" x1="394.4" y1="6.19" x2="322.1" y2="6.19"/>
<line class="st0" x1="185.71" y1="6.19" x2="113.42" y2="6.19"/>
<line class="st0" x1="506.19" y1="185.81" x2="506.19" y2="322.2"/>
<line class="st0" x1="185.71" y1="1.72" x2="322.1" y2="1.72"/>
<line class="st1" x1="121.62" y1="232.02" x2="119.38" y2="231.27"/>
<polyline class="st1" points="2.37,394.49 3.11,408.65 6.1,423.56 10.57,436.98 17.27,450.39 25.47,462.32 35.16,472.75 
	45.6,482.44 57.52,490.64 70.94,497.35 84.35,501.82 99.26,504.8 113.42,505.54 "/>
<polyline class="st1" points="132.8,325.18 127.58,325.93 123.11,328.91 119.38,333.38 117.14,337.85 117.14,343.81 119.38,349.03 
	123.11,352.76 127.58,355.74 132.8,356.48 138.01,355.74 142.49,352.76 146.21,348.29 148.45,343.81 148.45,337.85 146.21,332.63 
	142.49,328.91 138.01,325.93 132.8,325.18 "/>
<polyline class="st1" points="118.64,345.3 120.87,349.78 124.6,353.5 129.81,355.74 135.03,355.74 140.25,354.25 143.98,350.52 
	146.96,346.05 147.7,340.83 146.96,335.62 143.98,331.14 140.25,327.42 135.03,325.93 129.81,325.93 124.6,328.16 120.87,331.89 
	118.64,336.36 118.64,345.3 "/>
<line class="st1" x1="147.7" y1="343.81" x2="147.7" y2="337.85"/>
<polyline class="st1" points="147.7,337.85 145.47,332.63 140.99,328.16 135.78,325.93 129.81,325.93 124.6,328.16 120.13,332.63 
	117.89,337.85 117.89,343.81 120.13,349.03 124.6,353.5 129.81,355.74 135.78,355.74 140.99,353.5 145.47,349.03 147.7,343.81 "/>
<polyline class="st1" points="26.96,274.5 28.45,279.72 32.18,283.44 37.4,285.68 42.62,284.94 47.09,282.7 50.07,278.23 
	50.81,273.01 "/>
<line class="st1" x1="314.65" y1="232.02" x2="312.41" y2="231.27"/>
<polyline class="st1" points="231.18,454.86 226.7,450.39 221.49,447.41 215.52,445.92 208.82,446.66 203.6,448.9 198.38,452.63 
	195.4,457.84 193.17,463.81 193.17,470.51 195.4,475.73 199.13,480.95 203.6,484.68 209.56,486.91 215.52,487.66 221.49,486.17 
	227.45,483.18 "/>
<polyline class="st1" points="181.24,409.4 182.73,415.36 185.71,420.58 190.93,423.56 196.89,425.05 "/>
<polyline class="st1" points="182.73,409.4 183.48,414.62 187.2,419.09 191.67,422.82 196.89,423.56 "/>
<line class="st1" x1="232.67" y1="453.37" x2="237.14" y2="456.35"/>
<line class="st1" x1="232.67" y1="482.44" x2="227.45" y2="483.93"/>
<polyline class="st1" points="196.89,379.59 190.93,381.08 185.71,384.06 182.73,389.28 181.24,395.24 "/>
<polyline class="st1" points="199.13,387.79 193.91,388.53 189.44,391.51 186.46,395.98 184.97,400.46 185.71,405.67 187.95,410.15 
	191.67,413.87 196.89,416.11 201.36,416.11 206.58,413.87 210.31,410.15 212.54,405.67 213.29,400.46 211.8,395.98 208.82,391.51 
	204.34,388.53 199.13,387.79 "/>
<polyline class="st1" points="196.89,381.08 191.67,381.82 187.2,385.55 183.48,390.02 182.73,395.24 "/>
<polyline class="st1" points="197.64,325.18 192.42,325.93 187.95,328.91 184.22,333.38 181.99,337.85 181.99,343.81 184.22,349.03 
	187.95,352.76 192.42,355.74 197.64,356.48 202.85,355.74 207.33,352.76 211.05,348.29 213.29,343.81 213.29,337.85 211.05,332.63 
	207.33,328.91 202.85,325.93 197.64,325.18 "/>
<polyline class="st1" points="183.48,345.3 185.71,349.78 189.44,353.5 194.66,355.74 199.87,355.74 205.09,354.25 208.82,350.52 
	211.8,346.05 212.54,340.83 211.8,335.62 208.82,331.14 205.09,327.42 199.87,325.93 194.66,325.93 189.44,328.16 185.71,331.89 
	183.48,336.36 183.48,345.3 "/>
<line class="st1" x1="212.54" y1="343.81" x2="212.54" y2="337.85"/>
<polyline class="st1" points="212.54,337.85 210.31,332.63 205.84,328.16 200.62,325.93 194.66,325.93 189.44,328.16 184.97,332.63 
	182.73,337.85 182.73,343.81 184.97,349.03 189.44,353.5 194.66,355.74 200.62,355.74 205.84,353.5 210.31,349.03 212.54,343.81 "/>
<polyline class="st1" points="235.65,387.79 230.43,388.53 225.96,391.51 222.98,395.98 221.49,400.46 222.23,405.67 224.47,410.15 
	228.19,413.87 233.41,416.11 237.88,416.11 243.1,413.87 246.83,410.15 249.06,405.67 249.81,400.46 248.32,395.98 245.34,391.51 
	240.86,388.53 235.65,387.79 "/>
<polyline class="st1" points="253.53,292.39 249.06,293.13 246.08,296.11 243.85,299.84 243.85,304.31 246.08,308.04 249.06,311.02 
	253.53,311.77 258.01,311.02 260.99,308.04 263.22,304.31 263.22,299.84 260.99,296.11 258.01,293.13 253.53,292.39 "/>
<polyline class="st1" points="253.53,331.89 249.06,332.63 246.08,335.62 244.59,340.09 245.34,343.81 247.57,347.54 251.3,349.78 
	255.77,349.78 259.5,347.54 261.73,343.81 262.48,340.09 260.99,335.62 258.01,332.63 253.53,331.89 "/>
<polyline class="st1" points="253.53,332.63 249.81,333.38 246.83,336.36 245.34,340.09 246.08,343.81 248.32,346.79 251.3,349.03 
	255.77,349.03 258.75,346.79 260.99,343.81 261.73,340.09 260.24,336.36 257.26,333.38 253.53,332.63 "/>
<polyline class="st1" points="253.53,333.38 249.81,334.12 246.83,337.11 246.08,340.83 246.83,344.56 249.81,347.54 253.53,348.29 
	257.26,347.54 260.24,344.56 260.99,340.83 260.24,337.11 257.26,334.12 253.53,333.38 "/>
<polyline class="st1" points="253.53,335.62 250.55,336.36 248.32,339.34 248.32,342.32 250.55,345.3 253.53,346.05 256.52,345.3 
	258.75,342.32 258.75,339.34 256.52,336.36 253.53,335.62 "/>
<polyline class="st1" points="113.42,2.47 99.26,3.21 84.35,6.19 70.94,10.67 57.52,17.37 45.6,25.57 35.16,35.26 25.47,45.69 
	17.27,57.62 10.57,71.03 6.1,84.45 3.11,99.36 2.37,113.52 "/>
<polyline class="st1" points="53.05,231.27 57.52,226.8 60.5,221.58 61.99,215.62 61.25,208.91 59.01,203.7 55.29,198.48 
	50.07,195.5 44.11,193.26 37.4,193.26 32.18,195.5 26.96,199.23 23.24,203.7 21,209.66 20.26,215.62 21.75,221.58 24.73,227.55 "/>
<polyline class="st1" points="88.08,237.98 88.82,242.45 91.8,245.43 95.53,247.67 100,247.67 103.73,245.43 106.71,242.45 
	107.46,237.98 "/>
<polyline class="st1" points="107.46,166.43 106.71,161.96 103.73,158.98 100,156.74 95.53,156.74 91.8,158.98 88.82,161.96 
	88.08,166.43 "/>
<polyline class="st1" points="92.55,158.98 89.57,161.96 88.82,166.43 "/>
<polyline class="st1" points="105.97,166.43 105.22,162.71 102.24,158.98 97.77,158.23 93.3,158.98 90.31,162.71 89.57,166.43 "/>
<polyline class="st1" points="89.57,237.98 90.31,242.45 93.3,245.43 97.77,246.18 101.49,245.43 105.22,242.45 105.97,237.98 "/>
<line class="st1" x1="88.08" y1="168.67" x2="87.33" y2="168.67"/>
<line class="st1" x1="54.54" y1="232.76" x2="51.56" y2="237.24"/>
<line class="st1" x1="25.47" y1="233.51" x2="23.98" y2="228.29"/>
<polyline class="st1" points="103.73,166.43 102.24,162.71 99.26,160.47 96.28,160.47 93.3,162.71 91.8,166.43 "/>
<polyline class="st1" points="91.8,237.98 93.3,241.71 96.28,243.94 99.26,243.94 102.24,241.71 103.73,237.98 "/>
<polyline class="st1" points="97.77,234.25 94.79,235 94.04,237.98 94.79,240.96 97.77,241.71 100.75,240.96 101.49,237.98 
	100.75,235 97.77,234.25 "/>
<polyline class="st1" points="97.77,220.09 94.79,220.84 94.04,223.82 94.79,226.8 97.77,227.55 100.75,226.8 101.49,223.82 
	100.75,220.84 97.77,220.09 "/>
<polyline class="st1" points="97.77,205.93 94.79,206.68 94.04,209.66 94.79,212.64 97.77,213.39 100.75,212.64 101.49,209.66 
	100.75,206.68 97.77,205.93 "/>
<polyline class="st1" points="97.77,191.03 94.79,191.77 94.04,194.75 94.79,197.74 97.77,198.48 100.75,197.74 101.49,194.75 
	100.75,191.77 97.77,191.03 "/>
<polyline class="st1" points="97.77,176.87 94.79,177.61 94.04,180.59 94.79,183.57 97.77,184.32 100.75,183.57 101.49,180.59 
	100.75,177.61 97.77,176.87 "/>
<polyline class="st1" points="97.77,162.71 94.79,163.45 94.04,166.43 94.79,169.41 97.77,170.16 100.75,169.41 101.49,166.43 
	100.75,163.45 97.77,162.71 "/>
<line class="st1" x1="119.38" y1="276.74" x2="121.62" y2="275.99"/>
<polyline class="st1" points="119.38,277.48 124.6,284.94 131.31,290.9 139.5,295.37 148.45,298.35 157.39,299.1 166.33,298.35 
	175.28,295.37 183.48,290.9 190.18,284.94 195.4,277.48 "/>
<polyline class="st1" points="195.4,231.27 190.18,223.82 183.48,217.86 175.28,213.39 166.33,210.41 157.39,209.66 148.45,210.41 
	139.5,213.39 131.31,217.86 124.6,223.82 119.38,231.27 "/>
<polyline class="st1" points="194.66,231.27 189.44,224.57 182.73,218.6 174.53,214.13 166.33,211.15 157.39,210.41 148.45,211.15 
	140.25,214.13 132.05,218.6 125.34,224.57 120.13,231.27 "/>
<polyline class="st1" points="120.13,277.48 125.34,284.19 132.05,290.15 140.25,294.62 148.45,297.61 157.39,298.35 166.33,297.61 
	174.53,294.62 182.73,290.15 189.44,284.19 194.66,277.48 "/>
<polyline class="st1" points="194.66,231.27 188.69,223.82 181.24,217.11 172.3,212.64 162.61,210.41 152.17,210.41 142.49,212.64 
	133.54,217.11 126.09,223.82 120.13,231.27 "/>
<polyline class="st1" points="120.13,277.48 126.09,284.94 133.54,291.64 142.49,296.11 152.17,298.35 162.61,298.35 172.3,296.11 
	181.24,291.64 188.69,284.94 194.66,277.48 "/>
<polyline class="st1" points="192.42,232.02 187.2,224.57 179.75,219.35 170.81,214.88 161.86,212.64 152.92,212.64 143.98,214.88 
	135.03,219.35 127.58,224.57 122.36,232.02 "/>
<polyline class="st1" points="122.36,276.74 127.58,284.19 135.03,289.41 143.98,293.88 152.92,296.11 161.86,296.11 170.81,293.88 
	179.75,289.41 187.2,284.19 192.42,276.74 "/>
<polyline class="st1" points="186.46,233.51 181.24,227.55 173.79,222.33 165.59,219.35 157.39,218.6 149.19,219.35 140.99,222.33 
	133.54,227.55 128.32,233.51 "/>
<polyline class="st1" points="128.32,275.25 133.54,281.21 140.99,286.43 149.19,289.41 157.39,290.15 165.59,289.41 173.79,286.43 
	181.24,281.21 186.46,275.25 "/>
<line class="st1" x1="149.19" y1="287.92" x2="157.39" y2="288.66"/>
<polyline class="st1" points="185.71,234.25 180.5,228.29 173.79,223.08 165.59,220.09 157.39,219.35 149.19,220.09 140.99,223.08 
	134.29,228.29 129.07,234.25 "/>
<polyline class="st1" points="129.07,274.5 134.29,281.21 141.74,285.68 149.19,288.66 "/>
<polyline class="st1" points="151.43,288.66 161.12,289.41 170.81,287.17 179,281.95 185.71,274.5 "/>
<polyline class="st1" points="148.45,223.08 140.99,226.06 134.29,231.27 129.07,237.98 "/>
<polyline class="st1" points="129.07,261.09 132.05,267.79 136.52,274.5 142.49,278.97 149.94,282.7 157.39,283.44 164.84,282.7 
	172.3,278.97 178.26,274.5 182.73,267.79 185.71,261.09 "/>
<polyline class="st1" points="185.71,247.67 182.73,240.96 178.26,234.25 172.3,229.78 164.84,226.06 157.39,225.31 149.94,226.06 
	142.49,229.78 136.52,234.25 132.05,240.96 129.07,247.67 "/>
<polyline class="st1" points="139.5,243.94 137.27,249.91 136.52,255.87 138.01,261.83 140.99,267.05 145.47,271.52 151.43,274.5 
	157.39,275.25 163.35,274.5 169.32,271.52 173.79,267.05 176.77,261.83 178.26,255.87 177.51,249.91 175.28,243.94 "/>
<line class="st1" x1="312.41" y1="276.74" x2="314.65" y2="275.99"/>
<polyline class="st1" points="233.41,27.06 228.19,28.55 224.47,32.28 222.23,37.5 222.98,42.71 225.21,47.18 229.68,50.17 
	234.9,50.91 "/>
<line class="st1" x1="195.4" y1="231.27" x2="193.17" y2="232.02"/>
<polyline class="st1" points="310.92,425.05 316.88,423.56 322.1,420.58 325.08,415.36 326.57,409.4 "/>
<polyline class="st1" points="310.92,423.56 316.14,422.82 320.61,419.09 324.34,414.62 325.08,409.4 "/>
<polyline class="st1" points="274.4,480.95 278.87,479.46 282.6,476.48 284.84,472.75 285.58,468.28 284.09,463.81 281.11,460.08 
	277.38,457.84 272.91,457.1 "/>
<polyline class="st1" points="326.57,395.24 325.08,389.28 322.1,384.06 316.88,381.08 310.92,379.59 "/>
<polyline class="st1" points="272.17,387.79 266.95,388.53 262.48,391.51 259.5,395.98 258.01,400.46 258.75,405.67 260.99,410.15 
	264.71,413.87 269.93,416.11 274.4,416.11 279.62,413.87 283.35,410.15 285.58,405.67 286.33,400.46 284.84,395.98 281.86,391.51 
	277.38,388.53 272.17,387.79 "/>
<polyline class="st1" points="308.69,387.79 303.47,388.53 299,391.51 296.02,395.98 294.53,400.46 295.27,405.67 297.51,410.15 
	301.23,413.87 306.45,416.11 310.92,416.11 316.14,413.87 319.87,410.15 322.1,405.67 322.85,400.46 321.36,395.98 318.38,391.51 
	313.9,388.53 308.69,387.79 "/>
<polyline class="st1" points="325.08,395.24 324.34,390.02 320.61,385.55 316.14,381.82 310.92,381.08 "/>
<polyline class="st1" points="310.18,325.18 304.96,325.93 300.49,328.91 296.76,333.38 294.53,337.85 294.53,343.81 296.76,349.03 
	300.49,352.76 304.96,355.74 310.18,356.48 315.39,355.74 319.87,352.76 323.59,348.29 325.83,343.81 325.83,337.85 323.59,332.63 
	319.87,328.91 315.39,325.93 310.18,325.18 "/>
<polyline class="st1" points="296.02,345.3 298.25,349.78 301.98,353.5 307.2,355.74 312.41,355.74 317.63,354.25 321.36,350.52 
	324.34,346.05 325.08,340.83 324.34,335.62 321.36,331.14 317.63,327.42 312.41,325.93 307.2,325.93 301.98,328.16 298.25,331.89 
	296.02,336.36 296.02,345.3 "/>
<line class="st1" x1="325.08" y1="343.81" x2="325.08" y2="337.85"/>
<polyline class="st1" points="325.08,337.85 322.85,332.63 318.38,328.16 313.16,325.93 307.2,325.93 301.98,328.16 297.51,332.63 
	295.27,337.85 295.27,343.81 297.51,349.03 301.98,353.5 307.2,355.74 313.16,355.74 318.38,353.5 322.85,349.03 325.08,343.81 "/>
<polyline class="st1" points="375.02,325.18 369.8,325.93 365.33,328.91 361.6,333.38 359.37,337.85 359.37,343.81 361.6,349.03 
	365.33,352.76 369.8,355.74 375.02,356.48 380.24,355.74 384.71,352.76 388.43,348.29 390.67,343.81 390.67,337.85 388.43,332.63 
	384.71,328.91 380.24,325.93 375.02,325.18 "/>
<polyline class="st1" points="360.86,345.3 363.09,349.78 366.82,353.5 372.04,355.74 377.25,355.74 382.47,354.25 386.2,350.52 
	389.18,346.05 389.92,340.83 389.18,335.62 386.2,331.14 382.47,327.42 377.25,325.93 372.04,325.93 366.82,328.16 363.09,331.89 
	360.86,336.36 360.86,345.3 "/>
<line class="st1" x1="389.92" y1="343.81" x2="389.92" y2="337.85"/>
<polyline class="st1" points="389.92,337.85 387.69,332.63 383.22,328.16 378,325.93 372.04,325.93 366.82,328.16 362.35,332.63 
	360.11,337.85 360.11,343.81 362.35,349.03 366.82,353.5 372.04,355.74 378,355.74 383.22,353.5 387.69,349.03 389.92,343.81 "/>
<line class="st1" x1="388.43" y1="231.27" x2="386.2" y2="232.02"/>
<polyline class="st1" points="394.4,505.54 408.56,504.8 423.46,501.82 436.88,497.35 450.29,490.64 462.22,482.44 472.65,472.75 
	482.34,462.32 490.54,450.39 497.25,436.98 501.72,423.56 504.7,408.65 505.45,394.49 "/>
<polyline class="st1" points="454.02,276.74 449.55,281.21 446.57,286.43 445.08,292.39 445.82,299.1 448.06,304.31 451.78,309.53 
	457,312.51 462.96,314.75 469.67,314.75 474.89,312.51 480.11,308.78 483.83,304.31 486.07,298.35 486.81,292.39 485.32,286.43 
	482.34,280.46 "/>
<line class="st1" x1="453.27" y1="275.25" x2="456.26" y2="270.77"/>
<line class="st1" x1="482.34" y1="275.25" x2="483.83" y2="280.46"/>
<polyline class="st1" points="232.67,481.69 253.53,482.44 274.4,481.69 "/>
<polyline class="st1" points="26.22,233.51 25.47,254.38 26.22,275.25 "/>
<polyline class="st1" points="274.4,27.06 253.53,26.32 232.67,27.06 "/>
<polyline class="st1" points="480.85,275.25 481.6,254.38 480.85,233.51 "/>
<line class="st1" x1="237.14" y1="456.35" x2="272.17" y2="456.35"/>
<line class="st1" x1="51.56" y1="237.98" x2="51.56" y2="273.01"/>
<line class="st1" x1="269.93" y1="52.4" x2="234.9" y2="52.4"/>
<line class="st1" x1="455.51" y1="270.77" x2="455.51" y2="235.75"/>
<polyline class="st1" points="312.41,277.48 317.63,284.94 324.34,290.9 332.54,295.37 341.48,298.35 350.42,299.1 359.37,298.35 
	368.31,295.37 376.51,290.9 383.22,284.94 388.43,277.48 "/>
<polyline class="st1" points="388.43,231.27 383.22,223.82 376.51,217.86 368.31,213.39 359.37,210.41 350.42,209.66 341.48,210.41 
	332.54,213.39 324.34,217.86 317.63,223.82 312.41,231.27 "/>
<polyline class="st1" points="387.69,231.27 382.47,224.57 375.76,218.6 367.57,214.13 359.37,211.15 350.42,210.41 341.48,211.15 
	333.28,214.13 325.08,218.6 318.38,224.57 313.16,231.27 "/>
<polyline class="st1" points="387.69,277.48 381.73,284.94 374.27,291.64 365.33,296.11 355.64,298.35 345.21,298.35 335.52,296.11 
	326.57,291.64 319.12,284.94 313.16,277.48 318.38,284.19 325.08,290.15 333.28,294.62 341.48,297.61 350.42,298.35 359.37,297.61 
	367.57,294.62 375.76,290.15 382.47,284.19 387.69,277.48 "/>
<polyline class="st1" points="387.69,231.27 381.73,223.82 374.27,217.11 365.33,212.64 355.64,210.41 345.21,210.41 335.52,212.64 
	326.57,217.11 319.12,223.82 313.16,231.27 "/>
<polyline class="st1" points="385.45,232.02 380.24,224.57 372.78,219.35 363.84,214.88 354.89,212.64 345.95,212.64 337.01,214.88 
	328.06,219.35 320.61,224.57 315.39,232.02 "/>
<polyline class="st1" points="315.39,276.74 320.61,284.19 328.06,289.41 337.01,293.88 345.95,296.11 354.89,296.11 363.84,293.88 
	372.78,289.41 380.24,284.19 385.45,276.74 "/>
<polyline class="st1" points="379.49,233.51 374.27,227.55 366.82,222.33 358.62,219.35 350.42,218.6 342.22,219.35 334.03,222.33 
	326.57,227.55 321.36,233.51 "/>
<polyline class="st1" points="321.36,275.25 326.57,281.21 334.03,286.43 342.22,289.41 350.42,290.15 358.62,289.41 366.82,286.43 
	374.27,281.21 379.49,275.25 "/>
<line class="st1" x1="342.22" y1="287.92" x2="350.42" y2="288.66"/>
<polyline class="st1" points="378.74,234.25 373.53,228.29 366.82,223.08 358.62,220.09 350.42,219.35 342.22,220.09 334.03,223.08 
	327.32,228.29 322.1,234.25 "/>
<polyline class="st1" points="322.1,274.5 327.32,281.21 334.77,285.68 342.22,288.66 "/>
<polyline class="st1" points="344.46,288.66 354.15,289.41 363.84,287.17 372.04,281.95 378.74,274.5 "/>
<polyline class="st1" points="341.48,223.08 334.03,226.06 327.32,231.27 322.1,237.98 "/>
<polyline class="st1" points="322.1,261.09 325.08,267.79 329.55,274.5 335.52,278.97 342.97,282.7 350.42,283.44 357.88,282.7 
	365.33,278.97 371.29,274.5 375.76,267.79 378.74,261.09 "/>
<polyline class="st1" points="378.74,247.67 375.76,240.96 371.29,234.25 365.33,229.78 357.88,226.06 350.42,225.31 342.97,226.06 
	335.52,229.78 329.55,234.25 325.08,240.96 322.1,247.67 "/>
<polyline class="st1" points="332.54,243.94 330.3,249.91 329.55,255.87 331.05,261.83 334.03,267.05 338.5,271.52 344.46,274.5 
	350.42,275.25 356.39,274.5 362.35,271.52 366.82,267.05 369.8,261.83 371.29,255.87 370.55,249.91 368.31,243.94 "/>
<line class="st1" x1="193.17" y1="275.99" x2="195.4" y2="276.74"/>
<polyline class="st1" points="276.64,53.89 281.11,58.36 286.33,61.35 292.29,62.84 299,62.09 304.21,59.86 309.43,56.13 
	312.41,50.91 314.65,44.95 314.65,38.24 312.41,33.02 308.69,27.81 304.21,24.08 298.25,21.84 292.29,21.1 286.33,22.59 
	280.37,25.57 "/>
<line class="st1" x1="275.15" y1="54.64" x2="270.68" y2="51.66"/>
<line class="st1" x1="274.4" y1="25.57" x2="279.62" y2="24.08"/>
<polyline class="st1" points="505.45,113.52 504.7,99.36 501.72,84.45 497.25,71.03 490.54,57.62 482.34,45.69 472.65,35.26 
	462.22,25.57 450.29,17.37 436.88,10.67 423.46,6.19 408.56,3.21 394.4,2.47 "/>
<polyline class="st1" points="480.85,233.51 479.36,228.29 475.63,224.57 470.42,222.33 465.2,223.08 460.73,225.31 457.75,229.78 
	457,235 "/>
<polyline class="st1" points="400.36,237.98 401.1,242.45 404.08,245.43 407.81,247.67 412.28,247.67 416.01,245.43 418.99,242.45 
	419.74,237.98 "/>
<polyline class="st1" points="419.74,166.43 418.99,161.96 416.01,158.98 412.28,156.74 407.81,156.74 404.08,158.98 401.1,161.96 
	400.36,166.43 "/>
<polyline class="st1" points="418.99,166.43 418.25,161.96 415.26,158.98 "/>
<polyline class="st1" points="418.25,166.43 417.5,162.71 414.52,158.98 410.05,158.23 405.58,158.98 402.59,162.71 401.85,166.43 
	"/>
<polyline class="st1" points="401.85,237.98 402.59,242.45 405.58,245.43 410.05,246.18 413.77,245.43 417.5,242.45 418.25,237.98 
	"/>
<line class="st1" x1="420.48" y1="168.67" x2="419.74" y2="168.67"/>
<polyline class="st1" points="404.08,237.98 405.58,241.71 408.56,243.94 411.54,243.94 414.52,241.71 416.01,237.98 "/>
<polyline class="st1" points="416.01,166.43 414.52,162.71 411.54,160.47 408.56,160.47 405.58,162.71 404.08,166.43 "/>
<polyline class="st1" points="410.05,234.25 407.07,235 406.32,237.98 407.07,240.96 410.05,241.71 413.03,240.96 413.77,237.98 
	413.03,235 410.05,234.25 "/>
<polyline class="st1" points="410.05,220.09 407.07,220.84 406.32,223.82 407.07,226.8 410.05,227.55 413.03,226.8 413.77,223.82 
	413.03,220.84 410.05,220.09 "/>
<polyline class="st1" points="410.05,205.93 407.07,206.68 406.32,209.66 407.07,212.64 410.05,213.39 413.03,212.64 413.77,209.66 
	413.03,206.68 410.05,205.93 "/>
<polyline class="st1" points="410.05,191.03 407.07,191.77 406.32,194.75 407.07,197.74 410.05,198.48 413.03,197.74 413.77,194.75 
	413.03,191.77 410.05,191.03 "/>
<polyline class="st1" points="410.05,176.87 407.07,177.61 406.32,180.59 407.07,183.57 410.05,184.32 413.03,183.57 413.77,180.59 
	413.03,177.61 410.05,176.87 "/>
<polyline class="st1" points="410.05,162.71 407.07,163.45 406.32,166.43 407.07,169.41 410.05,170.16 413.03,169.41 413.77,166.43 
	413.03,163.45 410.05,162.71 "/>
<line class="st1" x1="386.2" y1="275.99" x2="388.43" y2="276.74"/>
<polyline class="st0" points="379.49,235.75 373.53,229.78 366.82,224.57 358.62,221.58 350.42,220.84 341.48,222.33 "/>
<polyline class="st0" points="350.42,289.41 358.62,287.92 366.82,284.94 373.53,279.72 379.49,273.01 "/>
<polyline class="st0" points="186.46,235.75 180.5,229.78 173.79,224.57 165.59,221.58 157.39,220.84 148.45,222.33 "/>
<polyline class="st0" points="157.39,289.41 165.59,287.92 173.79,284.94 180.5,279.72 186.46,273.01 "/>
<line class="st0" x1="79.88" y1="150.04" x2="83.61" y2="144.07"/>
<line class="st0" x1="143.98" y1="83.7" x2="149.19" y2="80.72"/>
<line class="st0" x1="363.84" y1="424.31" x2="357.88" y2="428.03"/>
<line class="st0" x1="424.21" y1="144.07" x2="427.93" y2="150.04"/>
<line class="st0" x1="427.93" y1="358.72" x2="424.21" y2="363.94"/>
<line class="st0" x1="357.88" y1="80.72" x2="363.84" y2="83.7"/>
<line class="st0" x1="149.19" y1="428.03" x2="143.98" y2="424.31"/>
<line class="st0" x1="83.61" y1="363.94" x2="79.88" y2="358.72"/>
<line class="st0" x1="408.56" y1="223.08" x2="408.56" y2="223.08"/>
<line class="st0" x1="99.26" y1="223.08" x2="99.26" y2="223.08"/>
<line class="st0" x1="408.56" y1="209.66" x2="408.56" y2="209.66"/>
<line class="st0" x1="99.26" y1="209.66" x2="99.26" y2="209.66"/>
<line class="st0" x1="418.99" y1="163.45" x2="418.99" y2="162.71"/>
<line class="st0" x1="88.82" y1="162.71" x2="88.82" y2="163.45"/>
</svg>
