<?xml version="1.0" encoding="utf-8"?>
<!-- Generator: Adobe Illustrator 24.0.0, SVG Export Plug-In . SVG Version: 6.00 Build 0)  -->
<svg version="1.1" id="图层_1" xmlns="http://www.w3.org/2000/svg" xmlns:xlink="http://www.w3.org/1999/xlink" x="0px" y="0px"
	 viewBox="0 0 75 75" style="enable-background:new 0 0 75 75;" xml:space="preserve">
<style type="text/css">
	.st0{fill:none;stroke:#040000;stroke-width:0.25;stroke-linecap:round;stroke-linejoin:round;stroke-miterlimit:10;}
	.st1{fill:none;stroke:#040000;stroke-width:0.25;stroke-linecap:round;stroke-linejoin:bevel;stroke-miterlimit:10;}
</style>
<line class="st0" x1="0.1" y1="47.67" x2="0.1" y2="27.39"/>
<line class="st0" x1="0.77" y1="16.65" x2="0.77" y2="27.39"/>
<line class="st0" x1="0.77" y1="47.67" x2="0.77" y2="58.41"/>
<line class="st0" x1="47.74" y1="75.03" x2="27.47" y2="75.03"/>
<line class="st0" x1="16.72" y1="74.37" x2="27.47" y2="74.37"/>
<line class="st0" x1="47.74" y1="74.37" x2="58.49" y2="74.37"/>
<line class="st0" x1="10.52" y1="20.75" x2="20.82" y2="10.44"/>
<line class="st0" x1="17.72" y1="13.99" x2="14.06" y2="17.65"/>
<line class="st0" x1="18.38" y1="14.65" x2="14.73" y2="18.31"/>
<line class="st0" x1="12.29" y1="21.19" x2="21.26" y2="12.22"/>
<line class="st0" x1="11.74" y1="22.08" x2="22.04" y2="11.77"/>
<line class="st0" x1="20.82" y1="64.62" x2="10.52" y2="54.31"/>
<line class="st0" x1="14.06" y1="57.42" x2="17.72" y2="61.07"/>
<line class="st0" x1="14.73" y1="56.75" x2="18.38" y2="60.41"/>
<line class="st0" x1="21.26" y1="62.85" x2="12.29" y2="53.87"/>
<line class="st0" x1="22.04" y1="63.4" x2="11.74" y2="53.1"/>
<line class="st0" x1="12.84" y1="24.51" x2="12.84" y2="35.15"/>
<line class="st0" x1="12.95" y1="24.51" x2="12.95" y2="24.74"/>
<polyline class="st0" points="13.07,24.18 13.07,24.07 13.07,23.85 "/>
<line class="st0" x1="13.07" y1="24.51" x2="13.07" y2="35.15"/>
<line class="st0" x1="13.4" y1="24.51" x2="13.4" y2="35.15"/>
<line class="st0" x1="13.84" y1="23.07" x2="13.62" y2="23.3"/>
<line class="st0" x1="29.13" y1="62.96" x2="46.08" y2="62.96"/>
<line class="st0" x1="46.08" y1="62.73" x2="29.13" y2="62.73"/>
<line class="st0" x1="14.06" y1="35.48" x2="14.06" y2="34.93"/>
<line class="st0" x1="14.06" y1="33.27" x2="14.06" y2="32.82"/>
<line class="st0" x1="14.06" y1="31.16" x2="14.06" y2="30.61"/>
<line class="st0" x1="14.06" y1="29.06" x2="14.06" y2="28.5"/>
<line class="st0" x1="14.06" y1="26.84" x2="14.06" y2="26.4"/>
<polyline class="st0" points="14.06,24.74 14.06,24.18 14.06,24.74 "/>
<line class="st0" x1="14.06" y1="26.4" x2="14.06" y2="26.84"/>
<line class="st0" x1="14.06" y1="28.5" x2="14.06" y2="29.06"/>
<line class="st0" x1="14.06" y1="30.61" x2="14.06" y2="31.16"/>
<line class="st0" x1="14.06" y1="32.82" x2="14.06" y2="33.27"/>
<line class="st0" x1="14.06" y1="34.93" x2="14.06" y2="35.48"/>
<line class="st0" x1="14.62" y1="24.18" x2="14.62" y2="24.74"/>
<line class="st0" x1="14.62" y1="26.4" x2="14.62" y2="26.84"/>
<line class="st0" x1="14.62" y1="28.5" x2="14.62" y2="29.06"/>
<line class="st0" x1="14.62" y1="30.61" x2="14.62" y2="31.16"/>
<line class="st0" x1="14.62" y1="32.82" x2="14.62" y2="33.27"/>
<line class="st0" x1="14.62" y1="34.93" x2="14.62" y2="35.48"/>
<line class="st0" x1="14.62" y1="24.18" x2="14.62" y2="24.74"/>
<line class="st0" x1="14.62" y1="26.4" x2="14.62" y2="26.84"/>
<line class="st0" x1="14.62" y1="28.5" x2="14.62" y2="29.06"/>
<line class="st0" x1="14.62" y1="30.61" x2="14.62" y2="31.16"/>
<line class="st0" x1="14.62" y1="32.82" x2="14.62" y2="33.27"/>
<line class="st0" x1="14.62" y1="34.93" x2="14.62" y2="35.48"/>
<line class="st0" x1="15.28" y1="35.15" x2="15.28" y2="24.51"/>
<line class="st0" x1="15.61" y1="35.15" x2="15.61" y2="24.51"/>
<line class="st0" x1="15.83" y1="35.15" x2="15.83" y2="24.51"/>
<line class="st0" x1="16.72" y1="74.37" x2="16.72" y2="75.03"/>
<line class="st0" x1="16.72" y1="0.7" x2="16.72" y2="0.03"/>
<line class="st0" x1="17.5" y1="34.04" x2="17.5" y2="41.02"/>
<polyline class="st0" points="17.61,34.15 17.61,41.02 17.61,34.15 "/>
<line class="st0" x1="26.91" y1="60.63" x2="26.69" y2="60.63"/>
<line class="st0" x1="48.29" y1="60.63" x2="48.41" y2="60.63"/>
<line class="st0" x1="26.91" y1="58.52" x2="26.69" y2="58.52"/>
<line class="st0" x1="48.29" y1="58.52" x2="48.41" y2="58.52"/>
<line class="st0" x1="0.77" y1="58.41" x2="0.1" y2="58.41"/>
<line class="st0" x1="74.44" y1="58.41" x2="75.1" y2="58.41"/>
<line class="st0" x1="17.94" y1="34.26" x2="17.94" y2="40.91"/>
<polyline class="st0" points="18.94,34.48 18.94,40.58 18.94,34.48 "/>
<line class="st0" x1="29.13" y1="56.42" x2="46.08" y2="56.42"/>
<line class="st0" x1="46.08" y1="56.2" x2="29.13" y2="56.2"/>
<line class="st0" x1="17.28" y1="50.99" x2="17.39" y2="50.99"/>
<line class="st0" x1="26.91" y1="50.99" x2="27.02" y2="50.99"/>
<line class="st0" x1="43.64" y1="50.99" x2="43.75" y2="50.99"/>
<line class="st0" x1="53.28" y1="50.99" x2="53.39" y2="50.99"/>
<line class="st0" x1="17.39" y1="50.77" x2="21.82" y2="50.77"/>
<line class="st0" x1="27.02" y1="50.77" x2="31.46" y2="50.77"/>
<line class="st0" x1="43.75" y1="50.77" x2="48.18" y2="50.77"/>
<line class="st0" x1="53.39" y1="50.77" x2="57.82" y2="50.77"/>
<line class="st0" x1="17.39" y1="49.99" x2="21.82" y2="49.99"/>
<line class="st0" x1="27.02" y1="49.99" x2="31.46" y2="49.99"/>
<line class="st0" x1="43.75" y1="49.99" x2="48.18" y2="49.99"/>
<line class="st0" x1="53.39" y1="49.99" x2="57.82" y2="49.99"/>
<line class="st0" x1="53.39" y1="49.77" x2="53.28" y2="49.77"/>
<line class="st0" x1="43.75" y1="49.77" x2="43.64" y2="49.77"/>
<line class="st0" x1="27.02" y1="49.77" x2="26.91" y2="49.77"/>
<line class="st0" x1="17.39" y1="49.77" x2="17.28" y2="49.77"/>
<line class="st0" x1="26.69" y1="58.52" x2="26.69" y2="60.63"/>
<line class="st0" x1="26.91" y1="60.63" x2="26.91" y2="58.52"/>
<line class="st0" x1="27.47" y1="74.37" x2="27.47" y2="75.03"/>
<line class="st0" x1="27.47" y1="0.7" x2="27.47" y2="0.03"/>
<polyline class="st0" points="27.58,40.58 27.58,34.48 27.58,40.58 "/>
<line class="st0" x1="28.57" y1="40.91" x2="28.57" y2="34.26"/>
<polyline class="st0" points="28.91,41.02 28.91,34.15 28.91,41.02 "/>
<line class="st0" x1="29.02" y1="41.02" x2="29.02" y2="34.04"/>
<line class="st0" x1="29.13" y1="62.73" x2="29.13" y2="62.96"/>
<line class="st0" x1="29.13" y1="56.42" x2="29.13" y2="56.2"/>
<line class="st0" x1="0.77" y1="47.67" x2="0.1" y2="47.67"/>
<line class="st0" x1="74.44" y1="47.67" x2="75.1" y2="47.67"/>
<line class="st0" x1="54.39" y1="10.44" x2="53.06" y2="11.77"/>
<line class="st0" x1="11.74" y1="53.1" x2="10.52" y2="54.31"/>
<line class="st0" x1="55.5" y1="11.55" x2="54.39" y2="12.77"/>
<line class="st0" x1="12.73" y1="54.31" x2="11.63" y2="55.53"/>
<line class="st0" x1="12.84" y1="56.75" x2="13.95" y2="55.53"/>
<line class="st0" x1="55.61" y1="13.88" x2="56.71" y2="12.77"/>
<line class="st0" x1="46.3" y1="41.02" x2="46.3" y2="41.02"/>
<line class="st0" x1="28.91" y1="41.02" x2="28.91" y2="41.02"/>
<line class="st0" x1="10.52" y1="20.75" x2="11.74" y2="22.08"/>
<line class="st0" x1="53.06" y1="63.4" x2="54.39" y2="64.62"/>
<line class="st0" x1="11.63" y1="19.64" x2="12.73" y2="20.75"/>
<line class="st0" x1="54.39" y1="62.4" x2="55.5" y2="63.51"/>
<line class="st0" x1="56.71" y1="62.29" x2="55.61" y2="61.18"/>
<line class="st0" x1="13.95" y1="19.53" x2="12.84" y2="18.42"/>
<line class="st0" x1="56.82" y1="14.65" x2="57.49" y2="13.99"/>
<line class="st0" x1="13.4" y1="57.31" x2="14.51" y2="56.09"/>
<line class="st0" x1="56.16" y1="14.54" x2="57.27" y2="13.33"/>
<line class="st0" x1="57.49" y1="13.99" x2="56.6" y2="14.88"/>
<polyline class="st0" points="14.73,56.75 14.95,56.53 14.06,57.42 "/>
<line class="st0" x1="56.6" y1="14.88" x2="56.82" y2="14.65"/>
<line class="st0" x1="14.06" y1="57.42" x2="14.73" y2="56.75"/>
<line class="st0" x1="62.14" y1="24.07" x2="62.25" y2="23.96"/>
<line class="st0" x1="57.6" y1="34.15" x2="57.49" y2="34.15"/>
<line class="st0" x1="17.61" y1="34.15" x2="17.61" y2="34.15"/>
<line class="st0" x1="14.73" y1="18.31" x2="14.06" y2="17.65"/>
<line class="st0" x1="57.27" y1="61.74" x2="56.16" y2="60.63"/>
<line class="st0" x1="14.51" y1="18.98" x2="13.4" y2="17.87"/>
<line class="st0" x1="14.06" y1="17.65" x2="14.95" y2="18.53"/>
<polyline class="st0" points="56.82,60.41 56.6,60.19 57.49,61.07 "/>
<line class="st0" x1="14.95" y1="18.53" x2="14.73" y2="18.31"/>
<line class="st0" x1="57.49" y1="61.07" x2="56.82" y2="60.41"/>
<line class="st0" x1="18.38" y1="60.41" x2="17.72" y2="61.07"/>
<line class="st0" x1="60.48" y1="18.31" x2="60.26" y2="18.53"/>
<polyline class="st0" points="17.72,61.07 18.6,60.19 18.38,60.41 "/>
<line class="st0" x1="60.26" y1="18.53" x2="61.15" y2="17.65"/>
<line class="st0" x1="61.81" y1="17.87" x2="60.59" y2="18.98"/>
<line class="st0" x1="19.05" y1="60.63" x2="17.83" y2="61.74"/>
<line class="st0" x1="62.36" y1="18.42" x2="61.26" y2="19.53"/>
<line class="st0" x1="19.6" y1="61.18" x2="18.49" y2="62.29"/>
<line class="st0" x1="61.15" y1="17.65" x2="60.48" y2="18.31"/>
<line class="st0" x1="17.61" y1="41.02" x2="17.61" y2="41.02"/>
<line class="st0" x1="54.72" y1="35.92" x2="49.18" y2="35.92"/>
<line class="st0" x1="26.03" y1="35.92" x2="20.49" y2="35.92"/>
<line class="st0" x1="61.15" y1="35.48" x2="60.59" y2="35.48"/>
<line class="st0" x1="14.62" y1="35.48" x2="14.06" y2="35.48"/>
<line class="st0" x1="13.4" y1="35.15" x2="13.07" y2="35.15"/>
<line class="st0" x1="15.28" y1="35.15" x2="15.61" y2="35.15"/>
<line class="st0" x1="61.81" y1="35.15" x2="62.14" y2="35.15"/>
<line class="st0" x1="59.82" y1="35.15" x2="59.59" y2="35.15"/>
<line class="st0" x1="14.06" y1="34.93" x2="14.62" y2="34.93"/>
<line class="st0" x1="60.59" y1="34.93" x2="61.15" y2="34.93"/>
<line class="st0" x1="61.15" y1="33.27" x2="60.59" y2="33.27"/>
<line class="st0" x1="14.62" y1="33.27" x2="14.06" y2="33.27"/>
<line class="st0" x1="57.6" y1="41.02" x2="57.49" y2="41.02"/>
<line class="st0" x1="13.07" y1="24.07" x2="12.95" y2="23.96"/>
<line class="st0" x1="60.48" y1="56.75" x2="61.15" y2="57.42"/>
<line class="st0" x1="18.38" y1="14.65" x2="18.6" y2="14.88"/>
<polyline class="st0" points="61.15,57.42 60.26,56.53 60.48,56.75 "/>
<line class="st0" x1="18.6" y1="14.88" x2="17.72" y2="13.99"/>
<line class="st0" x1="17.83" y1="13.33" x2="19.05" y2="14.54"/>
<line class="st0" x1="60.59" y1="56.09" x2="61.81" y2="57.31"/>
<line class="st0" x1="18.49" y1="12.77" x2="19.6" y2="13.88"/>
<line class="st0" x1="61.26" y1="55.53" x2="62.36" y2="56.75"/>
<line class="st0" x1="17.72" y1="13.99" x2="18.38" y2="14.65"/>
<line class="st0" x1="46.08" y1="62.73" x2="46.08" y2="62.96"/>
<line class="st0" x1="46.08" y1="56.42" x2="46.08" y2="56.2"/>
<line class="st0" x1="46.19" y1="34.04" x2="46.19" y2="41.02"/>
<line class="st0" x1="19.71" y1="63.51" x2="20.82" y2="62.4"/>
<line class="st0" x1="62.47" y1="20.75" x2="63.58" y2="19.64"/>
<line class="st0" x1="20.82" y1="64.62" x2="22.04" y2="63.4"/>
<line class="st0" x1="63.47" y1="22.08" x2="64.69" y2="20.75"/>
<line class="st0" x1="28.91" y1="34.15" x2="28.91" y2="34.15"/>
<line class="st0" x1="61.15" y1="32.82" x2="61.03" y2="32.82"/>
<line class="st0" x1="14.62" y1="32.82" x2="14.06" y2="32.82"/>
<line class="st0" x1="60.59" y1="32.82" x2="61.15" y2="32.82"/>
<line class="st0" x1="61.15" y1="31.16" x2="60.59" y2="31.16"/>
<line class="st0" x1="14.62" y1="31.16" x2="14.06" y2="31.16"/>
<line class="st0" x1="61.15" y1="31.05" x2="61.03" y2="31.05"/>
<line class="st0" x1="14.06" y1="31.05" x2="14.06" y2="31.05"/>
<line class="st0" x1="14.06" y1="30.61" x2="14.62" y2="30.61"/>
<line class="st0" x1="60.59" y1="30.61" x2="61.15" y2="30.61"/>
<line class="st0" x1="61.15" y1="29.06" x2="60.59" y2="29.06"/>
<line class="st0" x1="14.62" y1="29.06" x2="14.06" y2="29.06"/>
<line class="st0" x1="46.3" y1="34.15" x2="46.3" y2="34.15"/>
<line class="st0" x1="63.58" y1="55.53" x2="62.47" y2="54.31"/>
<line class="st0" x1="20.82" y1="12.77" x2="19.71" y2="11.55"/>
<line class="st0" x1="64.69" y1="54.31" x2="63.47" y2="53.1"/>
<line class="st0" x1="22.04" y1="11.77" x2="20.82" y2="10.44"/>
<polyline class="st0" points="46.3,34.15 46.3,41.02 46.3,34.15 "/>
<line class="st0" x1="46.63" y1="34.26" x2="46.63" y2="40.91"/>
<polyline class="st0" points="47.63,34.48 47.63,40.58 47.63,34.48 "/>
<line class="st0" x1="47.74" y1="74.37" x2="47.74" y2="75.03"/>
<line class="st0" x1="47.74" y1="0.7" x2="47.74" y2="0.03"/>
<line class="st0" x1="48.29" y1="58.52" x2="48.29" y2="60.63"/>
<line class="st0" x1="48.41" y1="60.63" x2="48.41" y2="58.52"/>
<line class="st0" x1="14.06" y1="28.5" x2="14.62" y2="28.5"/>
<line class="st0" x1="60.59" y1="28.5" x2="61.15" y2="28.5"/>
<line class="st0" x1="0.77" y1="27.39" x2="0.1" y2="27.39"/>
<line class="st0" x1="74.44" y1="27.39" x2="75.1" y2="27.39"/>
<line class="st0" x1="61.15" y1="26.84" x2="60.59" y2="26.84"/>
<line class="st0" x1="14.62" y1="26.84" x2="14.06" y2="26.84"/>
<line class="st0" x1="14.06" y1="26.4" x2="14.62" y2="26.4"/>
<line class="st0" x1="60.59" y1="26.4" x2="61.15" y2="26.4"/>
<line class="st0" x1="61.15" y1="24.74" x2="60.59" y2="24.74"/>
<line class="st0" x1="14.62" y1="24.74" x2="14.06" y2="24.74"/>
<line class="st0" x1="15.28" y1="24.51" x2="15.61" y2="24.51"/>
<line class="st0" x1="59.82" y1="24.51" x2="59.59" y2="24.51"/>
<line class="st0" x1="13.4" y1="24.51" x2="13.07" y2="24.51"/>
<line class="st0" x1="61.81" y1="24.51" x2="62.14" y2="24.51"/>
<line class="st0" x1="14.06" y1="24.18" x2="14.62" y2="24.18"/>
<line class="st0" x1="60.59" y1="24.18" x2="61.15" y2="24.18"/>
<line class="st0" x1="61.48" y1="23.18" x2="61.48" y2="23.18"/>
<line class="st0" x1="13.73" y1="23.18" x2="13.73" y2="23.18"/>
<polyline class="st0" points="56.27,40.58 56.27,34.48 56.27,40.58 "/>
<line class="st0" x1="57.27" y1="40.91" x2="57.27" y2="34.26"/>
<line class="st0" x1="57.49" y1="41.02" x2="57.49" y2="34.15"/>
<line class="st0" x1="57.6" y1="41.02" x2="57.6" y2="34.15"/>
<line class="st0" x1="57.71" y1="41.02" x2="57.71" y2="34.04"/>
<line class="st0" x1="58.49" y1="74.37" x2="58.49" y2="75.03"/>
<line class="st0" x1="58.49" y1="0.7" x2="58.49" y2="0.03"/>
<line class="st0" x1="59.37" y1="24.51" x2="59.37" y2="35.15"/>
<line class="st0" x1="59.59" y1="24.51" x2="59.59" y2="35.15"/>
<line class="st0" x1="59.82" y1="24.51" x2="59.82" y2="35.15"/>
<line class="st0" x1="60.59" y1="35.48" x2="60.59" y2="34.93"/>
<line class="st0" x1="60.59" y1="33.27" x2="60.59" y2="32.82"/>
<line class="st0" x1="60.59" y1="31.16" x2="60.59" y2="30.61"/>
<line class="st0" x1="60.59" y1="29.06" x2="60.59" y2="28.5"/>
<line class="st0" x1="60.59" y1="26.84" x2="60.59" y2="26.4"/>
<polyline class="st0" points="60.59,24.74 60.59,24.18 60.59,24.74 "/>
<line class="st0" x1="60.59" y1="26.4" x2="60.59" y2="26.84"/>
<line class="st0" x1="60.59" y1="28.5" x2="60.59" y2="29.06"/>
<line class="st0" x1="60.59" y1="30.61" x2="60.59" y2="31.16"/>
<line class="st0" x1="60.59" y1="32.82" x2="60.59" y2="33.27"/>
<line class="st0" x1="60.59" y1="34.93" x2="60.59" y2="35.48"/>
<line class="st0" x1="61.03" y1="24.18" x2="61.03" y2="24.74"/>
<line class="st0" x1="61.03" y1="26.4" x2="61.03" y2="26.84"/>
<line class="st0" x1="61.03" y1="28.5" x2="61.03" y2="29.06"/>
<line class="st0" x1="61.03" y1="30.61" x2="61.03" y2="31.16"/>
<line class="st0" x1="61.03" y1="32.82" x2="61.03" y2="33.27"/>
<line class="st0" x1="61.03" y1="34.93" x2="61.03" y2="35.48"/>
<line class="st0" x1="61.15" y1="24.18" x2="61.15" y2="24.74"/>
<line class="st0" x1="61.15" y1="26.4" x2="61.15" y2="26.84"/>
<line class="st0" x1="61.15" y1="28.5" x2="61.15" y2="29.06"/>
<line class="st0" x1="61.15" y1="30.61" x2="61.15" y2="31.16"/>
<line class="st0" x1="61.15" y1="32.82" x2="61.15" y2="33.27"/>
<line class="st0" x1="61.15" y1="34.93" x2="61.15" y2="35.48"/>
<line class="st0" x1="61.81" y1="35.15" x2="61.81" y2="24.51"/>
<line class="st0" x1="62.14" y1="35.15" x2="62.14" y2="24.51"/>
<polyline class="st0" points="62.14,24.18 62.14,24.07 62.14,23.85 "/>
<line class="st0" x1="62.25" y1="24.74" x2="62.25" y2="24.51"/>
<line class="st0" x1="62.36" y1="35.15" x2="62.36" y2="24.51"/>
<line class="st0" x1="0.77" y1="16.65" x2="0.1" y2="16.65"/>
<line class="st0" x1="74.44" y1="16.65" x2="75.1" y2="16.65"/>
<line class="st0" x1="61.59" y1="23.3" x2="61.37" y2="23.07"/>
<line class="st0" x1="63.47" y1="53.1" x2="53.06" y2="63.4"/>
<line class="st0" x1="62.92" y1="53.87" x2="53.94" y2="62.85"/>
<line class="st0" x1="56.82" y1="60.41" x2="60.48" y2="56.75"/>
<line class="st0" x1="57.49" y1="61.07" x2="61.15" y2="57.42"/>
<line class="st0" x1="64.69" y1="54.31" x2="54.39" y2="64.62"/>
<line class="st0" x1="53.06" y1="11.77" x2="63.47" y2="22.08"/>
<line class="st0" x1="53.94" y1="12.22" x2="62.92" y2="21.19"/>
<line class="st0" x1="60.48" y1="18.31" x2="56.82" y2="14.65"/>
<line class="st0" x1="61.15" y1="17.65" x2="57.49" y2="13.99"/>
<line class="st0" x1="54.39" y1="10.44" x2="64.69" y2="20.75"/>
<line class="st0" x1="74.44" y1="58.41" x2="74.44" y2="47.67"/>
<line class="st0" x1="74.44" y1="27.39" x2="74.44" y2="16.65"/>
<line class="st0" x1="58.49" y1="0.7" x2="47.74" y2="0.7"/>
<line class="st0" x1="27.47" y1="0.7" x2="16.72" y2="0.7"/>
<line class="st0" x1="75.1" y1="27.39" x2="75.1" y2="47.67"/>
<line class="st0" x1="27.47" y1="0.03" x2="47.74" y2="0.03"/>
<line class="st1" x1="17.94" y1="34.26" x2="17.61" y2="34.15"/>
<polyline class="st1" points="0.21,58.41 0.33,60.52 0.77,62.73 1.43,64.73 2.43,66.72 3.65,68.5 5.09,70.05 6.64,71.49 8.41,72.7 
	10.41,73.7 12.4,74.37 14.62,74.81 16.72,74.92 "/>
<polyline class="st1" points="19.6,48.11 18.83,48.22 18.16,48.66 17.61,49.33 17.28,49.99 17.28,50.88 17.61,51.66 18.16,52.21 
	18.83,52.65 19.6,52.76 20.38,52.65 21.04,52.21 21.6,51.55 21.93,50.88 21.93,49.99 21.6,49.22 21.04,48.66 20.38,48.22 
	19.6,48.11 "/>
<polyline class="st1" points="17.5,51.1 17.83,51.77 18.38,52.32 19.16,52.65 19.93,52.65 20.71,52.43 21.26,51.88 21.71,51.21 
	21.82,50.44 21.71,49.66 21.26,49 20.71,48.44 19.93,48.22 19.16,48.22 18.38,48.55 17.83,49.11 17.5,49.77 17.5,51.1 "/>
<line class="st1" x1="21.82" y1="50.88" x2="21.82" y2="49.99"/>
<polyline class="st1" points="21.82,49.99 21.48,49.22 20.82,48.55 20.04,48.22 19.16,48.22 18.38,48.55 17.72,49.22 17.39,49.99 
	17.39,50.88 17.72,51.66 18.38,52.32 19.16,52.65 20.04,52.65 20.82,52.32 21.48,51.66 21.82,50.88 "/>
<polyline class="st1" points="3.87,40.58 4.09,41.35 4.65,41.91 5.42,42.24 6.2,42.13 6.86,41.8 7.3,41.13 7.42,40.36 "/>
<line class="st1" x1="46.63" y1="34.26" x2="46.3" y2="34.15"/>
<polyline class="st1" points="34.22,67.39 33.56,66.72 32.78,66.28 31.9,66.06 30.9,66.17 30.13,66.5 29.35,67.05 28.91,67.83 
	28.57,68.72 28.57,69.71 28.91,70.49 29.46,71.26 30.13,71.82 31.01,72.15 31.9,72.26 32.78,72.04 33.67,71.6 "/>
<polyline class="st1" points="26.8,60.63 27.02,61.52 27.47,62.29 28.24,62.73 29.13,62.96 "/>
<polyline class="st1" points="27.02,60.63 27.13,61.4 27.69,62.07 28.35,62.62 29.13,62.73 "/>
<line class="st1" x1="34.45" y1="67.17" x2="35.11" y2="67.61"/>
<line class="st1" x1="34.45" y1="71.49" x2="33.67" y2="71.71"/>
<polyline class="st1" points="29.13,56.2 28.24,56.42 27.47,56.86 27.02,57.64 26.8,58.52 "/>
<polyline class="st1" points="29.46,57.42 28.69,57.53 28.02,57.97 27.58,58.64 27.36,59.3 27.47,60.08 27.8,60.74 28.35,61.29 
	29.13,61.63 29.79,61.63 30.57,61.29 31.12,60.74 31.46,60.08 31.57,59.3 31.34,58.64 30.9,57.97 30.24,57.53 29.46,57.42 "/>
<polyline class="st1" points="29.13,56.42 28.35,56.53 27.69,57.08 27.13,57.75 27.02,58.52 "/>
<polyline class="st1" points="29.24,48.11 28.46,48.22 27.8,48.66 27.25,49.33 26.91,49.99 26.91,50.88 27.25,51.66 27.8,52.21 
	28.46,52.65 29.24,52.76 30.02,52.65 30.68,52.21 31.23,51.55 31.57,50.88 31.57,49.99 31.23,49.22 30.68,48.66 30.02,48.22 
	29.24,48.11 "/>
<polyline class="st1" points="27.13,51.1 27.47,51.77 28.02,52.32 28.8,52.65 29.57,52.65 30.35,52.43 30.9,51.88 31.34,51.21 
	31.46,50.44 31.34,49.66 30.9,49 30.35,48.44 29.57,48.22 28.8,48.22 28.02,48.55 27.47,49.11 27.13,49.77 27.13,51.1 "/>
<line class="st1" x1="31.46" y1="50.88" x2="31.46" y2="49.99"/>
<polyline class="st1" points="31.46,49.99 31.12,49.22 30.46,48.55 29.68,48.22 28.8,48.22 28.02,48.55 27.36,49.22 27.02,49.99 
	27.02,50.88 27.36,51.66 28.02,52.32 28.8,52.65 29.68,52.65 30.46,52.32 31.12,51.66 31.46,50.88 "/>
<polyline class="st1" points="34.89,57.42 34.11,57.53 33.45,57.97 33.01,58.64 32.78,59.3 32.9,60.08 33.23,60.74 33.78,61.29 
	34.56,61.63 35.22,61.63 36,61.29 36.55,60.74 36.88,60.08 36.99,59.3 36.77,58.64 36.33,57.97 35.67,57.53 34.89,57.42 "/>
<polyline class="st1" points="37.55,43.24 36.88,43.35 36.44,43.79 36.11,44.34 36.11,45.01 36.44,45.56 36.88,46.01 37.55,46.12 
	38.21,46.01 38.66,45.56 38.99,45.01 38.99,44.34 38.66,43.79 38.21,43.35 37.55,43.24 "/>
<polyline class="st1" points="37.55,49.11 36.88,49.22 36.44,49.66 36.22,50.33 36.33,50.88 36.66,51.43 37.22,51.77 37.88,51.77 
	38.43,51.43 38.77,50.88 38.88,50.33 38.66,49.66 38.21,49.22 37.55,49.11 "/>
<polyline class="st1" points="37.55,49.22 36.99,49.33 36.55,49.77 36.33,50.33 36.44,50.88 36.77,51.32 37.22,51.66 37.88,51.66 
	38.32,51.32 38.66,50.88 38.77,50.33 38.55,49.77 38.1,49.33 37.55,49.22 "/>
<polyline class="st1" points="37.55,49.33 36.99,49.44 36.55,49.88 36.44,50.44 36.55,50.99 36.99,51.43 37.55,51.55 38.1,51.43 
	38.55,50.99 38.66,50.44 38.55,49.88 38.1,49.44 37.55,49.33 "/>
<polyline class="st1" points="37.55,49.66 37.11,49.77 36.77,50.22 36.77,50.66 37.11,51.1 37.55,51.21 37.99,51.1 38.32,50.66 
	38.32,50.22 37.99,49.77 37.55,49.66 "/>
<polyline class="st1" points="16.72,0.14 14.62,0.25 12.4,0.7 10.41,1.36 8.41,2.36 6.64,3.58 5.09,5.02 3.65,6.57 2.43,8.34 
	1.43,10.33 0.77,12.33 0.33,14.54 0.21,16.65 "/>
<polyline class="st1" points="7.75,34.15 8.41,33.49 8.86,32.71 9.08,31.83 8.97,30.83 8.63,30.05 8.08,29.28 7.3,28.83 6.42,28.5 
	5.42,28.5 4.65,28.83 3.87,29.39 3.32,30.05 2.98,30.94 2.87,31.83 3.09,32.71 3.54,33.6 "/>
<polyline class="st1" points="12.95,35.15 13.07,35.81 13.51,36.26 14.06,36.59 14.73,36.59 15.28,36.26 15.72,35.81 15.83,35.15 
	"/>
<polyline class="st1" points="15.83,24.51 15.72,23.85 15.28,23.41 14.73,23.07 14.06,23.07 13.51,23.41 13.07,23.85 12.95,24.51 
	"/>
<polyline class="st1" points="13.62,23.41 13.18,23.85 13.07,24.51 "/>
<polyline class="st1" points="15.61,24.51 15.5,23.96 15.06,23.41 14.39,23.3 13.73,23.41 13.29,23.96 13.18,24.51 "/>
<polyline class="st1" points="13.18,35.15 13.29,35.81 13.73,36.26 14.39,36.37 14.95,36.26 15.5,35.81 15.61,35.15 "/>
<line class="st1" x1="12.95" y1="24.85" x2="12.84" y2="24.85"/>
<line class="st1" x1="7.97" y1="34.37" x2="7.53" y2="35.04"/>
<line class="st1" x1="3.65" y1="34.48" x2="3.43" y2="33.71"/>
<polyline class="st1" points="15.28,24.51 15.06,23.96 14.62,23.63 14.17,23.63 13.73,23.96 13.51,24.51 "/>
<polyline class="st1" points="13.51,35.15 13.73,35.7 14.17,36.04 14.62,36.04 15.06,35.7 15.28,35.15 "/>
<polyline class="st1" points="14.39,34.6 13.95,34.71 13.84,35.15 13.95,35.59 14.39,35.7 14.84,35.59 14.95,35.15 14.84,34.71 
	14.39,34.6 "/>
<polyline class="st1" points="14.39,32.49 13.95,32.6 13.84,33.04 13.95,33.49 14.39,33.6 14.84,33.49 14.95,33.04 14.84,32.6 
	14.39,32.49 "/>
<polyline class="st1" points="14.39,30.39 13.95,30.5 13.84,30.94 13.95,31.38 14.39,31.49 14.84,31.38 14.95,30.94 14.84,30.5 
	14.39,30.39 "/>
<polyline class="st1" points="14.39,28.17 13.95,28.28 13.84,28.72 13.95,29.17 14.39,29.28 14.84,29.17 14.95,28.72 14.84,28.28 
	14.39,28.17 "/>
<polyline class="st1" points="14.39,26.07 13.95,26.18 13.84,26.62 13.95,27.06 14.39,27.17 14.84,27.06 14.95,26.62 14.84,26.18 
	14.39,26.07 "/>
<polyline class="st1" points="14.39,23.96 13.95,24.07 13.84,24.51 13.95,24.96 14.39,25.07 14.84,24.96 14.95,24.51 14.84,24.07 
	14.39,23.96 "/>
<line class="st1" x1="17.61" y1="40.91" x2="17.94" y2="40.8"/>
<polyline class="st1" points="17.61,41.02 18.38,42.13 19.38,43.01 20.6,43.68 21.93,44.12 23.26,44.23 24.59,44.12 25.92,43.68 
	27.13,43.01 28.13,42.13 28.91,41.02 "/>
<polyline class="st1" points="28.91,34.15 28.13,33.04 27.13,32.16 25.92,31.49 24.59,31.05 23.26,30.94 21.93,31.05 20.6,31.49 
	19.38,32.16 18.38,33.04 17.61,34.15 "/>
<polyline class="st1" points="28.8,34.15 28.02,33.16 27.02,32.27 25.81,31.6 24.59,31.16 23.26,31.05 21.93,31.16 20.71,31.6 
	19.49,32.27 18.49,33.16 17.72,34.15 "/>
<polyline class="st1" points="17.72,41.02 18.49,42.02 19.49,42.9 20.71,43.57 21.93,44.01 23.26,44.12 24.59,44.01 25.81,43.57 
	27.02,42.9 28.02,42.02 28.8,41.02 "/>
<polyline class="st1" points="28.8,34.15 27.91,33.04 26.8,32.05 25.47,31.38 24.03,31.05 22.48,31.05 21.04,31.38 19.71,32.05 
	18.6,33.04 17.72,34.15 "/>
<polyline class="st1" points="17.72,41.02 18.6,42.13 19.71,43.13 21.04,43.79 22.48,44.12 24.03,44.12 25.47,43.79 26.8,43.13 
	27.91,42.13 28.8,41.02 "/>
<polyline class="st1" points="28.46,34.26 27.69,33.16 26.58,32.38 25.25,31.72 23.92,31.38 22.59,31.38 21.26,31.72 19.93,32.38 
	18.83,33.16 18.05,34.26 "/>
<polyline class="st1" points="18.05,40.91 18.83,42.02 19.93,42.79 21.26,43.46 22.59,43.79 23.92,43.79 25.25,43.46 26.58,42.79 
	27.69,42.02 28.46,40.91 "/>
<polyline class="st1" points="27.58,34.48 26.8,33.6 25.69,32.82 24.48,32.38 23.26,32.27 22.04,32.38 20.82,32.82 19.71,33.6 
	18.94,34.48 "/>
<polyline class="st1" points="18.94,40.69 19.71,41.57 20.82,42.35 22.04,42.79 23.26,42.9 24.48,42.79 25.69,42.35 26.8,41.57 
	27.58,40.69 "/>
<line class="st1" x1="22.04" y1="42.57" x2="23.26" y2="42.68"/>
<polyline class="st1" points="27.47,34.6 26.69,33.71 25.69,32.93 24.48,32.49 23.26,32.38 22.04,32.49 20.82,32.93 19.82,33.71 
	19.05,34.6 "/>
<polyline class="st1" points="19.05,40.58 19.82,41.57 20.93,42.24 22.04,42.68 "/>
<polyline class="st1" points="22.37,42.68 23.81,42.79 25.25,42.46 26.47,41.69 27.47,40.58 "/>
<polyline class="st1" points="21.93,32.93 20.82,33.38 19.82,34.15 19.05,35.15 "/>
<polyline class="st1" points="19.05,38.58 19.49,39.58 20.16,40.58 21.04,41.24 22.15,41.8 23.26,41.91 24.37,41.8 25.47,41.24 
	26.36,40.58 27.02,39.58 27.47,38.58 "/>
<polyline class="st1" points="27.47,36.59 27.02,35.59 26.36,34.6 25.47,33.93 24.37,33.38 23.26,33.27 22.15,33.38 21.04,33.93 
	20.16,34.6 19.49,35.59 19.05,36.59 "/>
<polyline class="st1" points="20.6,36.04 20.27,36.92 20.16,37.81 20.38,38.69 20.82,39.47 21.48,40.13 22.37,40.58 23.26,40.69 
	24.14,40.58 25.03,40.13 25.69,39.47 26.14,38.69 26.36,37.81 26.25,36.92 25.92,36.04 "/>
<line class="st1" x1="46.3" y1="40.91" x2="46.63" y2="40.8"/>
<polyline class="st1" points="34.56,3.8 33.78,4.02 33.23,4.57 32.9,5.35 33.01,6.12 33.34,6.79 34,7.23 34.78,7.34 "/>
<line class="st1" x1="28.91" y1="34.15" x2="28.57" y2="34.26"/>
<polyline class="st1" points="46.08,62.96 46.96,62.73 47.74,62.29 48.18,61.52 48.41,60.63 "/>
<polyline class="st1" points="46.08,62.73 46.85,62.62 47.52,62.07 48.07,61.4 48.18,60.63 "/>
<polyline class="st1" points="40.65,71.26 41.31,71.04 41.87,70.6 42.2,70.05 42.31,69.38 42.09,68.72 41.65,68.16 41.09,67.83 
	40.43,67.72 "/>
<polyline class="st1" points="48.41,58.52 48.18,57.64 47.74,56.86 46.96,56.42 46.08,56.2 "/>
<polyline class="st1" points="40.32,57.42 39.54,57.53 38.88,57.97 38.43,58.64 38.21,59.3 38.32,60.08 38.66,60.74 39.21,61.29 
	39.99,61.63 40.65,61.63 41.43,61.29 41.98,60.74 42.31,60.08 42.42,59.3 42.2,58.64 41.76,57.97 41.09,57.53 40.32,57.42 "/>
<polyline class="st1" points="45.75,57.42 44.97,57.53 44.31,57.97 43.86,58.64 43.64,59.3 43.75,60.08 44.08,60.74 44.64,61.29 
	45.41,61.63 46.08,61.63 46.85,61.29 47.41,60.74 47.74,60.08 47.85,59.3 47.63,58.64 47.19,57.97 46.52,57.53 45.75,57.42 "/>
<polyline class="st1" points="48.18,58.52 48.07,57.75 47.52,57.08 46.85,56.53 46.08,56.42 "/>
<polyline class="st1" points="45.97,48.11 45.19,48.22 44.53,48.66 43.97,49.33 43.64,49.99 43.64,50.88 43.97,51.66 44.53,52.21 
	45.19,52.65 45.97,52.76 46.74,52.65 47.41,52.21 47.96,51.55 48.29,50.88 48.29,49.99 47.96,49.22 47.41,48.66 46.74,48.22 
	45.97,48.11 "/>
<polyline class="st1" points="43.86,51.1 44.2,51.77 44.75,52.32 45.52,52.65 46.3,52.65 47.08,52.43 47.63,51.88 48.07,51.21 
	48.18,50.44 48.07,49.66 47.63,49 47.08,48.44 46.3,48.22 45.52,48.22 44.75,48.55 44.2,49.11 43.86,49.77 43.86,51.1 "/>
<line class="st1" x1="48.18" y1="50.88" x2="48.18" y2="49.99"/>
<polyline class="st1" points="48.18,49.99 47.85,49.22 47.19,48.55 46.41,48.22 45.52,48.22 44.75,48.55 44.08,49.22 43.75,49.99 
	43.75,50.88 44.08,51.66 44.75,52.32 45.52,52.65 46.41,52.65 47.19,52.32 47.85,51.66 48.18,50.88 "/>
<polyline class="st1" points="55.61,48.11 54.83,48.22 54.17,48.66 53.61,49.33 53.28,49.99 53.28,50.88 53.61,51.66 54.17,52.21 
	54.83,52.65 55.61,52.76 56.38,52.65 57.05,52.21 57.6,51.55 57.93,50.88 57.93,49.99 57.6,49.22 57.05,48.66 56.38,48.22 
	55.61,48.11 "/>
<polyline class="st1" points="53.5,51.1 53.83,51.77 54.39,52.32 55.16,52.65 55.94,52.65 56.71,52.43 57.27,51.88 57.71,51.21 
	57.82,50.44 57.71,49.66 57.27,49 56.71,48.44 55.94,48.22 55.16,48.22 54.39,48.55 53.83,49.11 53.5,49.77 53.5,51.1 "/>
<line class="st1" x1="57.82" y1="50.88" x2="57.82" y2="49.99"/>
<polyline class="st1" points="57.82,49.99 57.49,49.22 56.82,48.55 56.05,48.22 55.16,48.22 54.39,48.55 53.72,49.22 53.39,49.99 
	53.39,50.88 53.72,51.66 54.39,52.32 55.16,52.65 56.05,52.65 56.82,52.32 57.49,51.66 57.82,50.88 "/>
<line class="st1" x1="57.6" y1="34.15" x2="57.27" y2="34.26"/>
<polyline class="st1" points="58.49,74.92 60.59,74.81 62.81,74.37 64.8,73.7 66.8,72.7 68.57,71.49 70.12,70.05 71.56,68.5 
	72.78,66.72 73.77,64.73 74.44,62.73 74.88,60.52 74.99,58.41 "/>
<polyline class="st1" points="67.35,40.91 66.68,41.57 66.24,42.35 66.02,43.24 66.13,44.23 66.46,45.01 67.02,45.78 67.79,46.23 
	68.68,46.56 69.68,46.56 70.45,46.23 71.23,45.67 71.78,45.01 72.11,44.12 72.22,43.24 72,42.35 71.56,41.46 "/>
<line class="st1" x1="67.24" y1="40.69" x2="67.68" y2="40.02"/>
<line class="st1" x1="71.56" y1="40.69" x2="71.78" y2="41.46"/>
<polyline class="st1" points="34.45,71.38 37.55,71.49 40.65,71.38 "/>
<polyline class="st1" points="3.76,34.48 3.65,37.59 3.76,40.69 "/>
<polyline class="st1" points="40.65,3.8 37.55,3.69 34.45,3.8 "/>
<polyline class="st1" points="71.34,40.69 71.45,37.59 71.34,34.48 "/>
<line class="st1" x1="35.11" y1="67.61" x2="40.32" y2="67.61"/>
<line class="st1" x1="7.53" y1="35.15" x2="7.53" y2="40.36"/>
<line class="st1" x1="39.99" y1="7.56" x2="34.78" y2="7.56"/>
<line class="st1" x1="67.57" y1="40.02" x2="67.57" y2="34.82"/>
<polyline class="st1" points="46.3,41.02 47.08,42.13 48.07,43.01 49.29,43.68 50.62,44.12 51.95,44.23 53.28,44.12 54.61,43.68 
	55.83,43.01 56.82,42.13 57.6,41.02 "/>
<polyline class="st1" points="57.6,34.15 56.82,33.04 55.83,32.16 54.61,31.49 53.28,31.05 51.95,30.94 50.62,31.05 49.29,31.49 
	48.07,32.16 47.08,33.04 46.3,34.15 "/>
<polyline class="st1" points="57.49,34.15 56.71,33.16 55.72,32.27 54.5,31.6 53.28,31.16 51.95,31.05 50.62,31.16 49.4,31.6 
	48.18,32.27 47.19,33.16 46.41,34.15 "/>
<polyline class="st1" points="57.49,41.02 56.6,42.13 55.5,43.13 54.17,43.79 52.73,44.12 51.17,44.12 49.73,43.79 48.41,43.13 
	47.3,42.13 46.41,41.02 47.19,42.02 48.18,42.9 49.4,43.57 50.62,44.01 51.95,44.12 53.28,44.01 54.5,43.57 55.72,42.9 56.71,42.02 
	57.49,41.02 "/>
<polyline class="st1" points="57.49,34.15 56.6,33.04 55.5,32.05 54.17,31.38 52.73,31.05 51.17,31.05 49.73,31.38 48.41,32.05 
	47.3,33.04 46.41,34.15 "/>
<polyline class="st1" points="57.16,34.26 56.38,33.16 55.27,32.38 53.94,31.72 52.61,31.38 51.29,31.38 49.96,31.72 48.63,32.38 
	47.52,33.16 46.74,34.26 "/>
<polyline class="st1" points="46.74,40.91 47.52,42.02 48.63,42.79 49.96,43.46 51.29,43.79 52.61,43.79 53.94,43.46 55.27,42.79 
	56.38,42.02 57.16,40.91 "/>
<polyline class="st1" points="56.27,34.48 55.5,33.6 54.39,32.82 53.17,32.38 51.95,32.27 50.73,32.38 49.51,32.82 48.41,33.6 
	47.63,34.48 "/>
<polyline class="st1" points="47.63,40.69 48.41,41.57 49.51,42.35 50.73,42.79 51.95,42.9 53.17,42.79 54.39,42.35 55.5,41.57 
	56.27,40.69 "/>
<line class="st1" x1="50.73" y1="42.57" x2="51.95" y2="42.68"/>
<polyline class="st1" points="56.16,34.6 55.38,33.71 54.39,32.93 53.17,32.49 51.95,32.38 50.73,32.49 49.51,32.93 48.52,33.71 
	47.74,34.6 "/>
<polyline class="st1" points="47.74,40.58 48.52,41.57 49.62,42.24 50.73,42.68 "/>
<polyline class="st1" points="51.06,42.68 52.5,42.79 53.94,42.46 55.16,41.69 56.16,40.58 "/>
<polyline class="st1" points="50.62,32.93 49.51,33.38 48.52,34.15 47.74,35.15 "/>
<polyline class="st1" points="47.74,38.58 48.18,39.58 48.85,40.58 49.73,41.24 50.84,41.8 51.95,41.91 53.06,41.8 54.17,41.24 
	55.05,40.58 55.72,39.58 56.16,38.58 "/>
<polyline class="st1" points="56.16,36.59 55.72,35.59 55.05,34.6 54.17,33.93 53.06,33.38 51.95,33.27 50.84,33.38 49.73,33.93 
	48.85,34.6 48.18,35.59 47.74,36.59 "/>
<polyline class="st1" points="49.29,36.04 48.96,36.92 48.85,37.81 49.07,38.69 49.51,39.47 50.18,40.13 51.06,40.58 51.95,40.69 
	52.84,40.58 53.72,40.13 54.39,39.47 54.83,38.69 55.05,37.81 54.94,36.92 54.61,36.04 "/>
<line class="st1" x1="28.57" y1="40.8" x2="28.91" y2="40.91"/>
<polyline class="st1" points="40.98,7.79 41.65,8.45 42.42,8.89 43.31,9.12 44.31,9 45.08,8.67 45.86,8.12 46.3,7.34 46.63,6.46 
	46.63,5.46 46.3,4.68 45.75,3.91 45.08,3.35 44.2,3.02 43.31,2.91 42.42,3.13 41.54,3.58 "/>
<line class="st1" x1="40.76" y1="7.9" x2="40.1" y2="7.45"/>
<line class="st1" x1="40.65" y1="3.58" x2="41.43" y2="3.35"/>
<polyline class="st1" points="74.99,16.65 74.88,14.54 74.44,12.33 73.77,10.33 72.78,8.34 71.56,6.57 70.12,5.02 68.57,3.58 
	66.8,2.36 64.8,1.36 62.81,0.7 60.59,0.25 58.49,0.14 "/>
<polyline class="st1" points="71.34,34.48 71.12,33.71 70.56,33.16 69.79,32.82 69.01,32.93 68.35,33.27 67.9,33.93 67.79,34.71 "/>
<polyline class="st1" points="59.37,35.15 59.48,35.81 59.93,36.26 60.48,36.59 61.15,36.59 61.7,36.26 62.14,35.81 62.25,35.15 "/>
<polyline class="st1" points="62.25,24.51 62.14,23.85 61.7,23.41 61.15,23.07 60.48,23.07 59.93,23.41 59.48,23.85 59.37,24.51 "/>
<polyline class="st1" points="62.14,24.51 62.03,23.85 61.59,23.41 "/>
<polyline class="st1" points="62.03,24.51 61.92,23.96 61.48,23.41 60.81,23.3 60.15,23.41 59.7,23.96 59.59,24.51 "/>
<polyline class="st1" points="59.59,35.15 59.7,35.81 60.15,36.26 60.81,36.37 61.37,36.26 61.92,35.81 62.03,35.15 "/>
<line class="st1" x1="62.36" y1="24.85" x2="62.25" y2="24.85"/>
<polyline class="st1" points="59.93,35.15 60.15,35.7 60.59,36.04 61.03,36.04 61.48,35.7 61.7,35.15 "/>
<polyline class="st1" points="61.7,24.51 61.48,23.96 61.03,23.63 60.59,23.63 60.15,23.96 59.93,24.51 "/>
<polyline class="st1" points="60.81,34.6 60.37,34.71 60.26,35.15 60.37,35.59 60.81,35.7 61.26,35.59 61.37,35.15 61.26,34.71 
	60.81,34.6 "/>
<polyline class="st1" points="60.81,32.49 60.37,32.6 60.26,33.04 60.37,33.49 60.81,33.6 61.26,33.49 61.37,33.04 61.26,32.6 
	60.81,32.49 "/>
<polyline class="st1" points="60.81,30.39 60.37,30.5 60.26,30.94 60.37,31.38 60.81,31.49 61.26,31.38 61.37,30.94 61.26,30.5 
	60.81,30.39 "/>
<polyline class="st1" points="60.81,28.17 60.37,28.28 60.26,28.72 60.37,29.17 60.81,29.28 61.26,29.17 61.37,28.72 61.26,28.28 
	60.81,28.17 "/>
<polyline class="st1" points="60.81,26.07 60.37,26.18 60.26,26.62 60.37,27.06 60.81,27.17 61.26,27.06 61.37,26.62 61.26,26.18 
	60.81,26.07 "/>
<polyline class="st1" points="60.81,23.96 60.37,24.07 60.26,24.51 60.37,24.96 60.81,25.07 61.26,24.96 61.37,24.51 61.26,24.07 
	60.81,23.96 "/>
<line class="st1" x1="57.27" y1="40.8" x2="57.6" y2="40.91"/>
<polyline class="st0" points="56.27,34.82 55.38,33.93 54.39,33.16 53.17,32.71 51.95,32.6 50.62,32.82 "/>
<polyline class="st0" points="51.95,42.79 53.17,42.57 54.39,42.13 55.38,41.35 56.27,40.36 "/>
<polyline class="st0" points="27.58,34.82 26.69,33.93 25.69,33.16 24.48,32.71 23.26,32.6 21.93,32.82 "/>
<polyline class="st0" points="23.26,42.79 24.48,42.57 25.69,42.13 26.69,41.35 27.58,40.36 "/>
<line class="st0" x1="11.74" y1="22.08" x2="12.29" y2="21.19"/>
<line class="st0" x1="21.26" y1="12.22" x2="22.04" y2="11.77"/>
<line class="st0" x1="53.94" y1="62.85" x2="53.06" y2="63.4"/>
<line class="st0" x1="62.92" y1="21.19" x2="63.47" y2="22.08"/>
<line class="st0" x1="63.47" y1="53.1" x2="62.92" y2="53.87"/>
<line class="st0" x1="53.06" y1="11.77" x2="53.94" y2="12.22"/>
<line class="st0" x1="22.04" y1="63.4" x2="21.26" y2="62.85"/>
<line class="st0" x1="12.29" y1="53.87" x2="11.74" y2="53.1"/>
<line class="st0" x1="60.59" y1="32.93" x2="60.59" y2="32.93"/>
<line class="st0" x1="14.62" y1="32.93" x2="14.62" y2="32.93"/>
<line class="st0" x1="60.59" y1="30.94" x2="60.59" y2="30.94"/>
<line class="st0" x1="14.62" y1="30.94" x2="14.62" y2="30.94"/>
<line class="st0" x1="62.14" y1="24.07" x2="62.14" y2="23.96"/>
<line class="st0" x1="13.07" y1="23.96" x2="13.07" y2="24.07"/>
</svg>
