<?xml version="1.0" encoding="iso-8859-1"?>
<!-- Generator: Adobe Illustrator 19.0.0, SVG Export Plug-In . SVG Version: 6.00 Build 0)  -->
<svg version="1.1" id="Capa_1" xmlns="http://www.w3.org/2000/svg" xmlns:xlink="http://www.w3.org/1999/xlink" x="0px" y="0px"
	 viewBox="0 0 58 58" style="enable-background:new 0 0 58 58;" xml:space="preserve">
<g>
	<g>
		<path d="M16,14.37c0-1.307-1.063-2.37-2.37-2.37h-1.26C11.063,12,10,13.063,10,14.37v6.26c0,1.307,1.063,2.37,2.37,2.37h1.26
			c1.307,0,2.37-1.063,2.37-2.37V14.37z M14,20.63c0,0.2-0.17,0.37-0.37,0.37h-1.26c-0.2,0-0.37-0.17-0.37-0.37v-6.26
			c0-0.2,0.17-0.37,0.37-0.37h1.26c0.2,0,0.37,0.17,0.37,0.37V20.63z"/>
		<path d="M25.63,12h-1.26C23.063,12,22,13.063,22,14.37v6.26c0,1.307,1.063,2.37,2.37,2.37h1.26c1.307,0,2.37-1.063,2.37-2.37
			v-6.26C28,13.063,26.937,12,25.63,12z M26,20.63c0,0.2-0.17,0.37-0.37,0.37h-1.26c-0.2,0-0.37-0.17-0.37-0.37v-6.26
			c0-0.2,0.17-0.37,0.37-0.37h1.26c0.2,0,0.37,0.17,0.37,0.37V20.63z"/>
		<path d="M20.336,23h-2.672C16.746,23,16,23.746,16,24.664v2.672C16,28.254,16.746,29,17.664,29h2.672
			C21.254,29,22,28.254,22,27.336v-2.672C22,23.746,21.254,23,20.336,23z M20,27h-2v-2h2V27z"/>
		<path d="M55.15,28H54v-8.5c0-1.379-1.121-2.5-2.5-2.5S49,18.121,49,19.5V28h-2v-5h-5v5h-2v-8.5c0-1.208-0.86-2.217-2-2.449V2H0v36
			h31v3.764C31,45.202,33.798,48,37.236,48H41v4h1.816c-0.414,1.161-1.514,2-2.816,2h-5c-1.654,0-3-1.346-3-3v-1
			c0-3.859-3.141-7-7-7h-1c-3.859,0-7,3.141-7,7c0,0.553,0.447,1,1,1s1-0.447,1-1c0-2.757,2.243-5,5-5h1c2.757,0,5,2.243,5,5v1
			c0,2.757,2.243,5,5,5h5c2.414,0,4.434-1.721,4.899-4H48v-4h3.764C55.202,48,58,45.202,58,41.764V30.85
			C58,29.278,56.722,28,55.15,28z M51,19.5c0-0.275,0.225-0.5,0.5-0.5s0.5,0.225,0.5,0.5V28v2h-1v-2V19.5z M44,25h1v3v2h-1v-2V25z
			 M42,30v2h5v-2h2v2h5v-2h1.15c0.469,0,0.85,0.381,0.85,0.85V33H33v-2.117C33,30.396,33.396,30,33.883,30H35v2h5v-2H42z
			 M30.521,28.388C30.172,29.352,29.247,30,28.22,30H10.053c-1.026,0-1.951-0.648-2.303-1.613c-1.967-5.408-1.967-11.365,0-16.773
			C8.102,10.648,9.026,10,10.053,10H28.22c1.027,0,1.952,0.648,2.303,1.613C32.489,17.021,32.489,22.979,30.521,28.388z M38,30h-1
			v-2v-8.5c0-0.065,0.014-0.127,0.037-0.185c0.008-0.019,0.02-0.033,0.029-0.05c0.017-0.032,0.036-0.062,0.06-0.089
			c0.022-0.024,0.046-0.045,0.071-0.064c0.015-0.012,0.031-0.022,0.047-0.032c0.03-0.018,0.061-0.036,0.091-0.046l0.006-0.002
			C37.392,19.015,37.444,19,37.5,19c0.275,0,0.5,0.225,0.5,0.5V28V30z M2,36V4h34v13.507c-0.017,0.013-0.029,0.03-0.046,0.043
			c-0.118,0.094-0.226,0.196-0.326,0.309c-0.03,0.034-0.057,0.068-0.085,0.103c-0.085,0.108-0.159,0.221-0.226,0.342
			c-0.023,0.042-0.048,0.082-0.068,0.126c-0.06,0.125-0.106,0.255-0.144,0.391c-0.012,0.043-0.03,0.084-0.04,0.128
			C35.026,19.126,35,19.31,35,19.5V28h-1.117c-0.444,0-0.86,0.109-1.236,0.289c1.855-5.639,1.788-11.768-0.245-17.358
			C31.766,9.178,30.085,8,28.22,8H10.053c-1.864,0-3.545,1.178-4.182,2.93c-2.128,5.849-2.128,12.292,0,18.141
			C6.508,30.822,8.188,32,10.053,32H28.22c1.035,0,2.006-0.372,2.78-0.995V36H2z M46,50h-3v-2h3V50z M51.764,46H48h-7h-3.764
			C34.9,46,33,44.1,33,41.764V38v-3h23v6.764C56,44.1,54.1,46,51.764,46z"/>
	</g>
</g>
<g>
</g>
<g>
</g>
<g>
</g>
<g>
</g>
<g>
</g>
<g>
</g>
<g>
</g>
<g>
</g>
<g>
</g>
<g>
</g>
<g>
</g>
<g>
</g>
<g>
</g>
<g>
</g>
<g>
</g>
</svg>
