<?xml version="1.0" encoding="iso-8859-1"?>
<!-- Generator: Adobe Illustrator 17.1.0, SVG Export Plug-In . SVG Version: 6.00 Build 0)  -->
<!DOCTYPE svg PUBLIC "-//W3C//DTD SVG 1.1//EN" "http://www.w3.org/Graphics/SVG/1.1/DTD/svg11.dtd">
<svg version="1.1" id="Capa_1" xmlns="http://www.w3.org/2000/svg" xmlns:xlink="http://www.w3.org/1999/xlink" x="0px" y="0px"
	 viewBox="0 0 182.381 182.381" style="enable-background:new 0 0 182.381 182.381;" xml:space="preserve">
<path style="fill:#000002;" d="M179.67,162.386H59.164c-18.037,0-32.711-14.674-32.711-32.71V94.709h-0.167
	c-11.487,0-20.833-9.346-20.833-20.833V52.183H2.5c-1.381,0-2.5-1.119-2.5-2.5s1.119-2.5,2.5-2.5h11.12V27.438
	c0-1.381,1.119-2.5,2.5-2.5s2.5,1.119,2.5,2.5v19.746h20.666V27.438c0-1.381,1.119-2.5,2.5-2.5s2.5,1.119,2.5,2.5v19.746h11.12
	c1.381,0,2.5,1.119,2.5,2.5s-1.119,2.5-2.5,2.5h-2.953v21.692c0,11.487-9.346,20.833-20.833,20.833h-0.167v34.967
	c0,15.28,12.431,27.71,27.711,27.71H179.67c1.381,0,2.5,1.119,2.5,2.5S181.051,162.386,179.67,162.386z M28.953,89.709h2.667
	c8.73,0,15.833-7.103,15.833-15.833V52.183h-37v21.692c0,8.73,7.103,15.833,15.833,15.833H28.953z M168.214,132.328h-84
	c-7.812,0-14.167-6.355-14.167-14.167v-84c0-7.812,6.355-14.167,14.167-14.167h84c7.812,0,14.167,6.355,14.167,14.167v84
	C182.381,125.973,176.025,132.328,168.214,132.328z M84.214,24.995c-5.055,0-9.167,4.112-9.167,9.167v84
	c0,5.055,4.112,9.167,9.167,9.167h84c5.055,0,9.167-4.112,9.167-9.167v-84c0-5.054-4.112-9.167-9.167-9.167H84.214z
	 M126.214,110.083c-18.704,0-33.921-15.217-33.921-33.921S107.51,42.24,126.214,42.24c18.705,0,33.922,15.217,33.922,33.921
	S144.919,110.083,126.214,110.083z M126.214,47.24c-15.947,0-28.921,12.974-28.921,28.921s12.974,28.921,28.921,28.921
	s28.922-12.974,28.922-28.921S142.161,47.24,126.214,47.24z M143.454,85.335h-7.807c-1.381,0-2.5-1.119-2.5-2.5V69.488
	c0-1.381,1.119-2.5,2.5-2.5h7.807c1.381,0,2.5,1.119,2.5,2.5v13.347C145.954,84.216,144.835,85.335,143.454,85.335z M138.147,80.335
	h2.807v-8.347h-2.807V80.335z M116.78,85.335h-7.807c-1.381,0-2.5-1.119-2.5-2.5V69.488c0-1.381,1.119-2.5,2.5-2.5h7.807
	c1.381,0,2.5,1.119,2.5,2.5v13.347C119.28,84.216,118.161,85.335,116.78,85.335z M111.474,80.335h2.807v-8.347h-2.807V80.335z"/>
<g>
</g>
<g>
</g>
<g>
</g>
<g>
</g>
<g>
</g>
<g>
</g>
<g>
</g>
<g>
</g>
<g>
</g>
<g>
</g>
<g>
</g>
<g>
</g>
<g>
</g>
<g>
</g>
<g>
</g>
</svg>
