<?xml version="1.0" encoding="utf-8"?>
<!-- Generator: Adobe Illustrator 24.0.0, SVG Export Plug-In . SVG Version: 6.00 Build 0)  -->
<svg version="1.1" id="图层_1" xmlns="http://www.w3.org/2000/svg" xmlns:xlink="http://www.w3.org/1999/xlink" x="0px" y="0px"
	 viewBox="0 0 15931.4 14812.3" style="enable-background:new 0 0 15931.4 14812.3;" xml:space="preserve">
<style type="text/css">
	.st0{fill:#121F42;}
	.st1{fill:#FFFFFF;}
	.st2{fill:#A0C53F;}
</style>
<g>
	<path class="st0" d="M2721.9,7646.8l680.7-546.2c39.4-311.8,211.8-547.9,474.3-665.9H3716h-25.1H1918.1l-136.3,381.6h1426.6
		l-1115.1,881.9l-123.7,346.3h190.9h65.7l1450.8,6.4l-195.2-404.1L2721.9,7646.8L2721.9,7646.8z"/>
	<g>
		<path class="st0" d="M1839.9,8043.7c-0.1,0.4-0.6,0.7-1.1,0.7h-497.1c-0.4,0-0.7-0.3-0.5-0.7L1780,6815c0.1-0.4-0.1-0.7-0.5-0.7
			h-1.3c-0.4,0-0.7-0.3-0.5-0.7l137.8-382.7c0.1-0.4,0.6-0.7,1.1-0.7h1.3c0.4,0,0.9-0.3,1.1-0.7l203.5-572.8
			c0.1-0.4,0.6-0.7,1.1-0.7h497.1c0.4,0,0.7,0.3,0.5,0.7L1839.9,8043.7z"/>
	</g>
	<polygon class="st0" points="1622.8,6814.3 1107,6814.3 1245.3,6430.1 1761.1,6430.1 	"/>
	<g>
		<path class="st0" d="M674.8,8070c-0.1,0.4-0.6,0.7-1.1,0.7H176.6c-0.4,0-0.7-0.3-0.5-0.7l781.1-2187.2c0.1-0.4,0.6-0.7,1.1-0.7
			h497.1c0.4,0,0.7,0.3,0.5,0.7L674.8,8070z"/>
	</g>
	<polygon class="st1" points="2383.8,6929.4 1556.3,6929.4 1556.3,6833 2384,6834.6 	"/>
	<g>
		<path class="st2" d="M3724.9,7622.6c-9.5-78.7-15.4-211.6,30.5-364.9c25.9-86.4,85.3-274.8,269.6-413.2
			c50.3-37.8,247.5-185.8,511.3-136.6c245.4,45.8,376.1,230.3,402.7,269.6c124.2,1.4,248.4,2.7,372.7,4.1
			c-125.9-321.9-433.4-550.1-792.6-550.1c-347,0-646.3,212.7-779.7,517.2c-70.5,160.8-74.2,316-74.1,355.6
			C3665.4,7444.1,3698.8,7554.9,3724.9,7622.6z"/>
		<g>
			<path class="st2" d="M3963.1,8073.1h1123.7c51.5,0,93.6-36.1,93.6-80.3l0,0c0-44.1-42.1-80.3-93.6-80.3H3963.1
				c-51.5,0-93.6,36.1-93.6,80.3l0,0C3869.5,8037,3911.6,8073.1,3963.1,8073.1z"/>
		</g>
		<g>
			<path class="st2" d="M5030,8149.8c-14.4,129.1-227.7,231.5-488.8,231.5s-474.4-102.4-488.8-231.5H5030z"/>
		</g>
		<g>
			<path class="st2" d="M3848,7825.9h1380.3c51.5,0,93.6-36.1,93.6-80.3l0,0c0-44.2-42.1-80.3-93.6-80.3H3848
				c-51.5,0-93.6,36.1-93.6,80.3l0,0C3754.4,7789.8,3796.5,7825.9,3848,7825.9z"/>
		</g>
	</g>
	<g>
		<path class="st0" d="M6395.2,7679.5c0,0,23.7,22.3,71.2,66.9c55.1,51.2,120.1,84.9,195.1,101c72.1,15.2,143.7,11.9,214.9-9.9
			c70.3-21.8,129.5-59.4,178-112.5l8.6-8.6h361.5l-18.5,38.4c-62.6,128.2-152.7,229.3-270.5,303.3
			c-115.8,72.1-244.4,108.2-385.7,108.2c-97.8,0-191.7-19-281.9-56.9c-86.4-36.1-163.3-86.9-230.6-152.4
			c-68.3-65.5-121-140.5-158-224.9c-38.9-88.3-58.4-179.4-58.4-273.4v-1.4v-12.8c2.8-229.7,80.2-412.8,232-549.5
			c66.5-60.7,143.4-107.2,230.6-139.5c84.4-31.4,172.7-47,264.8-47h9.9c28.5,0.9,57.5,3.4,86.9,7.1
			c173.6,23.7,320.3,99.2,439.8,226.4c131.9,139.5,196.5,309.4,193.6,509.6c0,35.1-2.8,71.2-8.6,108.2l-2.8,22.8h-22.8H6358.2
			C6382.9,7647.2,6395.2,7679.5,6395.2,7679.5z M7151.1,7312.1c-10.5-33.2-26.1-65.9-46.9-98.2c-26.6-41.7-58.4-77.8-95.4-108.2
			c-72.2-57-158.6-86.4-259.1-88.3c-96.8-0.9-182.3,28.5-256.3,88.3c-73.1,57.9-121.5,126.6-145.2,206.4H7151.1z"/>
		<path class="st0" d="M8339.2,7786.2l15.7-12.8l15.6,12.8l202.2,179.4l19.9,15.6l-18.5,18.5c-10.5,10.4-21.4,20.4-32.7,29.9
			c-11.4,10.4-23.3,19.9-35.5,28.5c-66.5,48.4-140,80.6-220.7,96.8c-80.6,16.1-161.3,14.6-242-4.3
			c-126.2-29.4-230.1-94.9-311.7-196.5c-75.9-95.9-116.7-204.1-122.5-324.6h-1.4v-930.1h316v901.7c0,57,18,108.2,54.1,153.7
			c36.1,45.6,82.1,75,138.1,88.3c39.8,9.5,78.7,9.5,116.7,0c38.9-10.4,73.5-28.5,103.9-54.1L8339.2,7786.2z"/>
		<path class="st0" d="M8882.9,7679.5c0,0,23.7,22.3,71.2,66.9c55.1,51.2,120.1,84.9,195.1,101c72.1,15.2,143.7,11.9,214.9-9.9
			c70.3-21.8,129.5-59.4,178-112.5l8.5-8.6h361.5l-18.5,38.4c-62.6,128.2-152.7,229.3-270.5,303.3
			c-115.8,72.1-244.4,108.2-385.7,108.2c-97.8,0-191.7-19-281.9-56.9c-86.4-36.1-163.3-86.9-230.6-152.4
			c-68.3-65.5-121-140.5-158-224.9c-38.9-88.3-58.4-179.4-58.4-273.4v-1.4v-12.8c2.8-229.7,80.2-412.8,232-549.5
			c66.5-60.7,143.4-107.2,230.6-139.5c84.5-31.4,172.7-47,264.8-47h9.9c28.6,0.9,57.5,3.4,86.9,7.1
			c173.6,23.7,320.3,99.2,439.8,226.4c131.9,139.5,196.5,309.4,193.6,509.6c0,35.1-2.8,71.2-8.6,108.2l-2.8,22.8h-22.8h-1086
			C8870.6,7647.2,8882.9,7679.5,8882.9,7679.5z M9638.8,7312.1c-10.5-33.2-26.1-65.9-46.9-98.2c-26.6-41.7-58.4-77.8-95.4-108.2
			c-72.2-57-158.5-86.4-259.1-88.3c-96.8-0.9-182.3,28.5-256.3,88.3c-73.1,57.9-121.6,126.6-145.2,206.4H9638.8z"/>
		<path class="st0" d="M12025.3,7760.6h-1.5v-22.7v-543.8h-358.7v-314.7h358.7v-174.2h313.2v174.2h400V7194h-400v539.5
			c0.9,27.5,10.5,52.2,28.5,74c18,21.8,41.3,36.1,69.8,42.7c23.6,5.6,46.9,4.7,69.7-2.9c22.7-8.6,42.2-22.3,58.4-41.3l12.8-15.6
			l17.1,11.4l227.7,138.1l21.4,12.8l-14.2,19.9c-51.3,75-119.6,129.5-205,163.7c-84.5,32.3-171.4,38-260.5,17.1
			c-96.8-22.7-176.5-72.6-239.2-149.5C12065.6,7932.8,12032.8,7851.7,12025.3,7760.6z"/>
		<path class="st0" d="M13288.8,6707.1V6868c51.3-31.4,105.8-56.4,163.7-75.4c73.1-22.8,148.1-34.2,224.9-34.2h27.1V7110h-27.1
			c-107.2,0-198.8,37.9-274.7,113.9c-75.9,75.9-113.9,167.5-113.9,274.7v667.6h-351.5V6707.1H13288.8z"/>
		<path class="st0" d="M13891.8,6703.4h355.9v357.3h-355.9V6703.4z M14247.7,7285.6v880.7h-355.9v-880.7H14247.7z"/>
	</g>
	<path class="st2" d="M4886.6,7289.3"/>
	<g>
		<path class="st2" d="M10520.8,6825.8c-246,118.9-388.2,378.2-376.4,603.4c22.9,438.5,517.1,729.6,923.9,621.4
			c93.6-24.9,181.6-70.1,260.9-125.1c3.6-2.5,67-48,65.4-50.3l110.3,130.7l-0.7-576.7l-471.6,14.6c0,0,83.9,113.1,84.1,113.3
			c20.2,27.4-99.6,92.9-116.1,102.8c-173.4,104.1-402.9,53.6-531.5-96.8c-81.9-95.8-126.6-221.6-125.2-347.5
			c1.4-130.8,57.2-251.1,137-352.5C10492,6849.1,10504.3,6833.8,10520.8,6825.8z"/>
		<path class="st2" d="M11102.1,7187.9c0,0,252-277.6,252.3-277.9c5.4-11.5-101.6-68.2-111.8-74.1
			c-230.8-133.3-545.4-124.4-721.7,94.2c-80.2,99.3-119.6,232.5-95.5,359c25.5,133.9,128.5,236.9,241.7,304.5
			c-42.9-25.6-63.7-151.8-68.1-194.3c-13.4-131.4,83.9-273.8,214.7-304.8C10915,7070.6,11029.7,7115.5,11102.1,7187.9z"/>
	</g>
	<g>
		<path class="st2" d="M14800,6895.9c-246,118.9-388.2,378.2-376.4,603.4c22.9,438.5,517.1,729.6,923.9,621.4
			c93.6-24.9,181.6-70.1,260.9-125.1c3.6-2.5,67-48,65.4-50.3l110.3,130.7l-0.7-576.7l-471.6,14.6c0,0,83.9,113.1,84.1,113.3
			c20.2,27.4-99.6,92.9-116.1,102.8c-173.4,104.1-402.9,53.6-531.5-96.8c-81.9-95.8-126.6-221.6-125.2-347.5
			c1.4-130.8,57.2-251.1,137-352.5C14771.3,6919.2,14783.5,6903.8,14800,6895.9z"/>
		<path class="st2" d="M15381.4,7257.9c0,0,252-277.6,252.3-277.9c5.4-11.5-101.6-68.2-111.8-74.1
			c-230.8-133.3-545.4-124.4-721.7,94.2c-80.2,99.3-119.6,232.5-95.5,359c25.5,133.9,128.5,236.9,241.7,304.5
			c-42.9-25.6-63.7-151.8-68.1-194.3c-13.4-131.4,83.9-273.8,214.7-304.8C15194.2,7140.7,15308.9,7185.5,15381.4,7257.9z"/>
	</g>
</g>
</svg>
