<?xml version="1.0" encoding="utf-8"?>
<!-- Generator: Adobe Illustrator 24.0.0, SVG Export Plug-In . SVG Version: 6.00 Build 0)  -->
<svg version="1.1" id="图层_1" xmlns="http://www.w3.org/2000/svg" xmlns:xlink="http://www.w3.org/1999/xlink" x="0px" y="0px"
	 viewBox="0 0 141.73 141.73" style="enable-background:new 0 0 141.73 141.73;" xml:space="preserve">
<style type="text/css">
	.st0{fill:none;stroke:#000000;stroke-width:0.5;stroke-linecap:round;stroke-linejoin:round;stroke-miterlimit:10;}
</style>
<path class="st0" d="M16.05,25.59l11.94-9.96 M15.67,28.62l0.37-0.25"/>
<path class="st0" d="M14.18,106.81l1.87-81.22 M13.81,110.97l1.87-82.36 M116.08,27.23L36.58,11.84 M36.58,8.69l79.51,15.51
	 M30.6,10.08l-11.82,9.59"/>
<line class="st0" x1="35.58" y1="17.77" x2="115.21" y2="33.16"/>
<path class="st0" d="M31.1,16.26l-1.87,81.22 M26.25,96.97l1.74-81.35"/>
<path class="st0" d="M70.67,61.28l0.62-0.25 M26.25,96.97l-12.07,9.84 M14.8,110.09l-1,0.88 M33.59,99.12l1.87-81.22"/>
<line class="st0" x1="69.18" y1="69.86" x2="69.3" y2="60.65"/>
<path class="st0" d="M71.04,70.24l-0.5,0.25 M79.25,63.05l0.62-0.38 M75.02,62.16l0.5-0.25"/>
<path class="st0" d="M75.02,62.16l-0.25,9.21 M73.41,70.74l0.25-9.21 M71.29,61.03l-0.25,9.21 M70.67,61.28l-0.12,9.21"/>
<path class="st0" d="M79.63,71.88l-0.5,0.38 M75.27,71.12l-0.5,0.25 M18.91,117.28l1.12-0.88 M22.89,117.53l11.45-10.47"/>
<path class="st0" d="M79.88,62.67l-0.25,9.21 M79.25,63.05l-0.12,9.21 M77.76,71.5l0.12-9.21 M75.52,61.91l-0.25,9.21"/>
<line class="st0" x1="113.35" y1="114.76" x2="33.84" y2="99.37"/>
<path class="st0" d="M113.84,122.45l-79.51-15.39 M34.46,104.04l79.51,15.39"/>
<line class="st0" x1="115.34" y1="33.41" x2="113.47" y2="114.63"/>
<path class="st0" d="M124.29,34.29l-1.87,81.35 M119.44,115.01l1.87-81.22 M99.53,132.92l-80.63-15.64 M102.4,132.92l-79.51-15.39"
	/>
<line class="st0" x1="100.03" y1="132.54" x2="99.53" y2="132.92"/>
<line class="st0" x1="120.19" y1="120.81" x2="108.99" y2="131.28"/>
<line class="st0" x1="113.84" y1="122.45" x2="102.4" y2="132.92"/>
<path class="st0" d="M113.84,122.45l0.25,0.13h0.25h0.12h0.25h0.25l0.12,0.13h0.25h0.25h0.25l0.12-0.13h0.25h0.25h0.12h0.25
	l0.25-0.13h0.12l0.25-0.13h0.25l0.12-0.13h0.25l0.12-0.13h0.25l0.12-0.13l0.25-0.13l0.12-0.13l0.25-0.13h0.12l0.25-0.13l0.12-0.13
	l0.12-0.13l0.25-0.25l0.12-0.13 M26.25,96.97v0.13v0.25v0.25v0.25v0.13v0.25v0.25l0.12,0.13v0.25v0.25l0.12,0.25v0.13l0.12,0.25V100
	l0.12,0.13v0.25l0.12,0.25l0.12,0.13v0.25l0.12,0.13l0.12,0.25l0.12,0.25v0.13l0.12,0.25l0.12,0.13l0.12,0.25l0.12,0.13l0.12,0.25
	l0.12,0.13l0.12,0.25l0.12,0.13l0.12,0.13l0.12,0.25l0.25,0.13l0.12,0.13l0.12,0.25l0.12,0.13l0.12,0.13l0.25,0.13l0.12,0.13
	l0.12,0.25l0.25,0.13l0.12,0.13l0.12,0.13l0.25,0.13l0.12,0.13l0.25,0.13l0.12,0.13l0.25,0.13l0.12,0.13h0.25l0.12,0.13l0.25,0.13
	l0.25,0.13h0.12l0.25,0.13l0.12,0.13h0.25l0.25,0.13h0.12l0.25,0.13h0.25l0.12,0.13h0.25 M31.1,16.26v-0.13V16v-0.13v-0.13v-0.13
	V15.5v-0.13v-0.13l0.12-0.13V15v-0.13l0.12-0.13v-0.13v-0.13l0.12-0.13v-0.13v-0.13l0.12-0.13l0.12-0.13v-0.13l0.12-0.13l0.12-0.13
	v-0.13h0.12l0.12-0.13V13.1l0.12-0.13h0.12v-0.13l0.12-0.13h0.12l0.12-0.13l0.12-0.13l0.12-0.13h0.12l0.12-0.13h0.12l0.12-0.13h0.12
	h0.12l0.12-0.13h0.12h0.12v-0.13h0.12h0.12h0.12h0.12l0.12-0.13h0.12h0.12h0.12h0.12h0.12h0.12h0.25h0.12h0.12h0.12h0.12l0.12,0.13
	h0.12 M116.08,27.23h0.12l0.12,0.13h0.12h0.12h0.12l0.12,0.13h0.12l0.12,0.13h0.12l0.12,0.13h0.12h0.12l0.12,0.13l0.12,0.13h0.12
	l0.12,0.13h0.12l0.12,0.13l0.12,0.13h0.12l0.12,0.13l0.12,0.13h0.12v0.13l0.12,0.13l0.12,0.13h0.12l0.12,0.13v0.13l0.12,0.13
	l0.12,0.13l0.12,0.13l0.12,0.13l0.12,0.13V30l0.12,0.13l0.12,0.13v0.13l0.12,0.13v0.13l0.12,0.13v0.13l0.12,0.13v0.13l0.12,0.13
	v0.13l0.12,0.13v0.13v0.13l0.12,0.13v0.13v0.13l0.12,0.25v0.13v0.13v0.13v0.13v0.13l0.12,0.13v0.13v0.13v0.25v0.13 M119.44,115.01
	v0.13v0.13v0.13v0.13l-0.12,0.13v0.13v0.13v0.13v0.13l-0.12,0.13v0.13v0.13v0.13l-0.12,0.13v0.13l-0.12,0.13l-0.12,0.13v0.13
	l-0.12,0.13v0.13l-0.12,0.13v0.13h-0.12v0.13l-0.12,0.13l-0.12,0.13l-0.12,0.13l-0.12,0.13l-0.12,0.13l-0.12,0.13h-0.12l-0.12,0.13
	l-0.12,0.13h-0.12l-0.12,0.13h-0.12l-0.12,0.13h-0.12l-0.12,0.13h-0.12h-0.12h-0.12l-0.12,0.13h-0.12h-0.12h-0.12h-0.12l-0.12,0.13
	h-0.12h-0.12h-0.12h-0.12h-0.12h-0.12h-0.12h-0.12l-0.12-0.13h-0.12h-0.12h-0.12 M34.46,104.04l-0.12-0.13h-0.12h-0.25h-0.12
	l-0.12-0.13h-0.12h-0.12l-0.12-0.13h-0.12l-0.12-0.13h-0.12l-0.12-0.13h-0.12l-0.12-0.13h-0.12l-0.12-0.13h-0.12l-0.12-0.13
	l-0.12-0.13h-0.12v-0.13l-0.12-0.13l-0.12-0.13h-0.12l-0.12-0.13l-0.12-0.13l-0.12-0.13l-0.12-0.13l-0.12-0.13l-0.12-0.13v-0.13
	l-0.12-0.13h-0.12v-0.13l-0.12-0.13l-0.12-0.13v-0.13l-0.12-0.13v-0.13l-0.12-0.13v-0.13l-0.12-0.13v-0.13l-0.12-0.13V100
	l-0.12-0.13v-0.13l-0.12-0.13V99.5v-0.13l-0.12-0.25v-0.13v-0.13v-0.13l-0.12-0.13v-0.13v-0.13v-0.13v-0.13v-0.13v-0.25V97.6v-0.13
	 M69.42,60.27v-0.13h0.12v-0.13h0.12v-0.13h0.12h0.12h0.12h0.12h0.12h0.12h0.12v0.13h0.12l0.12,0.13h0.12v0.13h0.12v0.13v0.13h0.12
	v0.13v0.13l0.12,0.13v0.13 M70.3,70.99h0.12v-0.13v-0.13h0.12v-0.13v-0.13 M78.88,72.76v-0.13H79v-0.13v-0.13h0.12v-0.13
	 M73.78,61.03V60.9h0.12v-0.13h0.12h0.12v-0.13h0.12h0.12h0.12h0.12l0.12,0.13h0.12l0.12,0.13h0.12v0.13l0.12,0.13l0.12,0.13v0.13
	h0.12v0.13v0.13v0.13v0.13 M30.6,10.08l-0.12,0.13l-0.12,0.13l-0.12,0.13l-0.25,0.13l-0.12,0.25l-0.12,0.13l-0.12,0.13l-0.12,0.13
	l-0.12,0.13l-0.12,0.25v0.13l-0.12,0.13l-0.12,0.25l-0.12,0.13l-0.12,0.25v0.13l-0.12,0.13v0.25l-0.12,0.13l-0.12,0.25v0.13v0.25
	l-0.12,0.13v0.25v0.13l-0.12,0.25v0.13v0.25v0.25l-0.12,0.13v0.25v0.13 M77.89,62.29v-0.13l0.12-0.13v-0.13 M73.65,61.53v-0.13
	v-0.13v-0.13l0.12-0.13 M69.3,60.65v-0.13V60.4h0.12v-0.13 M124.29,34.29v-0.13v-0.25v-0.25v-0.25l-0.12-0.13v-0.25v-0.25v-0.25
	l-0.12-0.13v-0.25V31.9l-0.12-0.25v-0.13l-0.12-0.25v-0.25l-0.12-0.13l-0.12-0.25v-0.13l-0.12-0.25L123.3,30v-0.13l-0.12-0.25
	l-0.12-0.13l-0.12-0.25l-0.12-0.13l-0.12-0.25l-0.12-0.13l-0.12-0.25l-0.12-0.13l-0.12-0.25l-0.12-0.13l-0.12-0.13l-0.12-0.25
	l-0.12-0.13l-0.12-0.13l-0.25-0.25l-0.12-0.13l-0.12-0.13l-0.12-0.13l-0.25-0.25l-0.12-0.13l-0.12-0.13l-0.25-0.13l-0.12-0.13
	l-0.12-0.13l-0.25-0.13l-0.12-0.13l-0.25-0.13l-0.12-0.13l-0.25-0.13l-0.12-0.13h-0.25l-0.25-0.13l-0.12-0.13l-0.25-0.13h-0.12
	l-0.25-0.13l-0.25-0.13h-0.12l-0.25-0.13h-0.25l-0.12-0.13h-0.25h-0.25 M36.58,8.69h-0.12H36.2h-0.25h-0.12l-0.25-0.13h-0.12h-0.25
	h-0.25h-0.12h-0.25h-0.12l-0.25,0.13h-0.12h-0.25h-0.25l-0.12,0.13h-0.25h-0.12l-0.25,0.13h-0.12l-0.25,0.13h-0.12L32.1,9.19
	l-0.12,0.13h-0.25L31.6,9.45l-0.12,0.13L31.23,9.7H31.1l-0.12,0.13l-0.25,0.13l-0.12,0.13 M22.89,117.53h-0.25l-0.25-0.13h-0.25
	l-0.25-0.13h-0.12l-0.25-0.13h-0.25l-0.25-0.13l-0.12-0.13l-0.25-0.13H20.4l-0.12-0.13l-0.25-0.13l-0.25-0.13l-0.12-0.13l-0.25-0.13
	l-0.12-0.13l-0.25-0.13l-0.12-0.13l-0.25-0.13l-0.12-0.13l-0.25-0.13l-0.12-0.13l-0.25-0.25l-0.12-0.13l-0.12-0.13l-0.25-0.13
	l-0.12-0.25l-0.12-0.13l-0.25-0.13l-0.12-0.25l-0.12-0.13l-0.12-0.25l-0.12-0.13l-0.12-0.25l-0.12-0.13l-0.12-0.25l-0.12-0.13
	l-0.12-0.25l-0.12-0.25l-0.12-0.13l-0.12-0.25l-0.12-0.13l-0.12-0.25l-0.12-0.25v-0.13l-0.12-0.25l-0.12-0.25v-0.25l-0.12-0.13
	v-0.25l-0.12-0.25v-0.25l-0.12-0.25v-0.13l-0.12-0.25v-0.25v-0.25v-0.25v-0.13l-0.12-0.25v-0.25v-0.25v-0.25 M16.05,25.59v-0.25
	v-0.13v-0.25l0.12-0.25v-0.13v-0.25v-0.25l0.12-0.13V23.7v-0.13l0.12-0.25v-0.25l0.12-0.13l0.12-0.25v-0.13l0.12-0.25l0.12-0.13
	v-0.25l0.12-0.13l0.12-0.25l0.12-0.13l0.12-0.13l0.12-0.25l0.12-0.13l0.12-0.13l0.12-0.25l0.12-0.13l0.12-0.13l0.12-0.13l0.12-0.13
	l0.25-0.13l0.12-0.25 M120.19,120.81l0.12-0.13l0.12-0.13l0.12-0.13l0.12-0.13l0.12-0.13l0.12-0.13l0.12-0.13l0.12-0.13l0.12-0.25
	v-0.13l0.12-0.13l0.12-0.13v-0.25l0.12-0.13l0.12-0.13v-0.25l0.12-0.13v-0.13l0.12-0.25v-0.13l0.12-0.25v-0.13v-0.13l0.12-0.25
	v-0.13v-0.25l0.12-0.13v-0.25v-0.13v-0.25v-0.13v-0.13 M108.99,131.28l-0.12,0.13l-0.25,0.13l-0.12,0.13l-0.12,0.13l-0.25,0.13
	l-0.12,0.13l-0.25,0.13l-0.25,0.13l-0.12,0.13h-0.25l-0.12,0.13l-0.25,0.13h-0.25l-0.12,0.13h-0.25l-0.25,0.13h-0.25l-0.12,0.13
	h-0.25h-0.25h-0.25h-0.25l-0.12,0.13h-0.25h-0.25h-0.25l-0.12-0.13h-0.25h-0.25h-0.25h-0.25l-0.12-0.13 M70.54,70.99h-0.12H70.3
	l-0.12,0.13v-0.13h-0.12h-0.12H69.8l-0.12-0.13h-0.12v-0.13h-0.12v-0.13H69.3v-0.13l-0.12-0.13v-0.13v-0.13v-0.13v-0.13 M74.9,71.88
	h-0.12h-0.12h-0.12H74.4h-0.12h-0.12v-0.13h-0.12H73.9v-0.13h-0.12V71.5h-0.12v-0.13l-0.12-0.13v-0.13l-0.12-0.13v-0.13v-0.13
	 M79.13,72.63L79,72.76h-0.12h-0.12h-0.12l-0.12-0.13h-0.12h-0.12v-0.13h-0.12v-0.13h-0.12v-0.13h-0.12v-0.13V72h-0.12v-0.13v-0.13
	v-0.13V71.5 M15.67,28.62v-0.25v-0.25l0.12-0.13v-0.25v-0.25l0.12-0.13V27.1l0.12-0.13 M18.91,117.28h-0.12h-0.12l-0.12-0.13h-0.12
	h-0.12h-0.12l-0.12-0.13h-0.12l-0.12-0.13h-0.12l-0.12-0.13h-0.12l-0.12-0.13h-0.12l-0.12-0.13h-0.12l-0.12-0.13h-0.12l-0.12-0.13
	l-0.12-0.13H16.3v-0.13l-0.12-0.13h-0.12l-0.12-0.13l-0.12-0.13v-0.13l-0.12-0.13h-0.12l-0.12-0.13v-0.13l-0.12-0.13l-0.12-0.13
	l-0.12-0.13l-0.12-0.13v-0.13l-0.12-0.13l-0.12-0.13v-0.13L14.55,114v-0.13l-0.12-0.13v-0.13l-0.12-0.13v-0.13l-0.12-0.13v-0.13
	v-0.13l-0.12-0.13v-0.13v-0.13l-0.12-0.13v-0.13v-0.13v-0.25v-0.13l-0.12-0.13v-0.13v-0.13v-0.13v-0.13v-0.13v-0.13 M101.77,132.92
	h-0.12h-0.12h-0.12h-0.12l-0.12,0.13h-0.25h-0.12h-0.12h-0.12h-0.12h-0.12h-0.12h-0.25h-0.12l-0.12-0.13h-0.12"/>
<polyline class="st0" points="35.58,17.77 35.71,17.39 35.71,17.01 35.71,16.63 35.71,16.26 35.71,15.88 35.83,15.5 35.83,15.12 
	35.95,14.74 35.95,14.36 36.08,13.99 36.08,13.61 36.2,13.23 36.2,12.85 36.33,12.6 36.45,12.22 36.58,11.84 "/>
<polyline class="st0" points="31.1,16.26 31.23,16.38 31.35,16.38 31.48,16.51 31.6,16.51 31.72,16.63 31.85,16.76 31.97,16.76 
	32.1,16.89 32.35,17.01 32.6,17.14 32.84,17.14 33.22,17.27 33.47,17.39 33.72,17.52 33.96,17.52 34.34,17.64 34.59,17.77 
	34.84,17.77 35.21,17.9 35.46,17.9 "/>
<polyline class="st0" points="116.08,27.23 115.96,27.61 115.83,27.99 115.71,28.36 115.71,28.74 115.58,29.12 115.58,29.5 
	115.46,29.75 115.46,30.13 115.34,30.51 115.34,30.89 115.34,31.26 115.21,31.64 115.21,32.02 115.21,32.4 115.21,32.78 
	115.21,33.16 "/>
<polyline class="st0" points="115.34,33.41 115.71,33.53 116.08,33.53 116.46,33.53 116.83,33.66 117.2,33.66 117.58,33.66 
	117.95,33.79 118.32,33.79 118.7,33.79 119.07,33.79 119.44,33.79 119.82,33.79 120.19,33.79 120.56,33.79 120.94,33.79 
	121.31,33.79 "/>
<polyline class="st0" points="119.44,115.01 119.07,115.01 118.7,115.01 118.32,115.01 117.95,115.01 117.58,115.01 117.2,115.01 
	116.83,115.01 116.46,115.01 116.08,115.01 115.71,115.01 115.34,114.88 114.96,114.88 114.59,114.88 114.22,114.76 113.84,114.76 
	113.47,114.63 "/>
<polyline class="st0" points="113.35,114.76 113.35,115.13 113.35,115.39 113.35,115.64 113.35,116.02 113.35,116.27 113.35,116.52 
	113.35,116.9 113.47,117.15 113.47,117.4 113.47,117.78 113.59,118.03 113.59,118.29 113.59,118.41 113.72,118.54 113.72,118.79 
	113.72,118.92 113.84,119.04 113.84,119.17 113.84,119.3 113.97,119.42 "/>
<polyline class="st0" points="33.59,99.12 33.34,99.12 32.97,98.99 32.72,98.99 32.47,98.86 32.22,98.86 31.85,98.74 31.6,98.61 
	31.35,98.61 31.1,98.49 30.73,98.36 30.48,98.23 30.23,98.11 30.11,97.98 29.98,97.98 29.86,97.86 29.73,97.86 29.61,97.73 
	29.48,97.6 29.36,97.6 29.24,97.48 "/>
<polyline class="st0" points="34.46,104.04 34.34,103.91 34.34,103.78 34.34,103.53 34.21,103.4 34.21,103.28 34.21,103.15 
	34.09,103.03 34.09,102.9 33.96,102.65 33.96,102.27 33.96,102.02 33.84,101.77 33.84,101.39 33.84,101.13 33.84,100.88 
	33.84,100.5 33.84,100.25 33.84,100 33.84,99.62 33.84,99.37 "/>
<path class="st0" d="M79.63,71.88V72v0.13v0.13H79.5v0.13l-0.12,0.13l-0.12,0.13h-0.12 M75.27,71.12v0.13v0.13v0.13h-0.12v0.13
	h-0.12v0.13H74.9v0.13 M71.04,70.24v0.13v0.13h-0.12v0.13v0.13h-0.12v0.13h-0.12v0.13h-0.12"/>
<line class="st0" x1="35.58" y1="17.77" x2="35.71" y2="17.77"/>
<polyline class="st0" points="35.58,17.77 35.46,17.77 35.46,17.9 "/>
<polyline class="st0" points="115.34,33.41 115.34,33.28 115.21,33.28 115.21,33.16 "/>
<polyline class="st0" points="113.35,114.76 113.47,114.76 113.47,114.63 "/>
<polyline class="st0" points="33.59,99.12 33.59,99.24 33.72,99.37 33.84,99.37 "/>
<path class="st0" d="M79.25,63.05v-0.13v-0.13v-0.13v-0.13h-0.12v-0.13L79,62.29l-0.12-0.13h-0.12v-0.13h-0.12h-0.12h-0.12h-0.12
	h-0.12h-0.12v0.13 M74.65,71.88v-0.13l0.12-0.13V71.5v-0.13 M75.02,62.16v-0.13v-0.13l-0.12-0.13v-0.13l-0.12-0.13v-0.13h-0.12
	l-0.12-0.13H74.4v-0.13h-0.12h-0.12h-0.12H73.9h-0.12v0.13h-0.12 M78.01,61.91l0.12-0.13v-0.13h0.12h0.12v-0.13h0.12h0.12h0.12h0.12
	H79h0.12v0.13h0.12h0.12v0.13h0.12v0.13l0.12,0.13l0.12,0.13v0.13v0.13l0.12,0.13v0.13 M70.67,61.28v-0.13v-0.13V60.9h-0.12v-0.13
	v-0.13h-0.12v-0.13H70.3l-0.12-0.13h-0.12h-0.12l-0.12-0.13h-0.12v0.13h-0.12h-0.12l-0.12,0.13 M70.67,61.28h0.12"/>
</svg>
