<?xml version="1.0" encoding="utf-8"?>
<!-- Generator: Adobe Illustrator 24.0.0, SVG Export Plug-In . SVG Version: 6.00 Build 0)  -->
<svg version="1.1" id="图层_1" xmlns="http://www.w3.org/2000/svg" xmlns:xlink="http://www.w3.org/1999/xlink" x="0px" y="0px"
	 viewBox="0 0 141.73 141.73" style="enable-background:new 0 0 141.73 141.73;" xml:space="preserve">
<style type="text/css">
	.st0{fill:none;stroke:#000000;stroke-width:0.5;stroke-linecap:round;stroke-linejoin:round;stroke-miterlimit:10;}
</style>
<line class="st0" x1="83.21" y1="5.74" x2="105.63" y2="12.14"/>
<path class="st0" d="M77.82,61.87l-0.66-0.25 M77.82,58.64l-0.66-0.33 M81.3,59.55l0.33,0.17 M78.81,58.8l-0.91-0.25 M77.82,55.4
	l-0.66-0.33 M81.3,56.31l0.33,0.17 M81.3,53.07l0.33,0.17 M78.81,55.56l-0.91-0.25 M94.42,22.1l22.5,6.64"/>
<path class="st0" d="M77.15,56.39H76.9 M81.72,53.49l-3.9,1.91 M81.3,53.07l-4.15,1.99"/>
<line class="st0" x1="78.81" y1="62.04" x2="77.9" y2="61.79"/>
<path class="st0" d="M77.15,62.87H76.9 M77.15,59.63H76.9 M77.15,61.62l4.15-2.08 M77.15,59.63l4.15-2.08 M77.82,58.64l3.9-1.91
	 M77.15,58.3l4.15-1.99 M81.3,54.32l-4.15,2.08"/>
<line class="st0" x1="94.42" y1="76.74" x2="116.93" y2="83.55"/>
<path class="st0" d="M77.15,62.87l4.15-2.08 M77.82,61.87l3.9-1.91"/>
<path class="st0" d="M40.87,127.89l22.17,7.39 M77.48,109.87l22.34,7.31"/>
<line class="st0" x1="34.64" y1="127.55" x2="56.81" y2="134.86"/>
<polyline class="st0" points="91.43,84.21 92.35,80.64 92.93,76.99 "/>
<line class="st0" x1="89.28" y1="27.83" x2="89.03" y2="26.67"/>
<line class="st0" x1="88.53" y1="24.59" x2="88.45" y2="24.51"/>
<line class="st0" x1="77.48" y1="59.38" x2="77.48" y2="59.47"/>
<line class="st0" x1="77.48" y1="62.62" x2="77.48" y2="62.7"/>
<line class="st0" x1="77.48" y1="56.14" x2="77.48" y2="56.23"/>
<path class="st0" d="M76.9,62.87h-0.08l-0.08-0.08V62.7v-0.08l-0.08-0.08v-0.08l0.08-0.17v-0.08v-0.17l0.08-0.08v-0.08l0.08-0.08
	l0.08-0.08v-0.08h0.08h0.08 M77.82,55.4h-0.08l-0.08,0.08v0.08l-0.08,0.08v0.08l-0.08,0.08v0.08v0.08l-0.08,0.08v0.08 M77.82,61.87
	h-0.08v0.08h-0.08v0.08l-0.08,0.08v0.08l-0.08,0.08v0.08v0.08l-0.08,0.08v0.08 M77.82,58.64h-0.08v0.08h-0.08v0.08l-0.08,0.08v0.08
	l-0.08,0.08v0.08v0.08L77.4,59.3v0.08 M83.21,5.74l-0.33-0.17l-0.42-0.08h-0.33L81.8,5.41l-0.33-0.08h-0.42l-0.33-0.08h-0.33h-0.42
	h-0.33h-0.33L78.9,5.33h-0.33l-0.33,0.08H77.9l-0.42,0.08 M105.63,12.14l0.33,0.08l0.25,0.08l0.33,0.17l0.33,0.08l0.25,0.17
	l0.33,0.08l0.33,0.17l0.25,0.17l0.33,0.17l0.25,0.17l0.25,0.17l0.33,0.17l0.25,0.25l0.25,0.17l0.25,0.25l0.25,0.17l0.25,0.25
	l0.25,0.25l0.25,0.17l0.25,0.25l0.25,0.25l0.17,0.25l0.25,0.25l0.25,0.25l0.17,0.25l0.25,0.25l0.17,0.33l0.17,0.25l0.17,0.25
	l0.25,0.33l0.17,0.25l0.17,0.25l0.17,0.33l0.17,0.25l0.17,0.33l0.17,0.25l0.08,0.33l0.17,0.33l0.17,0.25l0.08,0.33l0.17,0.25
	l0.17,0.33l0.17,0.66l0.25,0.58l0.25,0.66l0.17,0.58l0.17,0.66l0.17,0.66l0.17,0.58l0.17,0.66l0.17,0.66l0.08,0.66l0.08,0.66
	 M81.55,52.99v0.08h0.08v0.08l0.08,0.08v0.08v0.08v0.08 M81.55,59.55l0.08,0.08l0.08,0.08v0.08v0.08v0.08 M81.55,56.31l0.08,0.08
	l0.08,0.08v0.08v0.08v0.08 M99.82,117.17l-1,0.83l-1,0.75l-1.08,0.83l-1,0.75l-1.08,0.75l-1.08,0.75l-1.08,0.75l-1.08,0.66
	l-1.08,0.75l-1.08,0.66l-1.08,0.66l-1.16,0.66l-0.5,0.33l-0.58,0.33l-0.58,0.33l-0.58,0.25l-0.58,0.33l-0.58,0.33l-0.5,0.25
	l-0.58,0.33l-0.58,0.25l-0.58,0.33l-0.58,0.25l-0.58,0.33l-0.58,0.25l-0.58,0.25l-0.66,0.25l-0.58,0.25l-0.58,0.25l-0.58,0.25
	l-0.58,0.25l-0.66,0.25l-0.58,0.25l-0.58,0.25l-0.58,0.25L73,132.54l-0.58,0.25l-0.66,0.17l-0.58,0.25l-0.58,0.17l-0.66,0.17
	l-0.58,0.25l-0.66,0.17l-0.58,0.17l-0.66,0.17l-0.58,0.17l-0.66,0.17l-0.66,0.08l-0.58,0.17l-0.66,0.17l-0.58,0.08l-0.66,0.17
	 M63.04,135.28h-0.42l-0.33,0.08l-0.42,0.08h-0.42h-0.42h-0.33H60.3h-0.42h-0.42l-0.33-0.08h-0.42l-0.42-0.08l-0.42-0.08l-0.33-0.08
	l-0.42-0.08l-0.33-0.17 M116.93,28.74l0.17,0.83l0.08,0.83l0.17,0.91l0.08,0.83l0.08,0.83l0.17,0.83l0.08,0.91l0.08,0.83l0.08,0.83
	L118,37.3l0.17,1.66l0.17,1.74l0.08,1.66l0.17,1.74l0.08,1.74l0.08,1.66v1.74l0.08,1.74v1.66l0.08,1.74v1.74l-0.08,1.74v1.66
	l-0.08,1.74v1.74l-0.08,1.66l-0.08,1.74l-0.08,1.74l-0.17,1.66l-0.08,1.74l-0.17,1.74l-0.17,1.66l-0.17,1.74l-0.17,1.66l-0.25,1.74
	l-0.17,1.66l-0.25,1.74 M116.93,83.55l-0.08,0.58l-0.08,0.58l-0.08,0.58l-0.08,0.66l-0.08,0.58l-0.17,0.58l-0.08,0.58l-0.17,0.58
	l-0.08,0.58l-0.17,0.58l-0.17,0.58l-0.17,0.58l-0.08,0.58l-0.17,0.58l-0.17,0.58l-0.17,0.58l-0.17,0.58l-0.25,0.58l-0.17,0.58
	l-0.17,0.58l-0.25,0.58l-0.17,0.58L113.52,97l-0.17,0.5l-0.25,0.58l-0.25,0.58l-0.17,0.5l-0.25,0.58l-0.25,0.58l-0.25,0.5
	l-0.25,0.58l-0.25,0.58l-0.33,0.5l-0.25,0.58l-0.25,0.5l-0.33,0.5l-0.25,0.58l-0.33,0.5l-0.25,0.5l-0.33,0.58l-0.33,0.5l-0.33,0.5
	l-0.33,0.5l-0.33,0.5l-0.33,0.5l-0.33,0.5l-0.33,0.5l-0.33,0.5l-0.42,0.5l-0.33,0.42l-0.33,0.5l-0.42,0.5l-0.42,0.42l-0.42,0.5
	l-0.33,0.42l-0.42,0.5l-0.42,0.42l-0.42,0.42l-0.5,0.42l-0.42,0.42l-0.42,0.42l-0.5,0.42l-0.42,0.33l-0.5,0.42 M23.93,111.03
	l0.08,0.66l0.08,0.58l0.17,0.66l0.17,0.66l0.08,0.58l0.17,0.66l0.17,0.58l0.25,0.66l0.17,0.58l0.25,0.58l0.17,0.66l0.25,0.58
	l0.17,0.33l0.08,0.25l0.17,0.33l0.17,0.25l0.08,0.33l0.17,0.25l0.17,0.33l0.17,0.25l0.17,0.25l0.17,0.33l0.17,0.25l0.17,0.25
	l0.17,0.25l0.25,0.33l0.17,0.25l0.17,0.25l0.25,0.25l0.17,0.25l0.25,0.25l0.17,0.25l0.25,0.25l0.25,0.17l0.17,0.25l0.25,0.25
	l0.25,0.17l0.25,0.25l0.25,0.17l0.25,0.25l0.25,0.17l0.33,0.17l0.25,0.17l0.25,0.25l0.33,0.17l0.25,0.08l0.25,0.17l0.33,0.17
	l0.33,0.08l0.25,0.17l0.33,0.08l0.25,0.17 M77.48,5.49L76.9,5.58l-0.66,0.17l-0.58,0.17l-0.66,0.08l-0.66,0.17l-0.58,0.17
	l-0.66,0.17L72.5,6.66l-0.66,0.17l-0.58,0.17l-0.66,0.17l-0.58,0.17l-0.58,0.25l-0.66,0.17l-0.58,0.25l-0.66,0.17L66.94,8.4
	l-0.58,0.17l-0.58,0.25l-0.66,0.25l-0.58,0.25l-0.58,0.25l-0.58,0.25l-0.58,0.25l-0.58,0.25l-0.66,0.25l-0.58,0.25l-0.58,0.33
	l-0.58,0.25l-0.58,0.25l-0.58,0.33l-0.58,0.25l-0.5,0.33l-0.58,0.25l-0.58,0.33l-0.58,0.33l-0.58,0.33l-0.58,0.25l-0.5,0.33
	l-0.58,0.33l-1.08,0.66l-1.16,0.66l-1.08,0.66l-1.08,0.75l-1.08,0.66l-1.08,0.75l-1,0.75l-1.08,0.75l-1.08,0.75l-1,0.83l-1,0.75
	l-1,0.83 M40.87,23.51l-0.5,0.33l-0.5,0.42l-0.42,0.42l-0.42,0.42l-0.42,0.42l-0.5,0.42l-0.42,0.42l-0.42,0.42l-0.42,0.42l-0.33,0.5
	l-0.42,0.42l-0.42,0.5l-0.33,0.42l-0.42,0.5l-0.33,0.5l-0.33,0.42l-0.42,0.5l-0.33,0.5l-0.33,0.5l-0.33,0.5l-0.33,0.5l-0.33,0.5
	l-0.33,0.5l-0.25,0.5l-0.33,0.58l-0.33,0.5l-0.25,0.5l-0.25,0.58l-0.33,0.5l-0.25,0.5l-0.25,0.58l-0.33,0.5l-0.25,0.58l-0.25,0.5
	l-0.25,0.58l-0.25,0.5l-0.17,0.58l-0.25,0.58l-0.25,0.5l-0.17,0.58l-0.25,0.58L27,44.19l-0.17,0.5l-0.17,0.58l-0.25,0.58l-0.17,0.58
	l-0.17,0.58l-0.17,0.58l-0.17,0.58l-0.17,0.58l-0.17,0.58l-0.17,0.58l-0.17,0.58l-0.08,0.58l-0.17,0.58l-0.08,0.58l-0.17,0.58
	l-0.08,0.58l-0.17,0.58l-0.08,0.58l-0.08,0.58l-0.08,0.58l-0.08,0.58l-0.08,0.66 M23.93,56.97l-0.25,1.66l-0.17,1.66l-0.17,1.66
	l-0.17,1.74l-0.17,1.66l-0.17,1.66l-0.17,1.74l-0.08,1.66l-0.08,1.66l-0.17,1.74l-0.08,1.66v1.74l-0.08,1.66l-0.08,1.66v1.74v1.66
	v1.74v1.66v1.74l0.08,1.66l0.08,1.66l0.08,1.74l0.08,1.66l0.08,1.74l0.08,1.66l0.17,1.66l0.17,1.74l0.17,1.66l0.17,1.66l0.17,1.66
	l0.25,1.74l0.08,0.83l0.17,0.83 M81.72,53.49v0.08v0.17l-0.08,0.08v0.17l-0.08,0.08l-0.08,0.08v0.08h-0.08v0.08H81.3 M81.72,59.96
	v0.17v0.08l-0.08,0.17v0.08l-0.08,0.08l-0.08,0.17l-0.08,0.08H81.3 M81.72,56.73v0.08v0.17l-0.08,0.08v0.17l-0.08,0.08l-0.08,0.08
	v0.08h-0.08v0.08H81.3"/>
<polyline class="st0" points="77.57,16.29 76.99,16.37 76.41,16.54 75.82,16.62 75.24,16.79 74.66,16.87 74.08,17.04 73.5,17.2 
	72.92,17.37 72.34,17.53 71.76,17.7 71.17,17.87 70.59,18.03 70.01,18.2 69.43,18.36 68.85,18.53 68.35,18.78 67.77,18.95 
	67.19,19.19 66.61,19.36 66.11,19.61 65.53,19.86 64.95,20.02 64.45,20.27 63.87,20.52 63.29,20.77 62.79,21.02 62.21,21.27 
	61.71,21.52 61.13,21.77 60.63,22.02 60.05,22.27 59.55,22.52 59.05,22.85 58.47,23.1 57.47,23.68 56.39,24.26 55.4,24.84 
	54.32,25.42 53.32,26.09 52.33,26.67 51.33,27.33 50.33,28 49.34,28.66 48.34,29.32 47.34,30.07 46.43,30.74 45.43,31.48 
	44.52,32.23 43.61,32.98 "/>
<polyline class="st0" points="89.03,26.67 88.94,26.17 88.78,25.67 88.69,25.09 88.53,24.59 "/>
<polyline class="st0" points="88.53,24.51 88.36,24.09 88.2,23.68 88.03,23.18 87.86,22.77 87.61,22.35 87.45,21.93 87.2,21.52 
	87.03,21.1 86.78,20.69 86.54,20.27 86.37,20.11 86.2,19.86 86.04,19.69 85.95,19.53 85.79,19.36 85.62,19.11 85.46,18.95 
	85.29,18.78 85.12,18.61 84.96,18.45 84.79,18.28 84.63,18.12 84.46,18.03 84.21,17.87 84.04,17.7 83.88,17.53 83.71,17.45 
	83.46,17.28 83.3,17.2 83.05,17.12 82.88,16.95 82.63,16.87 82.38,16.79 82.22,16.7 81.97,16.62 81.72,16.54 81.55,16.45 
	81.3,16.37 81.06,16.37 80.81,16.29 80.64,16.21 80.39,16.21 80.14,16.21 79.89,16.12 79.64,16.12 79.39,16.12 79.23,16.12 
	78.98,16.12 78.73,16.12 78.48,16.12 78.23,16.21 77.98,16.21 77.73,16.21 77.57,16.29 "/>
<path class="st0" d="M81.3,59.55h0.08h0.08h0.08 M76.9,56.39h-0.08v-0.08h-0.08v-0.08v-0.08v-0.08l-0.08-0.08 M76.9,56.39h0.08"/>
<polyline class="st0" points="89.19,78.31 89.36,77.23 89.52,76.07 89.61,74.99 89.77,73.83 89.86,72.75 90.02,71.67 90.11,70.51 
	90.19,69.43 90.35,68.27 90.44,67.19 90.52,66.11 90.6,64.95 90.6,63.87 90.69,62.7 90.77,61.62 90.85,60.46 90.85,59.38 
	90.94,58.22 90.94,57.14 90.94,55.98 91.02,54.9 91.02,53.74 91.02,52.66 91.02,51.49 91.02,50.42 91.02,49.34 90.94,48.17 
	90.94,47.09 90.94,45.93 90.85,44.85 90.77,43.69 90.77,42.61 90.69,41.7 90.6,40.7 90.6,39.79 90.52,38.87 90.44,37.96 
	90.35,37.05 90.27,36.13 90.19,35.14 90.11,34.22 89.94,33.31 89.86,32.4 89.77,31.48 89.61,30.57 89.52,29.66 89.36,28.74 
	89.19,27.75 "/>
<path class="st0" d="M76.65,55.98l0.08-0.17v-0.08v-0.17l0.08-0.08v-0.17l0.08-0.08h0.08v-0.08h0.08l0.08-0.08 M81.3,53.07
	l0.08-0.08h0.08h0.08"/>
<polyline class="st0" points="77.57,101.23 77.9,100.98 78.15,100.73 78.48,100.48 78.81,100.24 79.06,99.9 79.39,99.65 
	79.64,99.32 79.98,99.07 80.22,98.74 80.47,98.41 80.81,98.08 81.06,97.83 81.3,97.5 81.55,97.16 81.8,96.83 82.05,96.5 82.3,96.17 
	82.55,95.83 82.8,95.5 82.96,95.17 83.21,94.84 83.46,94.51 83.63,94.09 83.88,93.76 84.04,93.43 84.29,93.09 84.46,92.68 
	84.71,92.35 84.87,91.93 85.04,91.6 85.46,90.85 85.79,90.11 86.12,89.36 86.45,88.61 86.78,87.86 87.03,87.12 87.28,86.29 
	87.61,85.54 87.86,84.71 88.03,83.96 88.28,83.13 88.45,82.38 88.69,81.55 88.86,80.72 88.94,79.89 89.11,79.14 89.19,78.31 "/>
<polyline class="st0" points="60.55,112.19 61.13,111.94 61.71,111.61 62.21,111.36 62.79,111.03 63.37,110.7 63.95,110.45 
	64.45,110.12 65.03,109.78 65.53,109.53 66.11,109.2 66.69,108.87 67.19,108.54 67.77,108.21 68.27,107.87 69.35,107.21 
	70.43,106.46 71.42,105.8 72.5,105.05 73.5,104.3 74.5,103.56 75.57,102.81 76.57,102.06 77.57,101.23 "/>
<polyline class="st0" points="25.34,109.95 25.75,109.7 26.17,109.53 26.59,109.37 27.08,109.2 27.5,108.95 27.91,108.79 
	28.33,108.54 28.74,108.29 29.16,108.12 29.57,107.87 29.91,107.63 30.32,107.38 30.74,107.13 31.07,106.79 31.48,106.55 
	31.9,106.3 "/>
<polyline class="st0" points="25.34,56.64 26.17,56.64 27,56.64 27.75,56.56 28.58,56.56 29.41,56.48 29.82,56.39 30.24,56.39 
	30.65,56.31 31.07,56.23 31.48,56.23 31.9,56.14 "/>
<polyline class="st0" points="41.12,25.42 41.37,25.84 41.53,26.34 41.78,26.75 41.95,27.25 42.11,27.66 42.28,28.16 42.44,28.66 
	42.61,29.08 42.78,29.57 42.94,30.07 43.03,30.49 43.19,30.99 43.27,31.48 43.36,31.98 43.52,32.48 43.61,32.98 "/>
<polyline class="st0" points="89.19,27.75 89.52,27.58 89.77,27.33 90.11,27.08 90.35,26.83 90.6,26.58 90.85,26.25 91.1,26 
	91.35,25.75 91.6,25.42 91.85,25.17 92.1,24.84 92.26,24.51 92.43,24.18 92.68,23.93 92.85,23.6 93.01,23.18 "/>
<polyline class="st0" points="77.24,7.74 77.32,8.23 77.4,8.73 77.48,9.31 77.57,9.81 77.65,10.39 77.65,10.89 77.73,11.47 
	77.73,11.97 77.73,12.55 77.73,13.05 77.73,13.63 77.73,14.13 77.73,14.71 77.65,15.21 77.57,15.79 77.57,16.29 "/>
<polyline class="st0" points="89.19,78.31 89.69,78.23 90.19,78.07 90.69,77.98 90.94,77.9 91.19,77.82 91.43,77.73 91.68,77.65 
	91.93,77.57 92.1,77.48 92.35,77.4 92.6,77.23 92.76,77.15 92.93,77.07 93.01,76.99 "/>
<path class="st0" d="M59.13,119.58l-1.08,0.5l-0.5,0.25l-0.58,0.25l-0.5,0.25l-0.58,0.25l-0.5,0.25l-0.58,0.17l-0.58,0.25l-0.5,0.25
	l-0.58,0.25l-0.58,0.17l-0.5,0.25l-0.58,0.17l-0.58,0.25l-0.58,0.17l-0.58,0.17l-0.5,0.25l-0.58,0.17l-0.58,0.17l-0.58,0.17
	l-0.58,0.17l-0.58,0.17l-0.58,0.17l-0.58,0.17l-0.58,0.08l-0.58,0.17l-0.58,0.17l-0.58,0.08l-0.58,0.17l-0.58,0.08l-0.58,0.08
	 M41.12,125.64l-0.42,0.08l-0.33,0.08h-0.42l-0.42,0.08h-0.33h-0.42h-0.42h-0.42l-0.33-0.08l-0.42-0.08H36.8l-0.33-0.08l-0.42-0.08
	l-0.42-0.17l-0.33-0.08l-0.42-0.17l-0.33-0.08l-0.33-0.17l-0.42-0.17l-0.33-0.25l-0.33-0.17l-0.33-0.25l-0.33-0.17l-0.33-0.25
	l-0.25-0.25l-0.33-0.25l-0.33-0.25l-0.25-0.25l-0.25-0.33l-0.33-0.25l-0.25-0.33l-0.25-0.25l-0.25-0.33l-0.25-0.33l-0.25-0.33
	l-0.17-0.33l-0.25-0.25l-0.17-0.33l-0.25-0.42l-0.17-0.33L28,118.5l-0.17-0.33l-0.25-0.33l-0.17-0.42l-0.17-0.33l-0.08-0.33
	L27,116.34l-0.17-0.33l-0.08-0.42l-0.17-0.33l-0.17-0.33l-0.08-0.42l-0.08-0.42l-0.17-0.33L26,113.35l-0.08-0.33l-0.08-0.42
	l-0.08-0.33l-0.08-0.42l-0.08-0.42l-0.08-0.33l-0.08-0.42l-0.08-0.42v-0.33 M25.34,109.95l-0.25-1.66l-0.25-1.66l-0.17-1.66
	l-0.17-1.66l-0.17-1.66l-0.17-1.66l-0.17-1.66l-0.08-1.66L23.85,95l-0.08-1.66l-0.08-1.66l-0.08-1.74v-1.66l-0.08-1.66v-1.66V83.3
	v-1.66l0.08-1.66v-1.66l0.08-1.66l0.08-1.66l0.08-1.66l0.08-1.74l0.08-1.66l0.08-1.66l0.17-1.66l0.17-1.66l0.17-1.66l0.17-1.66
	l0.17-1.66l0.17-1.66l0.25-1.66 M25.34,56.64l0.08-0.5l0.08-0.58l0.08-0.58l0.08-0.5l0.08-0.58l0.08-0.58l0.08-0.5l0.17-0.58
	l0.08-0.5l0.17-0.58l0.08-0.5l0.17-0.58l0.17-0.58l0.08-0.5L27,48.42l0.17-0.5l0.17-0.5l0.17-0.58l0.17-0.5l0.17-0.58l0.25-0.5
	l0.17-0.5l0.17-0.58l0.25-0.5l0.17-0.5l0.25-0.58l0.17-0.5l0.25-0.5l0.17-0.5l0.25-0.5l0.25-0.5l0.25-0.5l0.25-0.58l0.25-0.5
	l0.25-0.5l0.25-0.5l0.25-0.42l0.33-0.5l0.25-0.5l0.25-0.5l0.33-0.5l0.25-0.42l0.33-0.5l0.33-0.5l0.33-0.42l0.25-0.5l0.33-0.42
	l0.33-0.5l0.33-0.42l0.33-0.5l0.42-0.42l0.33-0.42l0.33-0.42l0.42-0.42l0.33-0.42l0.42-0.42l0.33-0.42l0.42-0.42l0.42-0.42
	l0.42-0.33l0.42-0.42l0.42-0.33l0.42-0.42l0.42-0.33 M41.12,25.42l1-0.83l1-0.75l1-0.75l1.08-0.75l1-0.75l1.08-0.75l1-0.66
	l1.08-0.75l1.08-0.66l1.08-0.66l1.08-0.66l1.08-0.66l0.58-0.33l0.5-0.33l0.58-0.25l0.58-0.33l0.5-0.33l0.58-0.25l0.58-0.33
	l0.58-0.25l0.5-0.33l0.58-0.25l0.58-0.25l0.58-0.33l0.58-0.25l0.58-0.25l0.58-0.25l0.58-0.25l0.58-0.25l0.58-0.25l0.58-0.25
	l0.58-0.25l0.58-0.25l0.58-0.17l0.66-0.25l0.58-0.25l0.58-0.17l0.58-0.25l0.66-0.17l0.58-0.17l0.58-0.25l0.66-0.17l0.58-0.17
	l0.58-0.17l0.66-0.17l0.58-0.17l0.58-0.17l0.66-0.08l0.58-0.17l0.66-0.17l0.58-0.08l0.66-0.08 M77.24,7.74l0.25-0.08l0.33-0.08h0.33
	h0.25l0.33-0.08h0.33h0.25h0.33h0.33h0.33l0.25,0.08h0.33l0.33,0.08h0.25l0.33,0.08l0.25,0.08l0.33,0.08l0.25,0.08l0.33,0.08
	l0.25,0.08l0.33,0.08L83.8,8.4l0.33,0.08l0.25,0.17l0.25,0.08l0.25,0.17l0.33,0.17l0.25,0.17L85.7,9.4l0.25,0.17l0.25,0.17
	l0.25,0.17l0.25,0.25l0.17,0.17l0.25,0.25l0.25,0.17l0.17,0.25l0.25,0.17l0.17,0.25l0.25,0.25l0.17,0.25l0.25,0.25l0.17,0.17
	l0.17,0.25l0.17,0.25l0.17,0.25l0.17,0.25l0.17,0.25l0.17,0.33l0.17,0.25l0.17,0.25l0.17,0.25l0.17,0.25l0.08,0.33l0.17,0.25
	l0.08,0.25l0.33,0.58l0.17,0.58l0.25,0.58l0.17,0.58l0.25,0.58l0.17,0.66l0.25,0.66l0.17,0.66l0.08,0.66l0.17,0.66l0.08,0.66
	l0.17,0.58 M93.01,23.18l0.25,1.66l0.17,1.58L93.68,28l0.17,1.66l0.17,1.58l0.17,1.58l0.08,1.66l0.17,1.58l0.08,1.58l0.08,1.66
	l0.08,1.58l0.08,1.58l0.08,1.66v1.58v1.66l0.08,1.58l-0.08,1.74v1.74v1.83l-0.08,1.74l-0.08,1.74l-0.08,1.74l-0.08,1.74l-0.08,1.74
	l-0.17,1.74l-0.08,1.83l-0.17,1.74l-0.17,1.74l-0.25,1.74l-0.17,1.74l-0.25,1.74l-0.17,1.74 M91.52,84.21l-0.25,0.83l-0.25,0.83
	l-0.25,0.83l-0.25,0.83l-0.33,0.83l-0.33,0.83l-0.25,0.83l-0.33,0.83l-0.33,0.83l-0.42,0.83l-0.33,0.75l-0.42,0.83l-0.33,0.75
	l-0.42,0.83l-0.42,0.75l-0.5,0.75l-0.42,0.75l-0.5,0.75l-0.42,0.75l-0.5,0.75l-0.25,0.33l-0.25,0.42l-0.25,0.33l-0.25,0.33
	l-0.33,0.42l-0.25,0.33l-0.25,0.33l-0.25,0.33l-0.33,0.33l-0.25,0.33l-0.33,0.33l-0.25,0.33l-0.33,0.33l-0.25,0.33l-0.33,0.33
	l-0.33,0.33l-0.25,0.25l-0.33,0.33l-0.33,0.33l-0.33,0.25l-0.33,0.33l-0.33,0.25l-0.33,0.33l-0.33,0.25 M77.24,107.96l-1.08,0.83
	l-1.08,0.83L74,110.45l-1.08,0.75l-1.08,0.83l-1.08,0.75l-1.16,0.75l-0.5,0.33l-0.58,0.42l-0.58,0.33l-0.58,0.33l-0.58,0.42
	l-0.5,0.33l-0.58,0.33l-0.58,0.33l-0.58,0.33l-0.58,0.33l-0.58,0.33l-0.66,0.33L62.12,118l-0.58,0.33l-0.58,0.33l-0.58,0.25
	l-0.58,0.33l-0.66,0.33"/>
<polyline class="st0" points="43.61,117.92 44.11,117.84 44.69,117.76 45.18,117.59 45.77,117.51 46.35,117.34 46.85,117.26 
	47.43,117.09 47.92,116.92 48.51,116.84 49,116.68 49.59,116.51 50.08,116.34 50.66,116.18 51.16,116.01 51.74,115.85 52.24,115.68 
	52.82,115.43 53.32,115.26 53.82,115.1 54.4,114.85 54.9,114.68 55.4,114.43 55.98,114.27 56.48,114.02 57.47,113.6 58.55,113.11 
	59.55,112.69 60.55,112.19 "/>
<polyline class="st0" points="34.64,127.55 35.05,127.64 35.39,127.72 35.8,127.8 36.22,127.89 36.55,127.97 36.96,128.05 
	37.38,128.05 37.71,128.13 38.13,128.13 38.54,128.13 38.87,128.13 39.29,128.05 39.7,128.05 40.04,127.97 40.45,127.97 
	40.87,127.89 "/>
<polyline class="st0" points="31.9,106.3 31.98,106.88 32.07,107.38 32.15,107.96 32.31,108.54 32.48,109.12 32.65,109.7 
	32.81,110.2 32.9,110.53 32.98,110.78 33.06,111.03 33.23,111.28 33.31,111.61 33.48,111.86 33.56,112.11 33.73,112.36 
	33.81,112.61 33.98,112.86 34.14,113.19 34.22,113.44 34.39,113.69 34.56,113.85 34.72,114.1 34.89,114.35 35.05,114.6 35.3,114.85 
	35.47,115.02 35.64,115.26 35.88,115.51 36.05,115.68 36.3,115.85 36.47,116.09 36.72,116.26 36.96,116.43 37.21,116.59 
	37.38,116.76 37.63,116.92 37.88,117.09 38.21,117.17 38.46,117.34 38.71,117.42 38.96,117.59 39.29,117.67 39.54,117.76 
	39.79,117.84 40.12,117.92 40.37,118 40.7,118 40.95,118.09 41.28,118.09 41.53,118.09 41.86,118.09 42.11,118.09 42.44,118.09 
	42.69,118.09 43.03,118 43.27,118 43.61,117.92 "/>
<path class="st0" d="M76.65,59.22l0.08-0.17v-0.08V58.8l0.08-0.08v-0.08l0.08-0.17h0.08v-0.08h0.08l0.08-0.08 M40.87,127.89
	l0.58-0.08l0.58-0.17l0.58-0.08l0.58-0.17l0.58-0.17l0.58-0.08l0.66-0.17l0.58-0.17l0.58-0.17l0.58-0.17l0.58-0.17l0.58-0.17
	l0.58-0.17l0.58-0.17l0.58-0.25l0.58-0.17l0.5-0.17l0.58-0.25l0.58-0.17l0.58-0.25l0.58-0.17l0.58-0.25l0.5-0.25l0.58-0.25
	l0.58-0.25l0.58-0.17l0.5-0.25l0.58-0.25l0.58-0.25l0.5-0.33l0.58-0.25l0.5-0.25 M59.13,121.66l0.66-0.33l0.58-0.25l0.58-0.33
	l0.66-0.33l0.58-0.33l0.58-0.33l0.58-0.33l0.66-0.33l0.58-0.33l0.58-0.33l0.58-0.33l0.58-0.33l0.58-0.42l0.58-0.33l0.58-0.33
	l0.58-0.42l0.58-0.33l0.5-0.42l0.58-0.33l0.58-0.42l1.16-0.75l1.08-0.83l1.08-0.83l1.08-0.83l1.08-0.83l1.08-0.83 M77.48,109.87
	l0.5-0.33l0.42-0.42l0.5-0.42l0.42-0.33l0.42-0.42l0.42-0.42l0.42-0.5l0.42-0.42l0.42-0.42l0.42-0.42l0.42-0.5l0.33-0.42l0.42-0.5
	l0.33-0.42l0.42-0.5l0.33-0.5l0.33-0.5l0.33-0.42l0.33-0.5l0.33-0.5l0.33-0.5l0.33-0.5l0.33-0.5l0.33-0.5l0.25-0.58l0.33-0.5
	l0.25-0.5l0.33-0.5l0.25-0.58l0.25-0.5l0.33-0.5l0.25-0.58l0.25-0.5l0.25-0.58l0.25-0.5l0.25-0.58l0.25-0.5l0.17-0.58l0.25-0.58
	l0.25-0.5l0.17-0.58l0.25-0.58l0.17-0.5l0.17-0.58l0.25-0.58l0.17-0.58l0.17-0.58l0.17-0.5l0.17-0.58l0.17-0.58l0.17-0.58l0.17-0.58
	l0.17-0.58l0.08-0.58l0.17-0.58l0.17-0.58l0.08-0.58l0.17-0.58l0.08-0.58l0.08-0.58l0.08-0.58l0.08-0.58l0.17-0.58l0.08-0.58
	 M94.42,76.74l0.17-1.74l0.25-1.66L95,71.59l0.17-1.66l0.17-1.74l0.17-1.66l0.17-1.74l0.08-1.66l0.17-1.74L96,59.63l0.08-1.66
	l0.08-1.74l0.08-1.66v-1.74l0.08-1.74v-1.66v-1.74v-1.66l-0.08-1.74v-1.74l-0.08-1.66l-0.08-1.74L96,37.46l-0.08-1.74l-0.17-1.74
	l-0.17-1.66l-0.17-1.74l-0.08-0.83l-0.08-0.83l-0.08-0.83l-0.08-0.91L95,26.34l-0.17-0.83l-0.08-0.83l-0.08-0.91l-0.17-0.83
	l-0.08-0.83 M94.42,22.1l-0.17-0.66l-0.08-0.66l-0.17-0.58l-0.08-0.66l-0.17-0.66l-0.17-0.58l-0.17-0.66l-0.25-0.58l-0.17-0.66
	l-0.25-0.58l-0.25-0.66l-0.08-0.25l-0.17-0.33L92.1,14.3l-0.08-0.33l-0.17-0.33l-0.17-0.25l-0.17-0.33l-0.08-0.25l-0.17-0.25
	l-0.17-0.33l-0.17-0.25l-0.17-0.33l-0.25-0.25l-0.17-0.25l-0.17-0.25l-0.17-0.33l-0.25-0.25l-0.17-0.25l-0.25-0.25l-0.17-0.25
	l-0.25-0.25l-0.25-0.25L88.45,8.9l-0.17-0.25L88.03,8.4l-0.25-0.17l-0.25-0.25l-0.25-0.17l-0.25-0.25L86.7,7.4l-0.25-0.17L86.2,7.07
	l-0.33-0.17l-0.25-0.17l-0.33-0.17l-0.25-0.17l-0.33-0.17l-0.25-0.08l-0.33-0.17L83.8,5.91l-0.25-0.08l-0.33-0.08"/>
<polyline class="st0" points="43.61,117.92 43.52,118.42 43.44,118.92 43.36,119.42 43.19,119.91 43.11,120.41 42.94,120.91 
	42.86,121.41 42.69,121.91 42.53,122.41 42.36,122.9 42.2,123.4 42.03,123.82 41.78,124.31 41.61,124.73 41.37,125.23 41.12,125.64 
	"/>
<polyline class="st0" points="77.57,101.23 77.57,101.65 77.65,102.14 77.65,102.56 77.73,102.98 77.73,103.39 77.73,103.81 
	77.73,104.22 77.73,104.64 77.73,105.05 77.65,105.47 77.65,105.88 77.57,106.3 77.48,106.71 77.4,107.13 77.32,107.54 
	77.24,107.96 "/>
<polyline class="st0" points="31.9,56.14 31.65,57.64 31.48,59.22 31.32,60.79 31.15,62.37 30.99,63.95 30.9,65.53 30.74,67.1 
	30.65,68.6 30.49,70.18 30.4,71.75 30.32,73.33 30.32,74.91 30.24,76.49 30.24,78.07 30.16,79.64 30.16,81.22 30.16,82.8 
	30.16,84.38 30.24,85.87 30.24,87.45 30.32,89.03 30.4,90.6 30.49,92.18 30.57,93.76 30.65,95.34 30.82,96.91 30.9,98.49 
	31.07,100.07 31.24,101.56 31.4,103.14 31.65,104.72 31.9,106.3 "/>
<polyline class="st0" points="43.61,32.98 43.27,33.23 42.94,33.48 42.61,33.73 42.28,34.06 42.03,34.31 41.7,34.64 41.45,34.89 
	41.12,35.22 40.87,35.55 40.62,35.8 40.29,36.13 40.04,36.47 39.79,36.8 39.54,37.13 39.29,37.46 39.04,37.79 38.79,38.13 
	38.54,38.46 38.29,38.79 38.04,39.12 37.88,39.45 37.63,39.79 37.38,40.2 37.21,40.53 36.96,40.87 36.8,41.28 36.55,41.61 
	36.38,41.95 36.22,42.36 35.97,42.69 35.64,43.44 35.3,44.19 34.97,44.93 34.64,45.68 34.31,46.51 34.06,47.26 33.73,48.09 
	33.48,48.84 33.23,49.67 32.98,50.42 32.81,51.25 32.56,52.08 32.4,52.82 32.23,53.65 32.07,54.48 31.98,55.31 31.9,56.14 "/>
<polyline class="st0" points="81.3,56.31 81.39,56.31 81.39,56.23 81.47,56.23 81.55,56.31 "/>
<polyline class="st0" points="76.9,59.63 76.82,59.63 76.82,59.55 76.74,59.55 76.74,59.47 76.74,59.38 76.74,59.3 76.65,59.3 
	76.65,59.22 "/>
<line class="st0" x1="76.9" y1="59.63" x2="76.99" y2="59.63"/>
</svg>
