<?xml version="1.0" encoding="utf-8"?>
<!-- Generator: Adobe Illustrator 24.0.0, SVG Export Plug-In . SVG Version: 6.00 Build 0)  -->
<svg version="1.1" id="图层_1" xmlns="http://www.w3.org/2000/svg" xmlns:xlink="http://www.w3.org/1999/xlink" x="0px" y="0px"
	 viewBox="0 0 141.73 141.73" style="enable-background:new 0 0 141.73 141.73;" xml:space="preserve">
<style type="text/css">
	.st0{fill:none;stroke:#000000;stroke-width:0.5;stroke-linecap:round;stroke-linejoin:round;stroke-miterlimit:10;}
</style>
<path class="st0" d="M5.41,99.14l1.2,2.23 M14.27,114.22l-7.34-12.29"/>
<path class="st0" d="M12.51,104.56l-1.2-2.31 M19.61,116.93l-6.94-12.13"/>
<path class="st0" d="M17.38,26.53L7.8,95.71 M4.93,95.79L14.5,26.6"/>
<line class="st0" x1="12.51" y1="96.35" x2="22.08" y2="27.16"/>
<path class="st0" d="M59.27,103.29l-46.76,1.28 M59.43,103.53l-46.76,1.28 M37.49,64.67l0.96-6.94 M36.29,65.07l0.96-6.94
	 M37.01,57.72l-0.96,6.94 M107.55,104.09l5.43-0.16 M107.31,105.68l5.43-0.08 M108.18,107.44l5.43-0.16 M113.77,107.52l-5.43,0.16
	 M66.45,115.66l-46.84,1.28 M117.76,114.46l-5.43,0.16"/>
<line class="st0" x1="113.61" y1="101.21" x2="108.26" y2="101.37"/>
<path class="st0" d="M11.63,99.62l46.84-1.28 M43.23,64.51l0.96-6.94 M42.03,57.65l-0.96,6.86 M40.84,58.04l-0.96,6.86 M39.64,64.59
	l0.96-6.94 M58.07,100.97l-46.76,1.28"/>
<path class="st0" d="M59.43,103.53l7.02,12.13 M59.43,95.15l-46.84,1.28"/>
<path class="st0" d="M45.62,57.49l-0.96,6.94 M44.43,57.96l-0.96,6.86"/>
<path class="st0" d="M69.16,25.89l-9.66,69.18 M74.27,109.11l-6.46-12.53 M44.19,57.57l0.24,0.4 M67.65,96.35l-1.36-2.23
	 M40.6,57.65l0.24,0.4 M43.47,64.83l-0.24-0.32 M58.07,100.97l1.2,2.31 M37.01,57.72l0.24,0.4 M39.88,64.91l-0.24-0.32 M36.29,65.07
	l-0.24-0.4"/>
<path class="st0" d="M108.18,112.54l-4.15-7.02 M83.93,40.01l-9.66,69.1 M77.38,27.4l-9.58,69.18 M77.22,27.16l-9.58,69.18
	 M75.95,24.93l-9.66,69.18 M63.42,94.19l9.66-69.18"/>
<path class="st0" d="M108.18,107.44l-0.88-1.76 M112.33,114.62l-3.99-6.94"/>
<line class="st0" x1="102.92" y1="103.37" x2="103.72" y2="105.04"/>
<path class="st0" d="M77.38,27.4l6.54,12.61 M75.95,24.93l1.28,2.23 M119.91,102.01l-0.96-1.68 M112.73,105.6l0.88,1.68
	 M113.77,107.52l3.99,6.94"/>
<path class="st0" d="M75.23,21.34l1.28,2.15 M83.37,36.82l-6.54-12.77"/>
<line class="st0" x1="123.74" y1="109.43" x2="120.07" y2="102.25"/>
<line class="st0" x1="112.57" y1="28.36" x2="102.52" y2="100.81"/>
<path class="st0" d="M113.05,67.54l-0.24-0.32 M118.32,28.44l5.43-0.16"/>
<line class="st0" x1="114.33" y1="28.28" x2="104.27" y2="100.73"/>
<line class="st0" x1="108.02" y1="101.13" x2="118.08" y2="28.68"/>
<path class="st0" d="M123.9,24.69l-5.35,0.16 M114.41,62.59l-0.64,4.63 M113.05,67.54l0.64-4.55 M112.81,67.22l0.64-4.63"/>
<line class="st0" x1="22.24" y1="27.08" x2="69" y2="25.81"/>
<line class="st0" x1="124.14" y1="23.01" x2="118.8" y2="23.17"/>
<path class="st0" d="M118.24,62.43l0.24,0.4 M115.84,62.51l0.24,0.4 M117.84,67.46l-0.24-0.4 M113.45,62.59l0.24,0.4 M115.45,67.54
	l-0.24-0.4"/>
<path class="st0" d="M118.56,67.06l0.64-4.63 M118.48,62.83l-0.64,4.63 M118.24,62.43l-0.64,4.63 M116.16,67.14l0.64-4.63
	 M116.08,62.91l-0.64,4.63 M115.84,62.51l-0.64,4.63"/>
<line class="st0" x1="123.98" y1="28.52" x2="113.93" y2="100.97"/>
<path class="st0" d="M128.45,25.17l0.96,1.6 M133.8,36.98l-10.05,72.45 M130.13,29.88l-10.05,72.37 M119.91,102.01l10.05-72.45
	 M118.96,100.34l10.05-72.37 M117.12,100.42l10.05-72.45 M22.72,19.74l46.84-1.28 M69.16,21.1L22.4,22.38"/>
<path class="st0" d="M130.13,29.88l3.67,7.1 M129.01,27.96l0.96,1.6"/>
<line class="st0" x1="133.4" y1="34.5" x2="129.73" y2="27.24"/>
<line class="st0" x1="59.35" y1="103.29" x2="59.59" y2="103.29"/>
<line class="st0" x1="113.61" y1="107.28" x2="113.85" y2="107.28"/>
<line class="st0" x1="76.82" y1="24.05" x2="76.58" y2="23.73"/>
<line class="st0" x1="6.84" y1="101.77" x2="6.92" y2="101.93"/>
<line class="st0" x1="103.95" y1="105.36" x2="104.03" y2="105.52"/>
<line class="st0" x1="119.2" y1="62.59" x2="119.12" y2="62.51"/>
<line class="st0" x1="114.33" y1="62.67" x2="114.25" y2="62.59"/>
<line class="st0" x1="116.72" y1="62.59" x2="116.64" y2="62.51"/>
<line class="st0" x1="113.05" y1="67.54" x2="113.05" y2="67.62"/>
<line class="st0" x1="115.45" y1="67.46" x2="115.45" y2="67.54"/>
<line class="st0" x1="117.92" y1="67.38" x2="117.92" y2="67.46"/>
<line class="st0" x1="112.89" y1="67.46" x2="112.89" y2="67.54"/>
<line class="st0" x1="115.29" y1="67.38" x2="115.29" y2="67.46"/>
<line class="st0" x1="117.68" y1="67.3" x2="117.68" y2="67.38"/>
<path class="st0" d="M118.24,62.43v-0.08h0.08v-0.08v-0.08h0.08v-0.08h0.08l0.08-0.08h0.08h0.08h0.08h0.08h0.08l0.08,0.08h0.08v0.08
	l0.08,0.08 M117.68,67.3h-0.08v-0.08v-0.08v-0.08 M119.12,62.43h-0.08h-0.08h-0.08h-0.08v0.08h-0.08h-0.08v0.08h-0.08v0.08h-0.08
	v0.08v0.08 M115.84,62.51v-0.08l0.08-0.08v-0.08H116v-0.08h0.08l0.08-0.08h0.08h0.08h0.08h0.08h0.08h0.08v0.08h0.08v0.08
	 M113.45,62.59v-0.08v-0.08h0.08v-0.08h0.08v-0.08h0.08l0.08-0.08h0.08h0.08l0.08-0.08v0.08h0.08h0.08h0.08v0.08h0.08v0.08
	 M108.18,107.44h-0.16h-0.16h-0.16h-0.16l-0.16-0.08h-0.16h-0.16l-0.16-0.08h-0.16l-0.16-0.08h-0.16l-0.16-0.08l-0.16-0.08h-0.16
	l-0.16-0.08l-0.16-0.08l-0.16-0.08l-0.16-0.08l-0.08-0.08l-0.16-0.08l-0.16-0.16l-0.16-0.08l-0.08-0.08l-0.16-0.16l-0.08-0.08
	l-0.16-0.16l-0.08-0.08l-0.08-0.16l-0.08-0.16l-0.16-0.16l-0.08-0.08l-0.08-0.16 M119.91,102.01v0.16l-0.08,0.08v0.16v0.16
	l-0.08,0.08v0.16l-0.08,0.16v0.08l-0.08,0.16l-0.08,0.08v0.16l-0.08,0.08l-0.08,0.16l-0.08,0.08v0.16l-0.08,0.08l-0.08,0.16
	l-0.08,0.08l-0.08,0.08l-0.08,0.16l-0.08,0.08l-0.08,0.16l-0.08,0.08l-0.08,0.08l-0.08,0.08l-0.08,0.16l-0.08,0.08l-0.16,0.08
	l-0.08,0.08l-0.08,0.08l-0.08,0.16l-0.16,0.08l-0.08,0.08l-0.08,0.08l-0.24,0.16l-0.24,0.16l-0.24,0.08l-0.16,0.16l-0.24,0.16
	l-0.32,0.08l-0.08,0.08l-0.16,0.08h-0.08l-0.16,0.08h-0.08l-0.16,0.08h-0.16l-0.08,0.08h-0.16l-0.08,0.08h-0.16h-0.16l-0.08,0.08
	h-0.16h-0.16h-0.08l-0.16,0.08h-0.16 M102.52,100.81l-0.08,0.16v0.16v0.16v0.16v0.16v0.16v0.16l0.08,0.16v0.16v0.16l0.08,0.16
	l0.08,0.16v0.16l0.08,0.16l0.08,0.16l0.08,0.16 M118.8,23.17h-0.16h-0.16h-0.16h-0.08l-0.16,0.08h-0.16h-0.08h-0.16l-0.16,0.08
	h-0.08l-0.16,0.08h-0.16l-0.08,0.08h-0.16l-0.16,0.08h-0.08l-0.16,0.08l-0.08,0.08h-0.16l-0.16,0.08L116,23.89l-0.16,0.08h-0.08
	l-0.16,0.08l-0.08,0.08l-0.16,0.08l-0.08,0.08l-0.16,0.08l-0.08,0.08l-0.08,0.08l-0.16,0.08l-0.08,0.08l-0.08,0.08l-0.16,0.08
	l-0.08,0.08l-0.08,0.16l-0.08,0.08l-0.16,0.08l-0.08,0.08l-0.08,0.08l-0.08,0.16l-0.08,0.08l-0.08,0.08l-0.08,0.16l-0.08,0.08
	l-0.08,0.16l-0.08,0.08l-0.08,0.08l-0.08,0.16l-0.08,0.08l-0.08,0.16v0.16l-0.08,0.08l-0.08,0.16v0.08l-0.08,0.16l-0.08,0.08v0.16
	l-0.08,0.16v0.08l-0.08,0.16v0.16v0.08v0.16 M118.56,67.06v0.08l-0.08,0.08l-0.08,0.08v0.08h-0.08l-0.08,0.08h-0.08h-0.08H118h-0.08
	h-0.08h-0.08v-0.08h-0.08 M116.16,67.14v0.08h-0.08v0.08L116,67.38l-0.08,0.08h-0.08v0.08h-0.08h-0.08h-0.08h-0.08h-0.08h-0.08
	v-0.08h-0.08 M113.77,67.22h-0.08v0.08v0.08l-0.08,0.08l-0.08,0.08h-0.08l-0.08,0.08h-0.08h-0.08h-0.08h-0.08h-0.08v-0.08h-0.08
	 M128.45,25.17l-0.08-0.16l-0.08-0.08l-0.08-0.16l-0.08-0.16l-0.16-0.08l-0.08-0.08l-0.08-0.16l-0.16-0.08l-0.08-0.08l-0.16-0.16
	l-0.16-0.08l-0.08-0.08l-0.16-0.08l-0.16-0.08l-0.08-0.08l-0.16-0.08l-0.16-0.08h-0.16l-0.16-0.08l-0.08-0.08h-0.16l-0.16-0.08
	h-0.16l-0.16-0.08h-0.16h-0.16l-0.16-0.08h-0.16h-0.16h-0.16h-0.16h-0.16 M129.41,26.76l0.08,0.16l0.08,0.16l0.08,0.16l0.08,0.16
	l0.08,0.16l0.08,0.24v0.16l0.08,0.16v0.16v0.24v0.16v0.16V29v0.24v0.16v0.16 M119.2,62.27v0.08v0.08 M116.72,62.27l0.08,0.08v0.08
	v0.08 M114.33,62.35l0.08,0.08v0.08v0.08"/>
<line class="st0" x1="123.98" y1="28.52" x2="123.98" y2="28.44"/>
<polyline class="st0" points="123.98,28.52 123.98,28.44 123.9,28.44 123.9,28.36 123.82,28.36 123.82,28.28 123.74,28.28 "/>
<polyline class="st0" points="118.32,28.44 118.24,28.44 118.24,28.52 118.16,28.52 118.08,28.6 118.08,28.68 "/>
<polyline class="st0" points="108.02,101.13 108.02,101.21 108.1,101.29 108.18,101.29 108.18,101.37 108.26,101.37 "/>
<polyline class="st0" points="113.61,101.21 113.69,101.21 113.77,101.13 113.85,101.13 113.85,101.05 113.93,100.97 "/>
<polyline class="st0" points="117.12,100.42 116.96,100.49 116.72,100.57 116.56,100.57 116.32,100.65 116.16,100.73 115.92,100.73 
	115.76,100.81 115.52,100.81 115.37,100.81 115.13,100.89 114.97,100.89 114.73,100.89 114.49,100.97 114.33,100.97 114.09,100.97 
	113.93,100.97 "/>
<polyline class="st0" points="113.61,101.21 113.61,101.53 113.53,101.93 113.45,102.25 113.37,102.57 113.37,102.73 113.29,102.89 
	113.21,103.13 113.21,103.29 113.13,103.45 113.05,103.61 112.97,103.77 112.97,103.93 "/>
<polyline class="st0" points="108.02,101.13 107.78,101.13 107.55,101.13 107.31,101.13 107.07,101.13 106.83,101.13 106.59,101.13 
	106.35,101.05 106.11,101.05 105.87,101.05 105.71,100.97 105.47,100.97 105.23,100.97 104.99,100.89 104.75,100.89 104.51,100.81 
	104.27,100.73 "/>
<polyline class="st0" points="107.55,104.09 107.63,103.93 107.7,103.77 107.7,103.61 107.78,103.45 107.86,103.21 107.86,103.05 
	107.94,102.89 107.94,102.73 108.02,102.41 108.1,102.01 108.18,101.69 108.26,101.37 "/>
<polyline class="st0" points="118.32,28.44 118.4,28.2 118.4,28.04 118.4,27.8 118.48,27.56 118.48,27.08 118.48,26.6 118.56,26.21 
	118.56,25.73 118.56,25.25 118.56,24.85 "/>
<polyline class="st0" points="114.33,28.28 114.57,28.36 114.81,28.44 115.05,28.44 115.29,28.52 115.52,28.52 115.76,28.6 
	116,28.6 116.16,28.6 116.4,28.6 116.64,28.68 116.88,28.68 117.12,28.68 117.36,28.68 117.6,28.68 117.84,28.68 118.08,28.68 "/>
<path class="st0" d="M102.92,103.37l0.08,0.16l0.08,0.08l0.08,0.16l0.08,0.16l0.08,0.16l0.16,0.08l0.08,0.16l0.08,0.08l0.16,0.16
	l0.16,0.08l0.08,0.08l0.16,0.08l0.16,0.16l0.08,0.08l0.16,0.08l0.16,0.08l0.16,0.08h0.16l0.16,0.08l0.16,0.08h0.16l0.16,0.08
	l0.16,0.08h0.16h0.16l0.16,0.08h0.16h0.16h0.16h0.16h0.16h0.16 M114.33,28.28V28.2l0.08-0.08v-0.16l0.08-0.16v-0.16l0.08-0.24
	l0.08-0.16l0.08-0.16l0.08-0.16l0.16-0.16l0.08-0.16l0.08-0.08l0.16-0.16l0.16-0.16l0.08-0.16l0.16-0.08l0.16-0.16l0.16-0.08
	l0.08-0.08l0.16-0.16l0.16-0.08l0.16-0.08l0.16-0.08l0.16-0.08l0.24-0.08l0.16-0.08h0.16l0.16-0.08h0.24l0.16-0.08h0.16h0.16h0.24
	 M107.55,104.09h-0.16h-0.16h-0.16l-0.16-0.08h-0.24h-0.16l-0.16-0.08l-0.16-0.08h-0.16l-0.08-0.08l-0.16-0.08l-0.16-0.08
	l-0.16-0.08l-0.16-0.08l-0.08-0.16l-0.16-0.08l-0.08-0.16l-0.16-0.08l-0.08-0.16l-0.08-0.16l-0.08-0.08l-0.08-0.16l-0.08-0.16
	l-0.08-0.16v-0.16l-0.08-0.16v-0.16v-0.16v-0.16v-0.16v-0.24v-0.16 M117.12,100.42v0.08v0.08l-0.08,0.24v0.16l-0.08,0.16l-0.08,0.16
	l-0.08,0.16l-0.08,0.16l-0.08,0.16l-0.08,0.16l-0.16,0.16l-0.08,0.16l-0.16,0.16l-0.08,0.08l-0.16,0.16l-0.16,0.16l-0.08,0.08
	l-0.16,0.16l-0.16,0.08l-0.16,0.08l-0.16,0.08l-0.16,0.08l-0.16,0.16h-0.16l-0.16,0.08l-0.24,0.08l-0.16,0.08h-0.16l-0.16,0.08
	h-0.24l-0.16,0.08h-0.16h-0.16 M123.9,24.69h0.24h0.16h0.16h0.16l0.16,0.08h0.16h0.16l0.16,0.08l0.16,0.08l0.16,0.08l0.16,0.08
	l0.08,0.08l0.16,0.08l0.16,0.08l0.08,0.08l0.16,0.16l0.16,0.08l0.08,0.16l0.08,0.08l0.08,0.16l0.08,0.16l0.08,0.16l0.08,0.16
	l0.08,0.16v0.16l0.08,0.16v0.16v0.16l0.08,0.16v0.16l-0.08,0.16v0.16 M112.73,105.6h0.08l0.16-0.08h0.16h0.16h0.08h0.16l0.16-0.08
	h0.08h0.16l0.16-0.08h0.08l0.16-0.08h0.16l0.08-0.08h0.16l0.16-0.08h0.08l0.16-0.08l0.08-0.08l0.16-0.08h0.08l0.16-0.08l0.08-0.08
	l0.16-0.08l0.08-0.08h0.16l0.08-0.08l0.16-0.08l0.08-0.08l0.16-0.08l0.08-0.08l0.08-0.08l0.16-0.16l0.08-0.08l0.08-0.08l0.08-0.08
	l0.16-0.08l0.08-0.08l0.08-0.16l0.08-0.08l0.08-0.08l0.08-0.16l0.08-0.08l0.16-0.08l0.08-0.16l0.08-0.08v-0.16l0.08-0.08l0.08-0.08
	l0.08-0.16l0.08-0.08l0.08-0.16v-0.16l0.08-0.08l0.08-0.16v-0.08l0.08-0.16v-0.16l0.08-0.08v-0.16l0.08-0.16v-0.08v-0.16l0.08-0.16
	 M129.01,27.96v-0.24v-0.16V27.4v-0.16V27v-0.16v-0.16l-0.08-0.16v-0.24l-0.08-0.16v-0.16l-0.08-0.16l-0.08-0.16l-0.08-0.16
	l-0.08-0.16l-0.08-0.16 M114.33,62.59h-0.08h-0.08h-0.08h-0.08h-0.08l-0.08,0.08l-0.08,0.08v0.08h-0.08v0.08v0.08 M114.33,62.59
	v-0.08"/>
<polyline class="st0" points="123.9,24.69 123.98,25.09 123.98,25.57 123.9,26.05 123.9,26.53 123.9,26.92 123.82,27.4 
	123.82,27.64 123.82,27.88 123.74,28.12 123.74,28.28 "/>
<polyline class="st0" points="123.98,28.52 124.14,28.52 124.38,28.52 124.54,28.52 124.78,28.44 125.02,28.44 125.18,28.44 
	125.42,28.44 125.58,28.36 125.82,28.36 125.98,28.28 126.22,28.28 126.38,28.2 126.62,28.12 126.78,28.12 127.02,28.04 
	127.17,27.96 "/>
<path class="st0" d="M12.51,104.56h-0.24h-0.24l-0.24-0.08h-0.16h-0.24h-0.24l-0.24-0.08h-0.16l-0.24-0.08l-0.24-0.08h-0.16
	l-0.24-0.08l-0.24-0.08l-0.16-0.08l-0.24-0.08l-0.16-0.16l-0.24-0.08l-0.16-0.08l-0.16-0.16l-0.24-0.08l-0.16-0.16l-0.16-0.16
	l-0.16-0.08l-0.16-0.16l-0.16-0.16l-0.16-0.16l-0.16-0.16l-0.08-0.24l-0.16-0.16l-0.16-0.16l-0.08-0.24l-0.08-0.16 M67.65,96.35
	l-0.08,0.16v0.16l-0.08,0.16v0.16l-0.08,0.16v0.24l-0.08,0.16l-0.08,0.16v0.16l-0.08,0.16l-0.08,0.16l-0.08,0.16l-0.08,0.16
	l-0.08,0.16l-0.08,0.16l-0.08,0.16l-0.16,0.16l-0.08,0.16l-0.08,0.16l-0.08,0.16l-0.16,0.08l-0.08,0.16l-0.16,0.16l-0.08,0.16
	l-0.08,0.08l-0.16,0.16l-0.16,0.08l-0.08,0.16l-0.16,0.16l-0.08,0.08l-0.16,0.16l-0.16,0.08l-0.08,0.16l-0.16,0.08l-0.16,0.08
	l-0.16,0.16l-0.16,0.08l-0.16,0.08l-0.08,0.08l-0.16,0.08l-0.16,0.16l-0.16,0.08l-0.16,0.08l-0.16,0.08l-0.16,0.08l-0.16,0.08
	l-0.16,0.08l-0.16,0.08h-0.24l-0.16,0.08l-0.16,0.08l-0.16,0.08H61.5l-0.16,0.08h-0.16l-0.24,0.08h-0.16l-0.16,0.08h-0.16
	l-0.24,0.08h-0.16h-0.16h-0.16h-0.16 M22.72,19.74h-0.16H22.4h-0.24l-0.16,0.08h-0.16h-0.16l-0.24,0.08h-0.16l-0.16,0.08h-0.16
	l-0.24,0.08h-0.16l-0.16,0.08l-0.16,0.08h-0.16l-0.16,0.08l-0.24,0.08l-0.16,0.08l-0.16,0.08l-0.16,0.08l-0.16,0.08l-0.16,0.08
	l-0.16,0.08l-0.16,0.08l-0.16,0.08l-0.16,0.08l-0.16,0.16l-0.16,0.08l-0.08,0.08L17.7,21.5l-0.16,0.16l-0.16,0.08l-0.16,0.16
	l-0.08,0.08l-0.16,0.16l-0.16,0.08l-0.08,0.16l-0.16,0.08l-0.08,0.16l-0.16,0.16l-0.08,0.16l-0.16,0.08l-0.08,0.16l-0.16,0.16
	l-0.08,0.16l-0.08,0.16l-0.16,0.08l-0.08,0.16l-0.08,0.16l-0.08,0.16l-0.08,0.16l-0.08,0.16l-0.08,0.16l-0.08,0.16l-0.08,0.24
	l-0.08,0.16v0.16l-0.08,0.16l-0.08,0.16v0.16l-0.08,0.24v0.16l-0.08,0.16v0.16 M4.93,95.79l-0.08,0.24v0.16v0.24v0.24v0.16v0.24
	v0.24l0.08,0.16v0.24l0.08,0.24v0.16l0.08,0.24l0.08,0.24l0.08,0.16l0.08,0.24l0.08,0.16 M41.08,64.51v0.08L41,64.67v0.08v0.08
	h-0.08v0.08h-0.08v0.08h-0.08v0.08h-0.08l-0.08,0.08h-0.08h-0.08l-0.08,0.08h-0.08H40.2h-0.08h-0.08v-0.08h-0.08h-0.08l-0.08-0.08
	l-0.08-0.08 M44.67,64.43v0.08l-0.08,0.08v0.08l-0.08,0.08l-0.08,0.08l-0.08,0.08l-0.08,0.08h-0.08v0.08h-0.08h-0.08h-0.08
	l-0.08,0.08h-0.08l-0.08-0.08h-0.08h-0.08l-0.08-0.08h-0.08v-0.08h-0.08v-0.08 M37.49,64.67h-0.08v0.08v0.08l-0.08,0.08v0.08h-0.08
	v0.08h-0.08v0.08h-0.08v0.08h-0.08h-0.08l-0.08,0.08h-0.08h-0.08h-0.08h-0.08h-0.08l-0.08-0.08h-0.08l-0.08-0.08l-0.08-0.08
	 M75.23,21.34l-0.08-0.24l-0.16-0.16l-0.08-0.16l-0.16-0.16l-0.16-0.16l-0.08-0.16l-0.16-0.16l-0.16-0.08l-0.16-0.16l-0.16-0.16
	l-0.16-0.08l-0.24-0.16l-0.16-0.08l-0.16-0.08l-0.16-0.16l-0.24-0.08l-0.16-0.08l-0.16-0.08l-0.24-0.08l-0.16-0.08H71.8l-0.16-0.08
	l-0.24-0.08h-0.16L71,18.55h-0.24H70.6l-0.24-0.08H70.2h-0.24h-0.24h-0.16 M76.51,23.49l0.08,0.08l0.08,0.08v0.16l0.08,0.08
	l0.08,0.08v0.16l0.08,0.08v0.08l0.08,0.16v0.08l0.08,0.16v0.08l0.08,0.24l0.08,0.24v0.24v0.24l0.08,0.24v0.24v0.24v0.24l-0.08,0.24
	v0.24 M41.95,57.33l0.08,0.08v0.08v0.08v0.08 M45.54,57.25h0.08v0.08v0.08v0.08 M38.36,57.41v0.08l0.08,0.08v0.08v0.08
	 M130.13,29.88v-0.16v-0.24v-0.16v-0.16V29v-0.16v-0.16v-0.16l-0.08-0.16V28.2l-0.08-0.16v-0.16l-0.08-0.16l-0.08-0.16V27.4
	l-0.08-0.16 M113.77,107.52h0.16h0.08h0.16h0.16h0.16l0.08-0.08h0.16h0.16l0.08-0.08h0.16h0.16l0.08-0.08h0.16l0.16-0.08l0.08-0.08
	h0.16l0.16-0.08h0.08l0.16-0.08l0.08-0.08l0.16-0.08h0.16l0.08-0.08l0.16-0.08l0.08-0.08l0.16-0.08l0.08-0.08l0.16-0.08l0.08-0.08
	l0.08-0.08l0.16-0.08l0.08-0.08l0.08-0.08l0.16-0.08l0.08-0.08l0.08-0.16l0.16-0.08l0.08-0.08l0.08-0.08l0.08-0.16l0.08-0.08
	l0.08-0.08l0.08-0.16l0.08-0.08l0.08-0.08l0.08-0.16l0.08-0.08l0.08-0.16l0.08-0.08l0.08-0.16l0.08-0.08l0.08-0.16v-0.08l0.08-0.16
	l0.08-0.08v-0.16l0.08-0.16v-0.08l0.08-0.16v-0.16l0.08-0.08v-0.16l0.08-0.16v-0.16 M104.03,105.52l0.08,0.16l0.08,0.08l0.08,0.16
	l0.08,0.16l0.16,0.08l0.08,0.16l0.16,0.08l0.08,0.08l0.16,0.16l0.08,0.08l0.16,0.08l0.08,0.08l0.16,0.08l0.16,0.08l0.16,0.08
	l0.08,0.08l0.16,0.08l0.16,0.08h0.16l0.16,0.08l0.16,0.08h0.16l0.08,0.08h0.16h0.16l0.16,0.08h0.16h0.16h0.16h0.16h0.16h0.16
	 M112.33,114.62h-0.16h-0.16h-0.16h-0.08l-0.16-0.08h-0.16h-0.16h-0.16l-0.16-0.08h-0.16l-0.16-0.08h-0.08l-0.16-0.08l-0.16-0.08
	h-0.16l-0.08-0.08l-0.16-0.08l-0.16-0.08l-0.08-0.08l-0.16-0.08l-0.16-0.08l-0.08-0.08l-0.16-0.08l-0.08-0.08l-0.16-0.16l-0.08-0.08
	l-0.08-0.08l-0.08-0.16l-0.16-0.08l-0.08-0.16l-0.08-0.08l-0.08-0.16 M123.74,109.43v0.16v0.08l-0.08,0.16v0.16v0.08l-0.08,0.16
	v0.08l-0.08,0.16l-0.08,0.08v0.16l-0.08,0.08l-0.08,0.16v0.08l-0.08,0.16l-0.08,0.08l-0.08,0.16l-0.08,0.08l-0.08,0.16l-0.08,0.08
	v0.08l-0.08,0.16l-0.16,0.08l-0.08,0.08l-0.08,0.08l-0.08,0.16l-0.08,0.08l-0.08,0.08l-0.08,0.08l-0.08,0.08l-0.16,0.08l-0.08,0.16
	l-0.08,0.08l-0.16,0.08l-0.08,0.08l-0.08,0.08l-0.16,0.08h-0.08l-0.08,0.08l-0.16,0.08l-0.08,0.08l-0.16,0.08l-0.08,0.08h-0.16
	l-0.08,0.08l-0.16,0.08l-0.08,0.08h-0.16l-0.08,0.08h-0.16l-0.08,0.08h-0.16l-0.08,0.08h-0.16l-0.16,0.08h-0.08l-0.16,0.08h-0.16
	h-0.08h-0.16l-0.16,0.08h-0.08H118h-0.08h-0.16 M133.4,34.5l0.08,0.16l0.08,0.16l0.08,0.16v0.16l0.08,0.16v0.16l0.08,0.08v0.16v0.16
	l0.08,0.16v0.16v0.16v0.16v0.16v0.16l-0.08,0.16 M115.29,67.38h-0.08V67.3v-0.08v-0.08 M116.72,62.51h-0.08h-0.08h-0.08h-0.08h-0.08
	v0.08h-0.08v0.08h-0.08v0.08h-0.08v0.08v0.08 M112.89,67.46h-0.08v-0.08V67.3v-0.08"/>
<polyline class="st0" points="69.16,25.89 69.4,25.89 69.64,25.89 69.88,25.81 70.12,25.81 70.36,25.81 70.68,25.73 70.92,25.73 
	71.16,25.65 71.4,25.65 71.64,25.57 71.88,25.49 72.12,25.41 72.36,25.33 72.6,25.25 72.67,25.17 72.83,25.17 72.91,25.09 
	73.07,25.01 "/>
<polyline class="st0" points="69.16,21.1 69.16,21.42 69.24,21.66 69.24,21.98 69.24,22.3 69.24,22.54 69.24,22.85 69.24,23.17 
	69.24,23.49 69.24,23.73 69.24,24.05 69.16,24.37 69.16,24.61 69.16,24.93 69.08,25.25 69.08,25.49 69,25.81 "/>
<polyline class="st0" points="17.38,26.53 17.7,26.6 17.94,26.68 18.25,26.76 18.57,26.84 18.81,26.92 19.13,26.92 19.45,27 
	19.69,27 20.01,27.08 20.33,27.08 20.65,27.08 20.89,27.16 21.21,27.16 21.53,27.16 21.85,27.16 22.08,27.16 "/>
<polyline class="st0" points="22.24,27.08 22.24,26.76 22.32,26.45 22.32,26.21 22.32,25.89 22.4,25.57 22.4,25.33 22.4,25.01 
	22.4,24.69 22.4,24.45 22.4,24.13 22.4,23.81 22.4,23.57 22.4,23.25 22.4,22.93 22.4,22.69 22.4,22.38 "/>
<path class="st0" d="M37.01,57.72v-0.08v-0.08h0.08v-0.08v-0.08h0.08v-0.08h0.08v-0.08h0.08h0.08v-0.08h0.08h0.08v-0.08h0.08h0.08
	h0.08h0.08h0.08h0.08l0.08,0.08h0.08v0.08h0.08v0.08l0.08,0.08 M36.13,65.07l-0.08-0.08v-0.08v-0.08v-0.08v-0.08 M39.72,64.99v-0.08
	h-0.08v-0.08v-0.08v-0.08v-0.08 M39.88,64.91v0.08v0.08v0.08 M45.62,57.41h-0.08l-0.08-0.08h-0.08h-0.08h-0.08h-0.08h-0.08h-0.08
	h-0.08l-0.08,0.08h-0.08l-0.08,0.08l-0.08,0.08v0.08h-0.08v0.08l-0.08,0.08v0.08v0.08 M43.47,64.83v0.08v0.08 M38.44,57.65
	l-0.08-0.08h-0.08H38.2v-0.08h-0.08h-0.08h-0.08h-0.08H37.8l-0.08,0.08h-0.08l-0.08,0.08h-0.08l-0.08,0.08l-0.08,0.08v0.08
	l-0.08,0.08v0.08v0.08 M43.31,64.83l-0.08-0.08v-0.08v-0.08v-0.08 M36.29,65.07v0.08v0.08 M75.95,24.93v-0.24v-0.24l0.08-0.16v-0.24
	l-0.08-0.24v-0.24v-0.24l-0.08-0.24v-0.24l-0.08-0.24l-0.08-0.24V22.3l-0.08-0.16v-0.08l-0.08-0.08l-0.08-0.16v-0.08l-0.08-0.08
	l-0.08-0.16v-0.08l-0.08-0.08 M58.07,100.97h0.24h0.16h0.16h0.16l0.24-0.08h0.16h0.16l0.16-0.08h0.24l0.16-0.08h0.16l0.16-0.08
	l0.16-0.08h0.24l0.16-0.08l0.16-0.08l0.16-0.08l0.16-0.08l0.16-0.08l0.16-0.08l0.16-0.08l0.16-0.08l0.16-0.08l0.16-0.08l0.16-0.08
	l0.16-0.08l0.16-0.08l0.16-0.16l0.16-0.08l0.16-0.08l0.08-0.16l0.16-0.08l0.16-0.08l0.16-0.16l0.08-0.08l0.16-0.16l0.16-0.16
	l0.08-0.08l0.16-0.16l0.08-0.16l0.16-0.08l0.08-0.16l0.16-0.16l0.08-0.16l0.08-0.08l0.16-0.16l0.08-0.16l0.08-0.16l0.08-0.16
	l0.08-0.16l0.08-0.16l0.08-0.16l0.08-0.16l0.08-0.16l0.08-0.16l0.08-0.16l0.08-0.24v-0.16l0.08-0.16l0.08-0.16v-0.16l0.08-0.24
	v-0.16v-0.16 M11.63,99.62h-0.16h-0.24h-0.16h-0.24l-0.16-0.08h-0.24l-0.16-0.08l-0.16-0.08L9.88,99.3l-0.16-0.08l-0.16-0.08H9.48
	L9.4,99.06l-0.08-0.08H9.24L9.16,98.9l-0.08-0.08H9l-0.08-0.08l-0.08-0.08l-0.08-0.08L8.68,98.5L8.6,98.42l-0.08-0.08l-0.08-0.08
	v-0.08L8.36,98.1l-0.08-0.08v-0.08L8.2,97.86l-0.08-0.08V97.7l-0.08-0.08v-0.08l-0.08-0.08v-0.08l-0.08-0.16v-0.08v-0.08L7.8,96.98
	V96.9v-0.16v-0.08v-0.08l-0.08-0.08v-0.08v-0.16v-0.08v-0.08v-0.08v-0.16l0.08-0.16 M63.42,94.19v0.08v0.16v0.08l-0.08,0.08v0.16
	v0.08l-0.08,0.08v0.16l-0.08,0.08v0.08l-0.08,0.08v0.16l-0.08,0.08l-0.08,0.08l-0.08,0.16l-0.16,0.24l-0.08,0.16l-0.16,0.16
	l-0.16,0.16l-0.16,0.16l-0.16,0.16l-0.16,0.16l-0.16,0.16L61.5,97.3l-0.16,0.08l-0.16,0.16l-0.24,0.08l-0.16,0.08l-0.24,0.16
	l-0.16,0.08l-0.24,0.08l-0.16,0.08l-0.24,0.08h-0.24l-0.16,0.08h-0.24l-0.24,0.08h-0.16h-0.24 M69.16,21.1h0.24h0.16h0.24l0.16,0.08
	h0.24l0.16,0.08h0.16l0.24,0.08l0.16,0.08l0.16,0.08l0.24,0.08l0.08,0.08h0.08l0.08,0.08h0.08l0.08,0.08l0.08,0.08l0.08,0.08h0.08
	l0.08,0.08l0.08,0.08v0.08l0.08,0.08l0.08,0.08l0.08,0.08l0.08,0.08v0.08l0.08,0.08l0.08,0.08l0.08,0.08v0.08l0.08,0.08v0.08
	l0.08,0.08v0.08l0.08,0.16v0.08v0.08l0.08,0.08v0.08v0.16l0.08,0.08v0.08v0.08v0.08v0.16v0.08v0.08v0.08v0.16v0.08v0.16
	 M17.38,26.53v-0.08v-0.08l0.08-0.16v-0.08v-0.08l0.08-0.16v-0.08l0.08-0.08v-0.16l0.08-0.08v-0.08l0.08-0.08v-0.16l0.08-0.08
	l0.16-0.16l0.08-0.24l0.16-0.16l0.08-0.16l0.16-0.16l0.16-0.16l0.16-0.16l0.16-0.16l0.16-0.16l0.16-0.08l0.16-0.16l0.24-0.16
	l0.16-0.08l0.16-0.08l0.24-0.08l0.16-0.16l0.24-0.08l0.24-0.08h0.16l0.24-0.08l0.24-0.08h0.16l0.24-0.08h0.24h0.24"/>
<line class="st0" x1="12.51" y1="96.35" x2="12.51" y2="96.27"/>
<polyline class="st0" points="12.51,96.35 12.51,96.43 12.59,96.43 "/>
<polyline class="st0" points="59.43,95.15 59.51,95.15 59.51,95.07 "/>
<polyline class="st0" points="69.16,25.89 69.08,25.81 69,25.81 "/>
<polyline class="st0" points="22.24,27.08 22.16,27.08 22.08,27.08 22.08,27.16 "/>
<path class="st0" d="M5.41,99.14l0.16,0.16l0.08,0.24l0.16,0.16l0.08,0.16l0.16,0.16l0.16,0.24l0.08,0.16l0.16,0.08l0.16,0.16
	l0.16,0.16L7,100.97l0.16,0.08l0.16,0.16l0.16,0.08l0.24,0.16l0.16,0.08l0.24,0.08l0.16,0.08l0.24,0.08l0.16,0.08l0.24,0.08
	l0.16,0.08l0.24,0.08h0.24l0.16,0.08h0.24l0.24,0.08h0.24h0.16h0.24h0.24h0.24 M40.6,57.65v-0.08v-0.08l0.08-0.08l0.08-0.08v-0.08
	h0.08l0.08-0.08L41,57.09h0.08l0.08-0.08h0.08h0.08h0.08h0.08h0.08h0.08l0.08,0.08h0.08l0.08,0.08l0.08,0.08v0.08 M44.19,57.57
	v-0.08l0.08-0.08v-0.08l0.08-0.08v-0.08h0.08v-0.08h0.08l0.08-0.08l0.08-0.08h0.08h0.08h0.08h0.08h0.08h0.08h0.08h0.08v0.08h0.08
	h0.08v0.08l0.08,0.08v0.08 M42.03,57.57l-0.08-0.08h-0.08v-0.08h-0.08h-0.08h-0.08h-0.08h-0.08H41.4l-0.08,0.08h-0.08l-0.08,0.08
	h-0.08L41,57.65v0.08h-0.08v0.08l-0.08,0.08v0.08v0.08"/>
<polyline class="st0" points="11.63,99.62 11.71,99.54 11.71,99.46 11.79,99.38 11.87,99.22 11.95,99.06 12.03,98.9 12.11,98.66 
	12.19,98.5 12.19,98.26 12.27,98.1 12.35,97.86 12.35,97.62 12.43,97.46 12.43,97.22 12.51,97.06 12.51,96.82 12.59,96.59 
	12.59,96.43 "/>
<polyline class="st0" points="12.51,96.35 12.19,96.35 11.87,96.35 11.63,96.35 11.31,96.27 10.99,96.27 10.67,96.27 10.43,96.19 
	10.12,96.19 9.8,96.11 9.56,96.11 9.24,96.03 8.92,95.95 8.68,95.95 8.36,95.87 8.04,95.79 7.8,95.71 "/>
<polyline class="st0" points="63.42,94.19 63.34,94.27 63.26,94.27 63.1,94.35 63.02,94.43 62.78,94.51 62.54,94.59 62.3,94.67 
	62.06,94.75 61.82,94.75 61.5,94.83 61.26,94.91 61.02,94.91 60.79,94.91 60.55,94.99 60.31,94.99 60.07,94.99 59.75,95.07 
	59.51,95.07 "/>
<polyline class="st0" points="59.43,95.15 59.35,95.31 59.35,95.55 59.35,95.79 59.27,95.95 59.27,96.19 59.19,96.35 59.11,96.59 
	59.11,96.82 59.03,96.98 58.95,97.22 58.87,97.38 58.79,97.62 58.79,97.78 58.63,98.02 58.63,98.1 58.55,98.18 58.55,98.26 
	58.47,98.34 "/>
<polyline class="st0" points="6.92,101.93 7,102.09 7.16,102.25 7.24,102.49 7.4,102.65 7.48,102.81 7.64,102.97 7.8,103.05 
	7.96,103.21 8.12,103.37 8.28,103.53 8.44,103.61 8.6,103.77 8.84,103.85 9,103.93 9.16,104.09 9.4,104.17 9.56,104.25 9.72,104.33 
	9.96,104.4 10.12,104.48 10.36,104.48 10.51,104.56 10.75,104.64 10.99,104.64 11.15,104.72 11.39,104.72 11.55,104.72 11.79,104.8 
	12.03,104.8 12.19,104.8 12.43,104.8 12.67,104.8 "/>
<polyline class="st0" points="59.43,103.53 59.67,103.53 59.83,103.53 59.99,103.53 60.15,103.45 60.39,103.45 60.55,103.45 
	60.71,103.37 60.95,103.37 61.1,103.29 61.26,103.29 61.42,103.21 61.58,103.21 61.82,103.13 61.98,103.05 62.14,103.05 
	62.3,102.97 62.46,102.89 62.62,102.81 62.86,102.73 63.02,102.65 63.18,102.57 63.34,102.49 63.5,102.41 63.66,102.33 
	63.82,102.25 63.98,102.17 64.14,102.01 64.3,101.93 64.38,101.85 64.54,101.69 64.7,101.61 64.86,101.53 65.01,101.37 
	65.09,101.29 65.25,101.13 65.41,100.97 65.49,100.89 65.65,100.73 65.81,100.65 65.89,100.49 66.05,100.34 66.13,100.18 
	66.29,100.1 66.37,99.94 66.45,99.78 66.61,99.62 66.69,99.46 66.77,99.3 66.85,99.14 66.93,98.98 67.01,98.82 67.09,98.66 
	67.17,98.5 67.25,98.34 67.33,98.18 67.41,98.02 67.49,97.86 67.57,97.62 67.57,97.46 67.65,97.3 67.65,97.14 67.73,96.9 
	67.73,96.74 67.81,96.59 "/>
<polyline class="st0" points="77.38,27.4 77.38,27.24 77.38,27 77.46,26.76 77.46,26.53 77.46,26.37 77.38,26.13 77.38,25.89 
	77.38,25.73 77.3,25.49 77.3,25.25 77.22,25.01 77.14,24.85 77.06,24.61 76.98,24.45 76.9,24.21 76.82,24.05 "/>
<polyline class="st0" points="74.27,109.11 74.27,109.27 74.27,109.51 74.19,109.67 74.19,109.83 74.11,109.99 74.03,110.15 
	74.03,110.31 73.95,110.47 73.87,110.63 73.79,110.79 73.79,110.95 73.71,111.11 73.63,111.27 73.55,111.43 73.47,111.59 
	73.31,111.67 73.23,111.83 73.15,111.99 73.07,112.15 72.99,112.3 72.83,112.38 72.75,112.54 72.67,112.7 72.52,112.78 
	72.44,112.94 72.28,113.1 72.2,113.18 72.04,113.34 71.96,113.42 71.8,113.5 71.64,113.66 71.56,113.74 71.4,113.9 71.24,113.98 
	71.16,114.06 71,114.14 70.84,114.3 70.68,114.38 70.52,114.46 70.36,114.54 70.28,114.62 70.12,114.7 69.96,114.78 69.8,114.86 
	69.64,114.94 69.48,115.02 69.32,115.1 69.16,115.1 69,115.18 68.84,115.26 68.69,115.34 68.53,115.34 68.37,115.42 68.13,115.42 
	67.97,115.5 67.81,115.5 67.65,115.58 67.49,115.58 67.33,115.58 67.17,115.66 66.93,115.66 66.77,115.66 66.61,115.66 
	66.45,115.66 "/>
<polyline class="st0" points="19.61,116.93 19.45,116.93 19.21,116.93 19.05,116.93 18.81,116.93 18.65,116.93 18.41,116.85 
	18.25,116.85 18.1,116.85 17.86,116.77 17.7,116.77 17.46,116.69 17.3,116.61 17.14,116.53 16.9,116.45 16.74,116.45 16.58,116.29 
	16.42,116.21 16.18,116.13 16.02,116.05 15.86,115.98 15.7,115.82 15.54,115.74 15.38,115.58 15.22,115.5 15.06,115.34 
	14.98,115.18 14.82,115.02 14.66,114.86 14.58,114.78 14.42,114.62 14.34,114.46 14.27,114.22 "/>
<polyline class="st0" points="83.37,36.82 83.45,36.98 83.53,37.14 83.61,37.38 83.69,37.54 83.77,37.78 83.77,37.94 83.85,38.18 
	83.85,38.33 83.93,38.57 83.93,38.73 83.93,38.97 83.93,39.13 83.93,39.37 83.93,39.61 83.93,39.77 83.93,40.01 "/>
</svg>
